<svg xmlns="http://www.w3.org/2000/svg" viewBox="0 0 62.51 94.26"><defs><style>.cls-1{fill:#fff;}</style></defs><title>Burn Fat</title><g id="Layer_2" data-name="Layer 2"><g id="Layer_1-2" data-name="Layer 1"><path class="cls-1" d="M43.63,25c-17.37-20.31.75-22.37.75-22.37S28.57-6.55,18.25,9.38c-5.11,7.89.5,20.87.5,20.87S10,26.57,2.88,33.13c3.56-.06,7.06,3.81,7.38,9S.13,53.76,0,63A31,31,0,0,0,26.63,93.92,15.78,15.78,0,0,1,14.24,78.63c-.16-10.28,9.44-19,9.44-19,8.69-10.16,4.72-17.95,4.72-17.95s4.35,1.35,8,10.13c4.53,11-4.65,18.12-4.65,18.12s9.51,5.54,12.34-6.24c5.84,5.07,4.18,14.66,3.25,16.89-2.25,5.4-8.61,13.4-17,13.66l1,0A31.42,31.42,0,0,0,62.5,63C62.82,42.45,43.63,25,43.63,25Z"/></g></g></svg>