<svg xmlns="http://www.w3.org/2000/svg" viewBox="0 0 360 138"><defs><style>.cls-1{isolation:isolate;}.cls-2,.cls-26,.cls-37,.cls-72{fill:none;}.cls-3{fill:#dbdada;}.cls-4{fill:#6db544;}.cls-5{fill:#8cc540;}.cls-19,.cls-6{fill:#ababab;}.cls-16,.cls-17,.cls-7{fill:#c1c3c8;}.cls-7{stroke:#c1c3c8;stroke-width:2.53px;}.cls-26,.cls-37,.cls-7{stroke-linecap:round;}.cls-26,.cls-7{stroke-linejoin:round;}.cls-13,.cls-56,.cls-7,.cls-8{opacity:0.2;}.cls-9{fill:#d5d5d5;}.cls-10,.cls-30{opacity:0.4;}.cls-11{fill:#e2e2e2;}.cls-12,.cls-13{fill:#a7a8ab;}.cls-14,.cls-29,.cls-40{opacity:0.5;}.cls-15,.cls-17,.cls-19,.cls-35,.cls-36,.cls-68{opacity:0.3;}.cls-18{fill:#c8c8c8;}.cls-20{fill:#8e8888;}.cls-20,.cls-77{opacity:0.1;}.cls-20,.cls-68{mix-blend-mode:multiply;}.cls-21{fill:#808184;}.cls-22{fill:#bfbebe;}.cls-23{fill:#f6f7f7;}.cls-24{fill:#b8b7b8;}.cls-25{fill:#e6e6e6;}.cls-26{stroke:#fff;stroke-width:1.77px;}.cls-27,.cls-35{fill:#5d6061;}.cls-28{fill:#b9c7cb;}.cls-29,.cls-30,.cls-31{fill:#839498;}.cls-32{fill:#cccdce;}.cls-33{fill:#c3c3c3;}.cls-34{fill:#b1acaa;}.cls-35,.cls-36{mix-blend-mode:darken;}.cls-36,.cls-39{fill:#7a7675;}.cls-37{stroke:#9a9695;stroke-width:2.02px;}.cls-37,.cls-62,.cls-72{stroke-miterlimit:10;}.cls-38{fill:#d1d2d3;}.cls-40,.cls-42{fill:#e7e7e7;}.cls-41{fill:#dededd;}.cls-43{fill:#9d9d9d;}.cls-44{fill:#8e8e8e;}.cls-45{fill:#636060;}.cls-46{fill:#f79d6a;}.cls-47{fill:#f7b189;}.cls-48{fill:#ffb800;}.cls-49{fill:#006cb6;}.cls-50{fill:#0061a3;}.cls-51{fill:#e3e3e3;}.cls-52{fill:#e05a0b;}.cls-53,.cls-56{fill:#f7630c;}.cls-54{fill:#a3613e;}.cls-55{fill:#d1d3d4;}.cls-57{fill:#005087;}.cls-58{fill:#ffcd80;}.cls-59{fill:#ffd594;}.cls-60{fill:#003e69;}.cls-61{fill:#ff9e00;}.cls-62{fill:#fff;stroke:#000;stroke-width:1.99px;}.cls-63{fill:#00487a;}.cls-64{fill:#11255e;}.cls-65{fill:#ffbf7d;}.cls-66{fill:#ffcb94;}.cls-67{fill:#cf7f00;}.cls-69{fill:#00365c;}.cls-70{fill:#002a47;}.cls-71{fill:#ff8400;}.cls-72{stroke:#ffcb94;stroke-width:0.24px;}.cls-73{opacity:0.05;}.cls-74{fill:#f7a87c;}.cls-75{fill:#005b70;}.cls-76{fill:#00b294;}.cls-78{fill:#fa0;}.cls-79{fill:#006f94;}.cls-80{fill:#231f20;}.cls-81{fill:#003f54;}</style></defs><title>personalize_and_start_360x138ep</title><g class="cls-1"><g id="personalize_and_start" data-name="personalize and start"><rect class="cls-2" width="360" height="138"/><rect class="cls-3" x="38.64" y="107.99" width="282.2" height="30.01" rx="15.01" ry="15.01"/><path class="cls-4" d="M267.75,93V90.9A2,2,0,0,0,266,88.78a3.08,3.08,0,0,1-2.49-1.38A2.82,2.82,0,0,0,261.32,86H256.4a3.49,3.49,0,0,0-3.47,3.5V93"/><path class="cls-5" d="M267.75,93V90.9A2,2,0,0,0,266,88.78c-1,0-2.07-1.2-2.49-2.67s-2.8-2.67-5.3-2.67h-0.75c-2.5,0-4.55.58-4.55,1.29V93"/><rect class="cls-6" x="258.15" y="91.85" width="10.23" height="5.22"/><polygon class="cls-7" points="186.78 14.16 186.78 4 177.98 4 177.98 14.16 171.72 14.16 171.72 97.08 193.04 97.08 193.04 14.16 186.78 14.16"/><g class="cls-8"><rect class="cls-9" x="139.2" y="14.84" width="27.55" height="82.45" rx="0.75" ry="0.75"/><g class="cls-10"><path class="cls-6" d="M142.31,19.14A1.35,1.35,0,0,0,141,20.48V23a0.23,0.23,0,0,0,.23.23h2.24a0.23,0.23,0,0,0,.23-0.23V20.48A1.35,1.35,0,0,0,142.31,19.14Z"/><path class="cls-6" d="M147.65,19.14a1.35,1.35,0,0,0-1.34,1.34V23a0.23,0.23,0,0,0,.23.23h2.24A0.23,0.23,0,0,0,149,23V20.48A1.35,1.35,0,0,0,147.65,19.14Z"/><path class="cls-6" d="M153,19.14a1.35,1.35,0,0,0-1.34,1.34V23a0.23,0.23,0,0,0,.23.23h2.24a0.23,0.23,0,0,0,.23-0.23V20.48A1.35,1.35,0,0,0,153,19.14Z"/><path class="cls-6" d="M158.32,19.14A1.35,1.35,0,0,0,157,20.48V23a0.23,0.23,0,0,0,.23.23h2.24a0.23,0.23,0,0,0,.23-0.23V20.48A1.35,1.35,0,0,0,158.32,19.14Z"/><path class="cls-6" d="M163.66,19.14a1.35,1.35,0,0,0-1.34,1.34V23a0.23,0.23,0,0,0,.23.23h2.24A0.23,0.23,0,0,0,165,23V20.48A1.35,1.35,0,0,0,163.66,19.14Z"/><path class="cls-6" d="M142.31,27.1A1.35,1.35,0,0,0,141,28.44V31a0.23,0.23,0,0,0,.23.23h2.24a0.23,0.23,0,0,0,.23-0.23V28.44A1.35,1.35,0,0,0,142.31,27.1Z"/><path class="cls-6" d="M147.65,27.1a1.35,1.35,0,0,0-1.34,1.34V31a0.23,0.23,0,0,0,.23.23h2.24A0.23,0.23,0,0,0,149,31V28.44A1.35,1.35,0,0,0,147.65,27.1Z"/><path class="cls-6" d="M153,27.1a1.35,1.35,0,0,0-1.34,1.34V31a0.23,0.23,0,0,0,.23.23h2.24a0.23,0.23,0,0,0,.23-0.23V28.44A1.35,1.35,0,0,0,153,27.1Z"/><path class="cls-6" d="M158.32,27.1A1.35,1.35,0,0,0,157,28.44V31a0.23,0.23,0,0,0,.23.23h2.24a0.23,0.23,0,0,0,.23-0.23V28.44A1.35,1.35,0,0,0,158.32,27.1Z"/><path class="cls-6" d="M163.66,27.1a1.35,1.35,0,0,0-1.34,1.34V31a0.23,0.23,0,0,0,.23.23h2.24A0.23,0.23,0,0,0,165,31V28.44A1.35,1.35,0,0,0,163.66,27.1Z"/></g><rect class="cls-11" x="138.29" y="14.67" width="29.38" height="2.81" rx="0.6" ry="0.6"/><g class="cls-8"><rect class="cls-12" x="139.2" y="24.67" width="27.56" height="1.14"/></g><g class="cls-8"><rect class="cls-12" x="139.2" y="32.82" width="27.56" height="1.14"/></g><g class="cls-10"><path class="cls-6" d="M142.31,35.87A1.35,1.35,0,0,0,141,37.21v2.54a0.23,0.23,0,0,0,.23.23h2.24a0.23,0.23,0,0,0,.23-0.23V37.21A1.35,1.35,0,0,0,142.31,35.87Z"/><path class="cls-6" d="M147.65,35.87a1.35,1.35,0,0,0-1.34,1.34v2.54a0.23,0.23,0,0,0,.23.23h2.24a0.23,0.23,0,0,0,.23-0.23V37.21A1.35,1.35,0,0,0,147.65,35.87Z"/><path class="cls-6" d="M153,35.87a1.35,1.35,0,0,0-1.34,1.34v2.54a0.23,0.23,0,0,0,.23.23h2.24a0.23,0.23,0,0,0,.23-0.23V37.21A1.35,1.35,0,0,0,153,35.87Z"/><path class="cls-6" d="M158.32,35.87A1.35,1.35,0,0,0,157,37.21v2.54a0.23,0.23,0,0,0,.23.23h2.24a0.23,0.23,0,0,0,.23-0.23V37.21A1.35,1.35,0,0,0,158.32,35.87Z"/><path class="cls-6" d="M163.66,35.87a1.35,1.35,0,0,0-1.34,1.34v2.54a0.23,0.23,0,0,0,.23.23h2.24a0.23,0.23,0,0,0,.23-0.23V37.21A1.35,1.35,0,0,0,163.66,35.87Z"/><path class="cls-6" d="M142.31,43.83A1.35,1.35,0,0,0,141,45.17v2.54a0.23,0.23,0,0,0,.23.23h2.24a0.23,0.23,0,0,0,.23-0.23V45.17A1.35,1.35,0,0,0,142.31,43.83Z"/><path class="cls-6" d="M147.65,43.83a1.35,1.35,0,0,0-1.34,1.34v2.54a0.23,0.23,0,0,0,.23.23h2.24a0.23,0.23,0,0,0,.23-0.23V45.17A1.35,1.35,0,0,0,147.65,43.83Z"/><path class="cls-6" d="M153,43.83a1.35,1.35,0,0,0-1.34,1.34v2.54a0.23,0.23,0,0,0,.23.23h2.24a0.23,0.23,0,0,0,.23-0.23V45.17A1.35,1.35,0,0,0,153,43.83Z"/><path class="cls-6" d="M158.32,43.83A1.35,1.35,0,0,0,157,45.17v2.54a0.23,0.23,0,0,0,.23.23h2.24a0.23,0.23,0,0,0,.23-0.23V45.17A1.35,1.35,0,0,0,158.32,43.83Z"/><path class="cls-6" d="M163.66,43.83a1.35,1.35,0,0,0-1.34,1.34v2.54a0.23,0.23,0,0,0,.23.23h2.24a0.23,0.23,0,0,0,.23-0.23V45.17A1.35,1.35,0,0,0,163.66,43.83Z"/></g><g class="cls-8"><rect class="cls-12" x="139.2" y="40.97" width="27.56" height="1.14"/></g><g class="cls-8"><rect class="cls-12" x="139.2" y="49.13" width="27.56" height="1.14"/></g><g class="cls-10"><path class="cls-6" d="M142.31,51.76A1.35,1.35,0,0,0,141,53.1v2.54a0.23,0.23,0,0,0,.23.23h2.24a0.23,0.23,0,0,0,.23-0.23V53.1A1.34,1.34,0,0,0,142.31,51.76Z"/><path class="cls-6" d="M147.65,51.76a1.35,1.35,0,0,0-1.34,1.34v2.54a0.23,0.23,0,0,0,.23.23h2.24a0.23,0.23,0,0,0,.23-0.23V53.1A1.35,1.35,0,0,0,147.65,51.76Z"/><path class="cls-6" d="M153,51.76a1.35,1.35,0,0,0-1.34,1.34v2.54a0.23,0.23,0,0,0,.23.23h2.24a0.23,0.23,0,0,0,.23-0.23V53.1A1.34,1.34,0,0,0,153,51.76Z"/><path class="cls-6" d="M158.32,51.76A1.35,1.35,0,0,0,157,53.1v2.54a0.23,0.23,0,0,0,.23.23h2.24a0.23,0.23,0,0,0,.23-0.23V53.1A1.34,1.34,0,0,0,158.32,51.76Z"/><path class="cls-6" d="M163.66,51.76a1.35,1.35,0,0,0-1.34,1.34v2.54a0.23,0.23,0,0,0,.23.23h2.24a0.23,0.23,0,0,0,.23-0.23V53.1A1.35,1.35,0,0,0,163.66,51.76Z"/><path class="cls-6" d="M142.31,59.72A1.35,1.35,0,0,0,141,61.06v2.54a0.23,0.23,0,0,0,.23.23h2.24a0.23,0.23,0,0,0,.23-0.23V61.06A1.35,1.35,0,0,0,142.31,59.72Z"/><path class="cls-6" d="M147.65,59.72a1.35,1.35,0,0,0-1.34,1.34v2.54a0.23,0.23,0,0,0,.23.23h2.24a0.23,0.23,0,0,0,.23-0.23V61.06A1.35,1.35,0,0,0,147.65,59.72Z"/><path class="cls-6" d="M153,59.72a1.35,1.35,0,0,0-1.34,1.34v2.54a0.23,0.23,0,0,0,.23.23h2.24a0.23,0.23,0,0,0,.23-0.23V61.06A1.35,1.35,0,0,0,153,59.72Z"/><path class="cls-6" d="M158.32,59.72A1.35,1.35,0,0,0,157,61.06v2.54a0.23,0.23,0,0,0,.23.23h2.24a0.23,0.23,0,0,0,.23-0.23V61.06A1.35,1.35,0,0,0,158.32,59.72Z"/><path class="cls-6" d="M163.66,59.72a1.35,1.35,0,0,0-1.34,1.34v2.54a0.23,0.23,0,0,0,.23.23h2.24a0.23,0.23,0,0,0,.23-0.23V61.06A1.35,1.35,0,0,0,163.66,59.72Z"/></g><g class="cls-8"><rect class="cls-12" x="139.2" y="57.28" width="27.56" height="1.14"/></g><path class="cls-13" d="M167.07,16.28H138.89a0.6,0.6,0,1,0,0,1.2h28.18A0.6,0.6,0,1,0,167.07,16.28Z"/></g><path class="cls-4" d="M173.64,93.66V88a3.47,3.47,0,0,1,3.25-3.64c1.79,0,3.25-.76,3.25-1.68S181.71,81,183.65,81s3.52-1.08,3.52-2.4,1.64-2.4,3.64-2.4h1.65a3.65,3.65,0,0,1,3.64,3.64V93.68"/><path class="cls-5" d="M173.64,93.66V88a3.47,3.47,0,0,1,3.25-3.64c1.79,0,3.25-.76,3.25-1.68S181.71,81,183.65,81s3.52,1.08,3.52,2.41a2.31,2.31,0,0,0,2.18,2.41c1.2,0,2.18,1.64,2.18,3.64v4.21"/><g class="cls-14"><g class="cls-15"><line class="cls-16" x1="247.34" y1="29.35" x2="226.58" y2="29.35"/><rect class="cls-16" x="226.58" y="28.6" width="20.75" height="1.51"/><line class="cls-16" x1="247.34" y1="34.27" x2="226.58" y2="34.27"/><rect class="cls-16" x="226.58" y="33.52" width="20.75" height="1.51"/><line class="cls-16" x1="247.34" y1="39.19" x2="226.58" y2="39.19"/><rect class="cls-16" x="226.58" y="38.44" width="20.75" height="1.51"/><line class="cls-16" x1="247.34" y1="44.12" x2="226.58" y2="44.12"/><rect class="cls-16" x="226.58" y="43.36" width="20.75" height="1.51"/><line class="cls-16" x1="247.34" y1="49.04" x2="226.58" y2="49.04"/><rect class="cls-16" x="226.58" y="48.28" width="20.75" height="1.51"/><line class="cls-16" x1="247.34" y1="53.96" x2="226.58" y2="53.96"/><rect class="cls-16" x="226.58" y="53.2" width="20.75" height="1.51"/><line class="cls-16" x1="247.34" y1="63.8" x2="226.58" y2="63.8"/><rect class="cls-16" x="226.58" y="63.05" width="20.75" height="1.51"/><line class="cls-16" x1="247.34" y1="58.88" x2="226.58" y2="58.88"/><rect class="cls-16" x="226.58" y="58.13" width="20.75" height="1.51"/><line class="cls-16" x1="246.85" y1="68.72" x2="226.1" y2="68.72"/><rect class="cls-16" x="226.1" y="67.97" width="20.75" height="1.51"/><line class="cls-16" x1="246.85" y1="73.64" x2="226.1" y2="73.64"/><rect class="cls-16" x="226.1" y="72.89" width="20.75" height="1.51"/><line class="cls-16" x1="246.85" y1="78.56" x2="226.1" y2="78.56"/><rect class="cls-16" x="226.1" y="77.81" width="20.75" height="1.51"/></g><path class="cls-17" d="M246.48,25.13h-19a0.84,0.84,0,0,0-.9.75V91.44a0.84,0.84,0,0,0,.9.75h19a0.84,0.84,0,0,0,.9-0.75V25.88A0.84,0.84,0,0,0,246.48,25.13Z"/></g><rect class="cls-6" x="181.59" y="91.85" width="10.23" height="5.22"/><g class="cls-10"><rect class="cls-18" x="197.73" y="15.12" width="25.69" height="69.72" rx="0.64" ry="0.64"/><rect class="cls-19" x="219.45" y="20.02" width="1.59" height="4.26"/><rect class="cls-19" x="215.58" y="20.02" width="1.59" height="4.26"/><rect class="cls-19" x="211.71" y="20.02" width="1.59" height="4.26"/><rect class="cls-19" x="207.84" y="20.02" width="1.59" height="4.26"/><rect class="cls-19" x="203.97" y="20.02" width="1.59" height="4.26"/><rect class="cls-19" x="200.1" y="20.02" width="1.59" height="4.26"/><rect class="cls-19" x="219.45" y="27" width="1.59" height="4.26"/><rect class="cls-19" x="215.58" y="27" width="1.59" height="4.26"/><rect class="cls-19" x="211.71" y="27" width="1.59" height="4.26"/><rect class="cls-19" x="207.84" y="27" width="1.59" height="4.26"/><rect class="cls-19" x="203.97" y="27" width="1.59" height="4.26"/><rect class="cls-19" x="200.1" y="27" width="1.59" height="4.26"/><rect class="cls-19" x="219.45" y="33.99" width="1.59" height="4.26"/><rect class="cls-19" x="215.58" y="33.99" width="1.59" height="4.26"/><rect class="cls-19" x="211.71" y="33.99" width="1.59" height="4.26"/><rect class="cls-19" x="207.84" y="33.99" width="1.59" height="4.26"/><rect class="cls-19" x="203.97" y="33.99" width="1.59" height="4.26"/><rect class="cls-19" x="200.1" y="33.99" width="1.59" height="4.26"/><rect class="cls-19" x="219.45" y="40.97" width="1.59" height="4.26"/><rect class="cls-19" x="215.58" y="40.97" width="1.59" height="4.26"/><rect class="cls-19" x="211.71" y="40.97" width="1.59" height="4.26"/><rect class="cls-19" x="207.84" y="40.97" width="1.59" height="4.26"/><rect class="cls-19" x="203.97" y="40.97" width="1.59" height="4.26"/><rect class="cls-19" x="200.1" y="40.97" width="1.59" height="4.26"/><rect class="cls-19" x="219.45" y="47.96" width="1.59" height="4.26"/><rect class="cls-19" x="215.58" y="47.96" width="1.59" height="4.26"/><rect class="cls-19" x="211.71" y="47.96" width="1.59" height="4.26"/><rect class="cls-19" x="207.84" y="47.96" width="1.59" height="4.26"/><rect class="cls-19" x="203.97" y="47.96" width="1.59" height="4.26"/><rect class="cls-19" x="200.1" y="47.96" width="1.59" height="4.26"/><rect class="cls-19" x="219.45" y="54.94" width="1.59" height="4.26"/><rect class="cls-19" x="215.58" y="54.94" width="1.59" height="4.26"/><rect class="cls-19" x="211.71" y="54.94" width="1.59" height="4.26"/><rect class="cls-19" x="207.84" y="54.94" width="1.59" height="4.26"/><rect class="cls-19" x="203.97" y="54.94" width="1.59" height="4.26"/><rect class="cls-19" x="200.1" y="54.94" width="1.59" height="4.26"/></g><rect class="cls-20" x="164.67" y="98.83" width="3.89" height="1.15"/><path class="cls-5" d="M173.64,91.47"/><rect class="cls-3" x="140.82" y="68.83" width="42.73" height="28.17"/><rect class="cls-21" x="148.88" y="63.33" width="1.91" height="5.41"/><rect class="cls-21" x="173.48" y="63.33" width="1.91" height="5.41"/><rect class="cls-22" x="140.78" y="95.49" width="42.73" height="1.59"/><rect class="cls-23" x="157.71" y="79.49" width="21.73" height="13.05"/><path class="cls-22" d="M180.13,93.24H157V78.8h23.12V93.24ZM158.4,91.85h20.34V80.19H158.4V91.85Z"/><rect class="cls-22" x="144.84" y="78.62" width="9.67" height="15.5"/><rect class="cls-6" x="144.84" y="94.12" width="9.67" height="2.88"/><rect class="cls-23" x="146.1" y="79.94" width="7.29" height="5.63"/><rect class="cls-23" x="146.1" y="87" width="7.29" height="5.63"/><rect class="cls-24" x="144.62" y="43.6" width="35.04" height="19.73" rx="0.25" ry="0.25"/><rect class="cls-3" x="146.19" y="45.39" width="31.9" height="14.76" rx="0.25" ry="0.25"/><path class="cls-6" d="M143.11,61.81a1.69,1.69,0,0,0,1.69,1.69h34.69a1.69,1.69,0,0,0,1.69-1.69H143.11Z"/><rect class="cls-6" x="140.05" y="67.89" width="44.22" height="2.61"/><rect class="cls-22" x="140.05" y="70.5" width="44.22" height="1.3"/><rect class="cls-25" x="171.53" y="83.44" width="5.83" height="6.95"/><line class="cls-26" x1="163.96" y1="82.23" x2="161.04" y2="87.75"/><line class="cls-26" x1="167.14" y1="85.44" x2="165.02" y2="89.44"/><line class="cls-26" x1="173.63" y1="82.25" x2="171.51" y2="86.24"/><line class="cls-26" x1="170.69" y1="87.98" x2="170.5" y2="88.35"/><rect class="cls-27" x="148.42" y="98.83" width="5.93" height="1.15"/><rect class="cls-27" x="201.41" y="98.83" width="5.93" height="1.15"/><path class="cls-6" d="M278.08,112.93l5.34-8.35c1.62-2.53.49-4.6-2.52-4.6H83a10.54,10.54,0,0,0-8.21,4.72L70,112.93"/><path class="cls-5" d="M93.4,92.64V90.49a2,2,0,0,1,1.9-2.14,2,2,0,0,0,1.9-2.05,2.18,2.18,0,0,1,2.28-2.05h10.34a2.28,2.28,0,0,1,2.28,2.28v6.12"/><path class="cls-4" d="M93.4,92.64V90.49a2.22,2.22,0,0,1,2.28-2.14h2A2.18,2.18,0,0,0,100,86.3c0-1.13.53-2.05,1.17-2.05h8.68a2.28,2.28,0,0,1,2.28,2.28v6.12"/><path class="cls-3" d="M268.33,112.83l2.26-3.61c1.24-2-.81-3.61-4.57-3.61H91.53c-3.75,0-7.84,1.63-9.09,3.61l-2.26,3.61"/><polygon class="cls-19" points="169.21 105.6 167.81 105.6 163.39 112.83 164.8 112.83 169.21 105.6"/><polygon class="cls-19" points="178.69 105.6 177.28 105.6 172.87 112.83 174.27 112.83 178.69 105.6"/><polygon class="cls-19" points="188.17 105.6 186.76 105.6 182.34 112.83 183.75 112.83 188.17 105.6"/><polygon class="cls-19" points="140.78 105.6 139.38 105.6 134.96 112.83 136.37 112.83 140.78 105.6"/><polygon class="cls-19" points="102.88 105.6 101.47 105.6 97.06 112.83 98.46 112.83 102.88 105.6"/><polygon class="cls-19" points="93.4 105.6 92 105.6 87.58 112.83 88.99 112.83 93.4 105.6"/><polygon class="cls-19" points="112.36 105.6 110.95 105.6 106.54 112.83 107.94 112.83 112.36 105.6"/><polygon class="cls-19" points="131.31 105.6 129.9 105.6 125.49 112.83 126.89 112.83 131.31 105.6"/><polygon class="cls-19" points="150.26 105.6 148.86 105.6 144.44 112.83 145.84 112.83 150.26 105.6"/><polygon class="cls-19" points="159.74 105.6 158.33 105.6 153.92 112.83 155.32 112.83 159.74 105.6"/><polygon class="cls-19" points="197.64 105.6 196.24 105.6 191.82 112.83 193.23 112.83 197.64 105.6"/><polygon class="cls-19" points="207.12 105.6 205.71 105.6 201.3 112.83 202.7 112.83 207.12 105.6"/><polygon class="cls-19" points="216.59 105.6 215.19 105.6 210.77 112.83 212.18 112.83 216.59 105.6"/><polygon class="cls-19" points="226.07 105.6 224.66 105.6 220.25 112.83 221.66 112.83 226.07 105.6"/><polygon class="cls-19" points="235.55 105.6 234.14 105.6 229.73 112.83 231.13 112.83 235.55 105.6"/><polygon class="cls-19" points="245.02 105.6 243.62 105.6 239.2 112.83 240.61 112.83 245.02 105.6"/><polygon class="cls-19" points="263.98 105.6 262.57 105.6 258.15 112.83 259.56 112.83 263.98 105.6"/><polygon class="cls-19" points="121.83 105.6 120.43 105.6 116.01 112.83 117.42 112.83 121.83 105.6"/><polygon class="cls-19" points="254.5 105.6 253.09 105.6 248.68 112.83 250.08 112.83 254.5 105.6"/><path class="cls-28" d="M140.14,15.12H103a0.83,0.83,0,0,0-.74.9V97h38.58V16A0.83,0.83,0,0,0,140.14,15.12Z"/><rect class="cls-29" x="102.3" y="94.76" width="38.58" height="2.21"/><rect class="cls-30" x="116.01" y="79.71" width="11.43" height="14.98"/><g class="cls-8"><rect class="cls-31" x="102.3" y="25.83" width="38.47" height="2.53"/><rect class="cls-31" x="102.3" y="36.1" width="38.47" height="2.53"/><rect class="cls-31" x="102.3" y="46.37" width="38.47" height="2.53"/><rect class="cls-31" x="102.3" y="56.64" width="38.47" height="2.53"/><rect class="cls-31" x="102.3" y="66.91" width="38.47" height="2.53"/><rect class="cls-31" x="102.3" y="77.17" width="38.47" height="2.53"/></g><path class="cls-32" d="M259,40.34a1.94,1.94,0,0,1-1.94,1.94h-0.93a1.94,1.94,0,0,1-1.94-1.94h0a1.94,1.94,0,0,1,1.94-1.94h0.93A1.94,1.94,0,0,1,259,40.34h0Z"/><path class="cls-33" d="M257.83,40.34a1.94,1.94,0,0,1-1.94,1.94H255A1.94,1.94,0,0,1,253,40.34h0A1.94,1.94,0,0,1,255,38.4h0.93a1.94,1.94,0,0,1,1.94,1.94h0Z"/><path class="cls-32" d="M224.05,40.34a1.94,1.94,0,0,1-1.94,1.94h-0.93a1.94,1.94,0,0,1-1.94-1.94h0a1.94,1.94,0,0,1,1.94-1.94h0.93a1.94,1.94,0,0,1,1.94,1.94h0Z"/><path class="cls-33" d="M222.85,40.34a1.94,1.94,0,0,1-1.94,1.94H220A1.94,1.94,0,0,1,218,40.34h0A1.94,1.94,0,0,1,220,38.4h0.93a1.94,1.94,0,0,1,1.94,1.94h0Z"/><rect class="cls-34" x="226.39" y="43.92" width="35.11" height="53.15"/><rect class="cls-35" x="226.39" y="94.46" width="35.11" height="2.62"/><rect class="cls-36" x="226.39" y="43.92" width="12.8" height="47.93"/><rect class="cls-23" x="241.93" y="75.59" width="6.54" height="11.97"/><rect class="cls-23" x="252.06" y="75.59" width="6.54" height="11.97"/><rect class="cls-23" x="241.89" y="52.7" width="6.54" height="11.97"/><rect class="cls-23" x="229.48" y="52.7" width="6.54" height="11.97"/><rect class="cls-23" x="252.02" y="52.7" width="6.54" height="11.97"/><rect class="cls-37" x="241.93" y="75.59" width="6.54" height="11.97"/><rect class="cls-37" x="252.06" y="75.59" width="6.54" height="11.97"/><rect class="cls-37" x="241.89" y="52.7" width="6.54" height="11.97"/><rect class="cls-37" x="229.48" y="52.7" width="6.54" height="11.97"/><rect class="cls-37" x="252.02" y="52.7" width="6.54" height="11.97"/><rect class="cls-35" x="226.39" y="68.39" width="35.11" height="2.62"/><rect class="cls-25" x="226.39" y="89.24" width="12.8" height="7.83"/><rect class="cls-38" x="226.39" y="94.46" width="12.8" height="2.61"/><rect class="cls-38" x="226.39" y="89.24" width="12.8" height="2.61"/><rect class="cls-34" x="191.52" y="43.92" width="35.11" height="53.15"/><rect class="cls-35" x="191.52" y="94.46" width="35.11" height="2.62"/><rect class="cls-39" x="191.52" y="43.92" width="12.8" height="47.93"/><rect class="cls-23" x="207.06" y="75.59" width="6.54" height="11.97"/><rect class="cls-23" x="217.18" y="75.59" width="6.54" height="11.97"/><rect class="cls-23" x="207.02" y="52.7" width="6.54" height="11.97"/><rect class="cls-23" x="194.61" y="52.7" width="6.54" height="11.97"/><rect class="cls-23" x="217.15" y="52.7" width="6.54" height="11.97"/><rect class="cls-37" x="207.06" y="75.59" width="6.54" height="11.97"/><rect class="cls-37" x="217.18" y="75.59" width="6.54" height="11.97"/><rect class="cls-37" x="207.02" y="52.7" width="6.54" height="11.97"/><rect class="cls-37" x="194.61" y="52.7" width="6.54" height="11.97"/><rect class="cls-37" x="217.15" y="52.7" width="6.54" height="11.97"/><rect class="cls-35" x="191.52" y="68.39" width="35.11" height="2.62"/><rect class="cls-25" x="191.52" y="89.24" width="12.8" height="7.83"/><rect class="cls-38" x="191.52" y="94.46" width="12.8" height="2.61"/><rect class="cls-38" x="191.52" y="89.24" width="12.8" height="2.61"/><rect class="cls-40" x="191.52" y="43.1" width="12.8" height="2.48"/><rect class="cls-40" x="204.32" y="43.1" width="22.31" height="2.48"/><rect class="cls-40" x="226.63" y="43.1" width="12.66" height="2.48"/><rect class="cls-40" x="239.28" y="43.1" width="22.22" height="2.48"/><rect class="cls-41" x="191.52" y="41.44" width="12.8" height="2.48"/><rect class="cls-42" x="204.32" y="41.44" width="22.46" height="2.48"/><rect class="cls-41" x="226.63" y="41.44" width="12.66" height="2.48"/><rect class="cls-42" x="239.28" y="41.44" width="22.22" height="2.48"/><rect class="cls-6" x="92.08" y="91.85" width="10.23" height="5.22"/><rect class="cls-43" x="100.8" y="91.85" width="1.5" height="5.22"/><path class="cls-3" d="M273.66,96.93H88.79a0.64,0.64,0,0,0-.64.64v1.22a0.64,0.64,0,0,0,.64.64h6.49a0.63,0.63,0,0,0,.55-0.31H259.09a0.63,0.63,0,0,0,.55.31h14a0.64,0.64,0,0,0,.64-0.64V97.56A0.64,0.64,0,0,0,273.66,96.93Z"/><path class="cls-44" d="M274,98.83H88.45a0.3,0.3,0,0,0-.3.3V99.7a0.3,0.3,0,0,0,.3.3h6.63l0.12,0H267.25l0.12,0H274a0.3,0.3,0,0,0,.3-0.3V99.13A0.3,0.3,0,0,0,274,98.83Z"/><rect class="cls-45" x="194" y="74.9" width="7.83" height="14.34"/><rect class="cls-45" x="228.88" y="74.9" width="7.83" height="14.34"/><path class="cls-46" d="M207.28,79.71L207,81.23l0.75-.9C207.78,79.51,207.28,79.71,207.28,79.71Z"/><path class="cls-47" d="M207,81.21l0.66,1.08a4.68,4.68,0,0,0,1.63-.76c0.57-.35.16-1.94-0.3-1.86A2.54,2.54,0,0,0,207,81.21Z"/><path class="cls-46" d="M193.45,90.71l-1.16-1,0.38,1.11C193.36,91.24,193.45,90.71,193.45,90.71Z"/><path class="cls-47" d="M192.31,89.68h-1.26a4.68,4.68,0,0,0-.2,1.79c0,0.67,1.57,1.14,1.75.71A2.54,2.54,0,0,0,192.31,89.68Z"/><path class="cls-48" d="M199.11,78.5l-2.23,1.21c0.44,2.8,4.18,5.71,5.17,6s5.68-3.41,5.68-3.41L207,81.17l-4.64,2.16Z"/><path class="cls-47" d="M187.59,107l1.33,0.82,1.13-1.2-1.6-1Z"/><path class="cls-49" d="M187.76,106.71l-0.58.94v0.63l4.3,2.66s0.8-.41-0.13-1.48a16.71,16.71,0,0,1-1.66-2.41l-0.1,0a1.76,1.76,0,0,1-1.27,0Z"/><path class="cls-50" d="M188.4,107.47l-0.8-.5-0.42.67-0.11.52,1.64,1,0.07-.11A1.16,1.16,0,0,0,188.4,107.47Z"/><path class="cls-51" d="M191.79,110.52l-4.62-2.86-0.36.59,4.62,2.86A1.71,1.71,0,0,0,191.79,110.52Z"/><path class="cls-52" d="M199.64,87.7s-3.87-.6-5.23,1.77c-0.68,2.51-.57,7.76-1.36,9.16l-4.9,7,1.9,1.18c2.22-2.59,5.24-5.41,5.78-7.15S199.64,87.7,199.64,87.7Z"/><path class="cls-47" d="M203.75,109.84l1.52-.36s0-.65-0.05-1.64l-1.84.43Z"/><path class="cls-49" d="M203.68,109.53l0.25,1.08,0.44,0.46,4.93-1.16s0.28-.86-1.14-1a16.71,16.71,0,0,1-2.88-.53l-0.05.09a1.76,1.76,0,0,1-.92.87Z"/><path class="cls-50" d="M204.67,109.62l-0.92.22,0.18,0.77,0.29,0.45,1.87-.44,0-.13A1.16,1.16,0,0,0,204.67,109.62Z"/><path class="cls-51" d="M209.22,109.37l-5.29,1.24,0.16,0.67,5.29-1.24A1.71,1.71,0,0,0,209.22,109.37Z"/><path class="cls-53" d="M203.33,98.47c-0.63-1.76-4.12-11.22-4.12-11.22s-4.76-1.39-4.76,2.19,5,7.13,6.16,10.41c0.69,1.89,2.81,8.45,2.81,8.45l2.06-.46S204,100.23,203.33,98.47Z"/><polyline class="cls-47" points="199.15 79.35 199.25 77.24 197.23 76.32 196.76 78.31"/><path class="cls-47" d="M197.64,70.86a2.67,2.67,0,0,0-2.2,3.17A3.07,3.07,0,0,0,197,76.27c0.68,0.4,2.26,1.56,2.26,1.56,0-.45.16-0.58,0.46-0.63l0.58-.09a0.71,0.71,0,0,0,.62-0.85V75.35l0.25,0a0.21,0.21,0,0,0,.15-0.36,1.5,1.5,0,0,1-.44-0.8l-0.14-.89A2.71,2.71,0,0,0,197.64,70.86Z"/><path class="cls-47" d="M200.69,73.26s0,0,0,0h0Z"/><polygon class="cls-47" points="200.69 73.26 200.69 73.26 200.69 73.26 200.69 73.26"/><path class="cls-47" d="M200.69,73.26h0Z"/><path class="cls-47" d="M200.69,73.26h0S200.69,73.26,200.69,73.26Z"/><path class="cls-47" d="M200.69,73.26h0Z"/><path class="cls-54" d="M200.69,73.25a2.71,2.71,0,0,0-3.05-2.38,2.67,2.67,0,0,0-2.2,3.17,3.27,3.27,0,0,0,1.51,2.35c0.07,0,.81.56,0.76,0.07,0-.14-0.07-0.47-0.14-0.89a0.94,0.94,0,0,1-.79-0.78c-0.07-.49.39-0.92,0.63-0.54l0.42,0.65a0.21,0.21,0,0,0,.37-0.16L198,73.36C197.86,72.51,198.5,73.58,200.69,73.25Zm-3.34.5v0Z"/><polygon class="cls-47" points="200.6 73.22 200.6 73.22 200.6 73.23 200.6 73.22"/><path class="cls-47" d="M200.6,73.23h0Z"/><path class="cls-47" d="M200.6,73.23h0S200.6,73.22,200.6,73.23Z"/><path class="cls-47" d="M200.6,73.23h0Z"/><circle class="cls-54" cx="194.56" cy="73.08" r="1.48" transform="translate(117.28 266.01) rotate(-88.76)"/><path class="cls-52" d="M198.09,77.6"/><path class="cls-55" d="M200.81,82.76c-0.12-.76-1.59-4.87-1.59-4.87l-1.55-.22s-3.13,10.17-3.19,11.2l0,0.58,5.7,0.33L200,83.86h0A1.09,1.09,0,0,0,200.81,82.76Z"/><path class="cls-48" d="M197.67,77.67a2.8,2.8,0,0,0-2.74,2.87s0.12,2.68.12,4.2c0,1-.46,2.94-0.57,4.12,0,0.49-.07.6-0.07,0.6l1.78,0.12a2.49,2.49,0,0,0,2.51-2l0.43-7.92A1.65,1.65,0,0,0,197.67,77.67Z"/><path class="cls-54" d="M194.23,91.59"/><path class="cls-48" d="M193.33,92.44"/><path class="cls-56" d="M195,81.54c0,0.92.08,2.28,0.08,3.21s-0.46,2.94-.57,4.12c0,0.46-.06.59-0.07,0.6h0L196,89.58h0l2-9.51Z"/><path class="cls-48" d="M198,80.07l-1.21-2.23c-2.8.44-5.71,4.18-6,5.17s0.18,6.76.18,6.76h1.37l0.43-6.12Z"/><rect class="cls-57" x="190.75" y="89.38" width="1.89" height="0.44"/><polygon class="cls-58" points="247.23 75.08 246.47 76.97 248.91 78.54 249.33 76.48 247.23 75.08"/><path class="cls-59" d="M248.71,70a2.65,2.65,0,0,0-2.63,2.78,3,3,0,0,0,1.14,2.42c0.61,0.5,2,1.62,2,1.62h1.34a0.74,0.74,0,0,0,.74-0.74v-1.2h0.32a0.21,0.21,0,0,0,.2-0.32l-0.51-.92V72.8A2.69,2.69,0,0,0,248.71,70Z"/><path class="cls-47" d="M251.34,72.8h0s0,0,0,0h0Z"/><path class="cls-59" d="M236.46,98.48c-0.27.66,1,.37,1.61,0.74a1.27,1.27,0,0,0,1.78-.63l1.06-1.76-3.18-1.41Z"/><path class="cls-60" d="M241.35,86.76s0,0,0,0h0l-3.6,8.67,3.18,1.49,4.7-8.54Z"/><path class="cls-59" d="M253.11,97h-3l0.89,9.23a1.11,1.11,0,0,0,1,1.12,1,1,0,0,0,1.1-1.08V97Z"/><path class="cls-59" d="M245.39,88.88l-2.57,2.57s0,0,0,0h0l8.63,8c0.53,0.48.68-.79,1.24-1.26a1.27,1.27,0,0,0,0-1.89Z"/><path class="cls-48" d="M251,105.86v2.77h6.73s0.58-1-1.11-1.49a27.23,27.23,0,0,1-3.23-1.28H251Z"/><path class="cls-48" d="M254.18,105.27a0.5,0.5,0,0,0-.71,0l-0.66.66a0.5,0.5,0,0,0,0,.71h0a0.5,0.5,0,0,0,.71,0l0.66-.66a0.5,0.5,0,0,0,0-.71h0Z"/><path class="cls-61" d="M252.18,107H251v1.62h2.64v-0.16A1.46,1.46,0,0,0,252.18,107Z"/><path class="cls-51" d="M257.79,108H251v0.87h6.8A2.14,2.14,0,0,0,257.79,108Z"/><path class="cls-59" d="M238.62,99.37v-3s0,0,0,0h0l-9.23.89a1.11,1.11,0,0,0-1.12,1,1,1,0,0,0,1.08,1.1h9.27Z"/><path class="cls-48" d="M230.28,97.13l-2.4-1.39-3.37,5.83s0.54,1,1.85-.22a27.26,27.26,0,0,1,2.72-2.16Z"/><path class="cls-48" d="M229.2,100.19a0.5,0.5,0,0,0,.36-0.62l-0.24-.9a0.5,0.5,0,0,0-.62-0.36h0a0.5,0.5,0,0,0-.36.62l0.24,0.9a0.5,0.5,0,0,0,.62.36h0Z"/><path class="cls-61" d="M228.73,97.6l0.59-1-1.26-.73-0.14-.08-1.32,2.28,0.14,0.08A1.46,1.46,0,0,0,228.73,97.6Z"/><path class="cls-51" d="M225.06,102l3.4-5.88-0.75-.43-3.4,5.89A2.15,2.15,0,0,0,225.06,102Z"/><path class="cls-59" d="M254,83.73a1.46,1.46,0,0,1-2.22-1.89l0,0h0l4.57-5.45a0.8,0.8,0,0,1,1.08-.38,1,1,0,0,1,.36,1.36l-3.58,6.13A1.2,1.2,0,0,1,254,83.73Z"/><path class="cls-59" d="M252.29,84a1.28,1.28,0,0,0,1.43-2.11l-5.36-4.34h0l-2.17,3.1Z"/><path class="cls-62" d="M242.16,80.11"/><path class="cls-49" d="M246.18,90.36l3.37-10.83,0.23-.73a0.05,0.05,0,0,0,0,0l-0.55-.5L246.71,76a1.37,1.37,0,0,0-1.22-.25l-2.53.86a1.08,1.08,0,0,0-.68,1v5.89a4.83,4.83,0,0,1-.25,1.4l-1,2.67"/><path class="cls-48" d="M250.69,69H246.8l0.6,1.29a1.29,1.29,0,0,0,1.29,1.29h2A1.29,1.29,0,1,0,250.69,69Z"/><polygon class="cls-48" points="251.97 70.37 251.97 70.37 251.97 70.37 251.97 70.37"/><path class="cls-48" d="M248.09,69.88h-2.27V70.5a0.89,0.89,0,0,0,.89.89l1.39,0.27A0.89,0.89,0,1,0,248.09,69.88Z"/><polygon class="cls-48" points="248.98 70.77 248.98 70.77 248.98 70.77 248.98 70.77"/><path class="cls-48" d="M250.28,69h-3.89l0.6,1.29a1.29,1.29,0,0,0,1.29,1.29h2A1.29,1.29,0,1,0,250.28,69Z"/><polygon class="cls-48" points="251.56 70.37 251.56 70.37 251.56 70.37 251.56 70.37"/><path class="cls-48" d="M247.68,69.88h-2.27V70.5a0.89,0.89,0,0,0,.89.89l1.39,0.27A0.89,0.89,0,0,0,247.68,69.88Z"/><polygon class="cls-48" points="248.57 70.77 248.57 70.77 248.57 70.77 248.57 70.77"/><path class="cls-48" d="M246.08,72v1.51a2.91,2.91,0,0,0,1.75,2.31V70.23A1.75,1.75,0,0,0,246.08,72Z"/><path class="cls-50" d="M242.61,88.41l1.38-2.9a3.83,3.83,0,0,0,.31-1.38V76.89a0.49,0.49,0,0,0-.68-0.49l-0.65.22a1.08,1.08,0,0,0-.68,1v5.89a4.83,4.83,0,0,1-.25,1.4l-1,2.67"/><path class="cls-59" d="M244.23,75.92"/><polyline class="cls-48" points="248.27 72.56 249.18 73.47 249.18 72.56"/><path class="cls-59" d="M236,79.19a1.46,1.46,0,0,1,2.81.77v0h0L237,86.88a0.8,0.8,0,0,1-.82.81,1,1,0,0,1-.9-1.08l0.65-7.07A1.21,1.21,0,0,1,236,79.19Z"/><path class="cls-59" d="M237,78.31a1.28,1.28,0,0,0,.48,2.51l6.85-.72V76.17Z"/><path class="cls-63" d="M241.35,86.71c-1,2.17-1.69,3.65.32,5.27l7,4.86,2.06-2.58-4.39-4.47S242,87.07,241.35,86.71Z"/><rect class="cls-49" x="246.08" y="71.36" width="5.26" height="1.2"/><rect class="cls-50" x="246.08" y="71.36" width="1.16" height="1.2"/><path class="cls-59" d="M256.53,74.13V76l0.69-1.28C257,73.75,256.53,74.13,256.53,74.13Z"/><path class="cls-59" d="M256.51,76l1.28,1.13a14.56,14.56,0,0,0,1.65-1.5c0.57-.57-0.5-2.24-1-2C257.91,74.15,256.87,74.35,256.51,76Z"/><rect class="cls-64" x="256.98" y="75.77" width="0.42" height="1.94" transform="translate(52 249.75) rotate(-56.75)"/><path class="cls-64" d="M257.89,77.65a0.19,0.19,0,0,1-.11,0l-1.62-1.06a0.19,0.19,0,0,1-.06-0.27l0.23-.36a0.19,0.19,0,0,1,.27-0.06l1.62,1.06a0.19,0.19,0,0,1,.06.27l-0.23.36a0.19,0.19,0,0,1-.12.08h0Zm-1.35-1.31,1.3,0.85,0,0-1.3-.85Z"/><path class="cls-59" d="M238.31,86.9L237,85.57,237.4,87C238.24,87.51,238.31,86.9,238.31,86.9Z"/><path class="cls-59" d="M237,85.54l-1.6.06s-0.05.7-.19,2.11c-0.08.81,1.91,1.39,2.12,0.86C237.43,87.52,237.92,87,237,85.54Z"/><path class="cls-59" d="M235.19,87.66a0.8,0.8,0,0,0,.23.8,0.36,0.36,0,0,0,.47-0.19"/><path class="cls-59" d="M235.57,87.88a0.79,0.79,0,0,0,.23.8,0.36,0.36,0,0,0,.47-0.19"/><path class="cls-59" d="M236.12,88.12a0.8,0.8,0,0,0,.23.8,0.36,0.36,0,0,0,.47-0.19"/><path class="cls-59" d="M236.65,88.15a0.8,0.8,0,0,0,.23.8,0.36,0.36,0,0,0,.47-0.19c0-.06.33-2.21,0.33-2.21"/><path class="cls-59" d="M259.3,75.79a0.8,0.8,0,0,0,.4-0.73,0.36,0.36,0,0,0-.46-0.2"/><path class="cls-59" d="M259.2,75.33a0.8,0.8,0,0,0,.4-0.73,0.36,0.36,0,0,0-.46-0.2"/><path class="cls-59" d="M259,74.82a0.79,0.79,0,0,0,.4-0.73,0.36,0.36,0,0,0-.46-0.2"/><path class="cls-59" d="M258.62,74.42a0.8,0.8,0,0,0,.4-0.73,0.36,0.36,0,0,0-.46-0.2c-0.06,0-1.8,1.33-1.8,1.33"/><polygon class="cls-65" points="95.24 80.7 92.45 81.86 93.77 85.37 96.36 83.74 95.24 80.7"/><path class="cls-66" d="M99.3,83.72l-0.66-.38a0.14,0.14,0,0,1-.08-0.18l0.77-1.28a0.15,0.15,0,0,1,.2,0,0.17,0.17,0,0,1,.09.13l0.13,1.48A0.29,0.29,0,0,1,99.3,83.72Z"/><path class="cls-66" d="M100.29,81.35h0a3.18,3.18,0,0,0-1-4.44,3.14,3.14,0,0,0-4.34,1.29,3.6,3.6,0,0,0-.26,3.16c0.22,0.59.39,1,.62,1.67,0.11,0.31.43,1.11,0.43,1.11L97.18,85a0.85,0.85,0,0,0,1.18-.29l1.93-3.35h0Z"/><path class="cls-67" d="M94.35,78.63s-1.88,1.82.18,4.4l1.41-2.45a2.18,2.18,0,0,0,1,2.26l1.6-2.77Z"/><rect class="cls-49" x="94.85" y="82.03" width="4.54" height="0.62" transform="translate(-22.76 125.25) rotate(-59.98)"/><g class="cls-68"><polygon class="cls-66" points="100.17 81.56 94.54 78.31 94.15 78.83 99.85 82.12 100.17 81.56"/></g><path class="cls-49" d="M97,83a2.52,2.52,0,0,1-.92-3.44l0.5,0.29a1.94,1.94,0,0,0,.71,2.65Z"/><path class="cls-69" d="M98.94,76.33c-1.68-1-3.57-1.06-4.55.64a3.71,3.71,0,0,0-.76,2.47,0.8,0.8,0,0,0,.31.64l1.24,0.72c0.46,0.27.74,0.08,1.05-.47s0.6-.87,1.18-0.53l3,1.72a0.32,0.32,0,0,0,.48-0.18L102,81.5c0.2,0,.31-0.08.22-0.3C101.85,80.32,100.45,77.2,98.94,76.33Z"/><path class="cls-69" d="M95.05,81l-1.24-.72a1,1,0,0,1-.42-0.77v0a4,4,0,0,1,.79-2.63c0.95-1.64,2.81-1.91,4.88-.72,1.35,0.78,2.59,3.14,3.4,5a0.45,0.45,0,0,1,0,.47,0.45,0.45,0,0,1-.44.15l-1-.16a0.52,0.52,0,0,1-.71.13l-3-1.72c-0.34-.2-0.5-0.16-0.85.45A0.93,0.93,0,0,1,95.05,81Zm3.77-4.46c-1.42-.82-3.27-1.1-4.23.55-0.86,1.48-.77,2.07-0.73,2.32v0a0.55,0.55,0,0,0,.18.43l1.24,0.72c0.24,0.14.39,0.19,0.73-.39a1,1,0,0,1,1.5-.62l3,1.72,0.06,0a0.26,0.26,0,0,0,.09-0.12,0.24,0.24,0,0,1,.24-0.12l1.1,0.17C100.9,78.76,99.78,77.09,98.82,76.53Z"/><path class="cls-70" d="M95.59,79.58a0.3,0.3,0,0,0-.11-0.41l-1.09-.63a0.3,0.3,0,0,0-.41.11h0a0.3,0.3,0,0,0,.11.41l1.09,0.63a0.3,0.3,0,0,0,.41-0.11h0Z"/><path class="cls-70" d="M96.14,78.64A0.3,0.3,0,0,0,96,78.23l-1.09-.63a0.3,0.3,0,0,0-.41.11h0a0.3,0.3,0,0,0,.11.41l1.09,0.63a0.3,0.3,0,0,0,.41-0.11h0Z"/><path class="cls-66" d="M99.44,83.69l-0.78-.42a0.14,0.14,0,0,1-.08-0.18l0.77-1.28a0.15,0.15,0,0,1,.2,0,0.17,0.17,0,0,1,.09.13l0.13,1.61a0.2,0.2,0,0,1-.19.18A0.2,0.2,0,0,1,99.44,83.69Z"/><path class="cls-65" d="M104.6,90.81l-1.24,1.4,1.34-.45C105.25,90.92,104.6,90.81,104.6,90.81Z"/><path class="cls-65" d="M80.59,94.89A1.13,1.13,0,0,0,80,96.28l1,2.68a3.15,3.15,0,0,1-.05,2,16.43,16.43,0,0,0-.83,4.33,39,39,0,0,1-.57,4.32,0.89,0.89,0,0,0,.4,1.14,1.18,1.18,0,0,0,1-.85l4-9.39a5.36,5.36,0,0,0,.35-2L85,94.11a0.69,0.69,0,0,0-1-.64Z"/><polygon class="cls-70" points="80.35 97.34 77.34 87.97 84.56 87.55 85.16 97.34 80.35 97.34"/><path class="cls-63" d="M79.48,109.2l-0.43,2.26,5.5,1s0.63-.7-0.68-1.39a28.57,28.57,0,0,1-2.78-1.78l0.55-1.18-1.92-.2Z"/><path class="cls-51" d="M84.7,112l-5.55-1.06-0.13.71,5.55,1.06A1.78,1.78,0,0,0,84.7,112Z"/><path class="cls-51" d="M102.42,121.68a10.06,10.06,0,1,1,10.06-10.06A10.07,10.07,0,0,1,102.42,121.68Zm0-19.18a9.13,9.13,0,1,0,9.13,9.13A9.14,9.14,0,0,0,102.42,102.5Z"/><circle class="cls-51" cx="102.42" cy="111.63" r="1.76"/><path class="cls-51" d="M102.42,113.62a2,2,0,1,1,2-2A2,2,0,0,1,102.42,113.62Zm0-3.53a1.53,1.53,0,1,0,1.53,1.53A1.53,1.53,0,0,0,102.42,110.09Z"/><path class="cls-51" d="M69.71,121.68a10.06,10.06,0,1,1,10.06-10.06A10.07,10.07,0,0,1,69.71,121.68Zm0-19.18a9.13,9.13,0,1,0,9.13,9.13A9.14,9.14,0,0,0,69.71,102.5Z"/><circle class="cls-51" cx="69.71" cy="111.63" r="1.76"/><path class="cls-51" d="M69.71,113.62a2,2,0,1,1,2-2A2,2,0,0,1,69.71,113.62Zm0-3.53a1.53,1.53,0,1,0,1.53,1.53A1.53,1.53,0,0,0,69.71,110.09Z"/><path class="cls-70" d="M102.41,122.53a10.91,10.91,0,1,1,10.91-10.91A10.92,10.92,0,0,1,102.41,122.53Zm0-20.88a10,10,0,1,0,10,10A10,10,0,0,0,102.41,101.65Z"/><path class="cls-61" d="M102.35,112.09a0.47,0.47,0,0,1-.44-0.3L95.53,95a0.46,0.46,0,0,1,0-.17V92.66A0.47,0.47,0,0,1,96,92.2h4.83a0.47,0.47,0,1,1,0,.93H96.43v1.66l6.36,16.67A0.47,0.47,0,0,1,102.35,112.09Z"/><path class="cls-61" d="M103.2,96.1a0.47,0.47,0,1,1,0-.93,1,1,0,0,0,0-2h-2.41a0.47,0.47,0,0,1,0-.93h2.41A2,2,0,1,1,103.2,96.1Z"/><path class="cls-70" d="M69.71,122.53a10.91,10.91,0,1,1,10.91-10.91A10.92,10.92,0,0,1,69.71,122.53Zm0-20.88a10,10,0,1,0,10,10A10,10,0,0,0,69.71,101.65Z"/><path class="cls-61" d="M84.56,112.09H69.71a0.47,0.47,0,0,1-.38-0.73L77.83,99a0.47,0.47,0,0,1,.38-0.2H96.92a0.47,0.47,0,0,1,.33.79L84.88,112A0.47,0.47,0,0,1,84.56,112.09Zm-14-.93H84.36L95.79,99.74H78.46Z"/><path class="cls-61" d="M84.56,112.09a0.47,0.47,0,0,1-.42-0.26L75.24,94a0.47,0.47,0,1,1,.83-0.42L85,111.42a0.47,0.47,0,0,1-.21.62A0.46,0.46,0,0,1,84.56,112.09Z"/><g class="cls-15"><path class="cls-71" d="M84.32,111.8a0.17,0.17,0,0,1-.16-0.1l-8.9-17.85a0.17,0.17,0,0,1,.31-0.16l8.9,17.85a0.17,0.17,0,0,1-.08.23Z"/></g><path class="cls-51" d="M100.8,95.17a0.47,0.47,0,1,0,0,.93h2.39V95.17H100.8Z"/><path class="cls-49" d="M94.21,81.84a4.53,4.53,0,0,0-4.38-3c-5.85,0-10,2.64-11.2,4-0.24.26,5.13,4,5.13,4h11.8S94.4,82.42,94.21,81.84Z"/><path class="cls-72" d="M96,93.56"/><path class="cls-49" d="M95.19,93.06a1.54,1.54,0,0,1,.81-3h0.05L103.27,92a0.84,0.84,0,0,1,.85.86,1,1,0,0,1-1.13.94l-7.42-.68A1.29,1.29,0,0,1,95.19,93.06Z"/><path class="cls-49" d="M96.86,91.36l-1.89-7-0.77-2.54L90.9,85l3.44,7.25A1.34,1.34,0,0,0,96.86,91.36Z"/><path class="cls-66" d="M103.29,92.19v1.53a5.64,5.64,0,0,0,2.16.25c0.81,0,1.38-1.89.86-2.11A3.07,3.07,0,0,0,103.29,92.19Z"/><rect class="cls-63" x="103.02" y="91.77" width="0.3" height="2.18"/><path d="M103.33,94.09H103a0.14,0.14,0,0,1-.14-0.14V91.77a0.14,0.14,0,0,1,.14-0.14h0.3a0.14,0.14,0,0,1,.14.14V94A0.14,0.14,0,0,1,103.33,94.09Zm-0.16-.27h0V91.91h0v1.91Z"/><g class="cls-8"><polyline class="cls-63" points="91.72 86.75 90.9 85.03 78.06 85.03 81.38 86.75"/></g><path class="cls-66" d="M84,93.73l2.66,1.8A9,9,0,0,0,85,97.6c-0.61,1.14-1.7,4.82-2.49,6.38s-0.35,1.23-.12,1.39,0.24,1.61.61,1.16c1.1-1.34,7.21-9.65,8.14-11.12a2.78,2.78,0,0,0-.61-3.62l-3.9-2.87"/><path class="cls-63" d="M78.62,82.78L78.38,83c-1.32,1.48-2.5,5.38.9,7.64,2.28,1.52,4.79,3.12,4.79,3.12l3-4.54Z"/><path class="cls-63" d="M82,105.12l-1,2.06,5,2.52s0.79-.5-0.27-1.53a29.14,29.14,0,0,1-2.08-2.32l0.72-1L82.53,104Z"/><path class="cls-51" d="M86.21,109.23l-5-2.55-0.32.64,5,2.55A1.78,1.78,0,0,0,86.21,109.23Z"/><path class="cls-51" d="M85.89,109.9h0l-5-2.55v0a0,0,0,0,1,0,0l0.32-.64a0,0,0,0,1,0,0l5,2.55a0,0,0,0,1,0,0,1.78,1.78,0,0,1-.33.66h0Zm-5-2.59,5,2.53a1.75,1.75,0,0,0,.29-0.59l-5-2.52Z"/><path class="cls-49" d="M73,93.14c0,2,4.53,1.73,6.26,0H73Z"/><path class="cls-49" d="M75.39,94.94h0c-1.7,0-2.76-.69-2.76-1.8A0.41,0.41,0,0,1,73,92.74H79.3a0.41,0.41,0,0,1,.29.7A6.33,6.33,0,0,1,75.39,94.94Zm-1.81-1.39a2.35,2.35,0,0,0,1.81.57h0A6.26,6.26,0,0,0,78,93.55h-4.4Z"/><g class="cls-15"><path class="cls-71" d="M102.12,111.8a0.18,0.18,0,0,1-.16-0.11L95.57,94.93a0.17,0.17,0,0,1,.33-0.12l6.39,16.75a0.17,0.17,0,0,1-.1.23h-0.06Z"/></g><rect class="cls-73" x="146.72" y="129.03" width="14.27" height="0.87" rx="0.19" ry="0.19"/><rect class="cls-73" x="112.85" y="129.03" width="14.27" height="0.87" rx="0.19" ry="0.19"/><polyline class="cls-47" points="151.11 91.56 152.84 89.61 151.6 87.17 149.62 88.73"/><path class="cls-47" d="M156.2,82.24a3.29,3.29,0,0,0-4.55,1.35,3.78,3.78,0,0,0-.28,3.32c0.35,0.91,1,3.24,1,3.24,0.37-.42.6-0.43,0.92-0.25l0.62,0.36a0.87,0.87,0,0,0,1.25-.34l0.7-.89,0.27,0.16a0.26,0.26,0,0,0,.42-0.23,1.85,1.85,0,0,1,.19-1.11l0.55-1A3.33,3.33,0,0,0,156.2,82.24Z"/><path class="cls-47" d="M157.28,86.9h0Z"/><path class="cls-74" d="M137.83,101.74a1.13,1.13,0,0,0-.61,1.4l1,2.69a3.15,3.15,0,0,1-.05,2,16.46,16.46,0,0,0-.83,4.34,39,39,0,0,1-.57,4.33,0.9,0.9,0,0,0,.4,1.14,1.18,1.18,0,0,0,1-.85l4-9.4a5.37,5.37,0,0,0,.35-2L142.22,101a0.69,0.69,0,0,0-1-.64Z"/><polygon class="cls-75" points="137.59 104.19 134.58 94.81 141.81 94.39 142.41 104.19 137.59 104.19"/><path class="cls-75" d="M136.72,116.06l-0.43,2.27,5.5,1s0.63-.7-0.68-1.4a28.62,28.62,0,0,1-2.78-1.78l0.55-1.18-1.93-.2Z"/><path class="cls-51" d="M141.95,118.84l-5.56-1.06-0.14.71,5.56,1.06A1.78,1.78,0,0,0,141.95,118.84Z"/><path class="cls-51" d="M159.69,128.56a10.07,10.07,0,1,1,10.07-10.07A10.08,10.08,0,0,1,159.69,128.56Zm0-19.21a9.14,9.14,0,1,0,9.14,9.14A9.15,9.15,0,0,0,159.69,109.36Z"/><circle class="cls-51" cx="159.69" cy="118.49" r="1.77"/><path class="cls-51" d="M159.69,120.49a2,2,0,1,1,2-2A2,2,0,0,1,159.69,120.49Zm0-3.53a1.53,1.53,0,1,0,1.53,1.53A1.54,1.54,0,0,0,159.69,117Z"/><path class="cls-51" d="M126.93,128.56A10.07,10.07,0,1,1,137,118.49,10.08,10.08,0,0,1,126.93,128.56Zm0-19.21a9.14,9.14,0,1,0,9.14,9.14A9.15,9.15,0,0,0,126.93,109.36Z"/><circle class="cls-51" cx="126.93" cy="118.49" r="1.77"/><path class="cls-51" d="M126.93,120.49a2,2,0,1,1,2-2A2,2,0,0,1,126.93,120.49Zm0-3.53a1.53,1.53,0,1,0,1.53,1.53A1.54,1.54,0,0,0,126.93,117Z"/><path class="cls-70" d="M159.68,129.42a10.92,10.92,0,1,1,10.92-10.92A10.93,10.93,0,0,1,159.68,129.42Zm0-20.91a10,10,0,1,0,10,10A10,10,0,0,0,159.68,108.5Z"/><path class="cls-76" d="M159.62,119a0.47,0.47,0,0,1-.44-0.3l-6.4-16.78a0.46,0.46,0,0,1,0-.17V99.51a0.47,0.47,0,0,1,.47-0.47h4.83a0.47,0.47,0,1,1,0,.93h-4.37v1.66l6.37,16.69A0.47,0.47,0,0,1,159.62,119Z"/><path class="cls-76" d="M160.47,102.95a0.47,0.47,0,0,1,0-.93,1,1,0,1,0,0-2h-2.41a0.47,0.47,0,0,1,0-.93h2.41A2,2,0,1,1,160.47,102.95Z"/><path class="cls-70" d="M126.93,129.42a10.92,10.92,0,1,1,10.92-10.92A10.93,10.93,0,0,1,126.93,129.42Zm0-20.91a10,10,0,1,0,10,10A10,10,0,0,0,126.93,108.5Z"/><path class="cls-76" d="M141.8,119H126.93a0.47,0.47,0,0,1-.38-0.73l8.52-12.36a0.47,0.47,0,0,1,.38-0.2h18.73a0.47,0.47,0,0,1,.33.8l-12.38,12.36A0.47,0.47,0,0,1,141.8,119Zm-14-.93h13.79l11.44-11.43H135.69Z"/><path class="cls-76" d="M141.8,119a0.47,0.47,0,0,1-.42-0.26l-8.91-17.87a0.47,0.47,0,1,1,.83-0.42l8.91,17.87A0.47,0.47,0,0,1,141.8,119Z"/><g class="cls-77"><path class="cls-75" d="M141.57,118.67a0.17,0.17,0,0,1-.16-0.1L132.5,100.7a0.17,0.17,0,0,1,.31-0.16l8.91,17.87a0.17,0.17,0,0,1-.08.23Z"/></g><path class="cls-51" d="M158.07,102a0.47,0.47,0,1,0,0,.93h2.4V102h-2.4Z"/><path class="cls-48" d="M151.47,88.67a4.54,4.54,0,0,0-4.38-3c-5.85,0-10,2.65-11.22,4l3.46,2.65h10.6l2.89,1.32S151.66,89.26,151.47,88.67Z"/><path class="cls-72" d="M153.29,100.4"/><path class="cls-72" d="M131.15,96.63"/><path class="cls-78" d="M147.77,91.07H134.9l3.32,1.72h6.66s0.93,1,1.6.67c1.64-.88,3.92-2.06,3.92-2.06Z"/><path class="cls-47" d="M141.22,100.58l2.66,1.81a9,9,0,0,0-1.61,2.06c-0.61,1.14-1.7,4.83-2.49,6.39s-0.35,1.23-.12,1.39,0.24,1.61.61,1.16c1.1-1.34,7.22-9.66,8.15-11.14a2.78,2.78,0,0,0-.62-3.62l-3.9-2.87"/><path class="cls-79" d="M135.86,89.61l-0.25.25c-1.33,1.48-2.5,5.38.9,7.65,2.28,1.52,4.8,3.13,4.8,3.13l3-4.55Z"/><path class="cls-75" d="M139.2,112l-1,2.06,5,2.53s0.8-.5-0.27-1.53a29.26,29.26,0,0,1-2.08-2.32l0.73-1-1.76-.89Z"/><path class="cls-51" d="M143.46,116.09l-5-2.55-0.33.64,5.05,2.55A1.78,1.78,0,0,0,143.46,116.09Z"/><path class="cls-51" d="M143.14,116.77h0l-5.05-2.55v0a0,0,0,0,1,0,0l0.33-.64a0,0,0,0,1,0,0l5,2.55a0,0,0,0,1,0,0,1.79,1.79,0,0,1-.33.66h0Zm-5-2.6,5,2.53a1.76,1.76,0,0,0,.3-0.59l-5-2.53Z"/><path class="cls-49" d="M130.27,100c0,2,4.54,1.73,6.27,0h-6.27Z"/><path class="cls-49" d="M132.62,101.79h0c-1.7,0-2.76-.69-2.76-1.8a0.41,0.41,0,0,1,.41-0.41h6.27a0.41,0.41,0,0,1,.29.7A6.34,6.34,0,0,1,132.62,101.79Zm-1.81-1.39a2.36,2.36,0,0,0,1.81.57h0a6.27,6.27,0,0,0,2.59-.57h-4.4Z"/><g class="cls-77"><path class="cls-75" d="M159.39,118.67a0.17,0.17,0,0,1-.16-0.11l-6.4-16.78a0.17,0.17,0,0,1,.33-0.12l6.4,16.78a0.17,0.17,0,0,1-.1.23h-0.06Z"/></g><polygon class="cls-47" points="131.05 83.05 131.05 83.05 131.05 83.05 131.05 83.05"/><path class="cls-47" d="M131.05,83.05s0,0,0,0h0Z"/><path class="cls-47" d="M131.05,83h0S131.05,83,131.05,83Z"/><path class="cls-47" d="M131.05,83.05h0Z"/><path class="cls-70" d="M150.93,82.54s-1.93-1.74-3.67-.21a5,5,0,0,1-2.46,1.46,0.11,0.11,0,0,0-.06.19,4.59,4.59,0,0,0,1.08.64,2.61,2.61,0,0,0,1.26.22,1.73,1.73,0,0,0,.87-0.34,8.3,8.3,0,0,0,.9-0.75,1.89,1.89,0,0,1,.54-0.39,1.3,1.3,0,0,1,1.43,0,0.11,0.11,0,1,0,.09-0.19l0,0V82.72A0.11,0.11,0,0,0,150.93,82.54Z"/><rect class="cls-48" x="150.09" y="82.62" width="0.98" height="0.42" transform="translate(10.57 182.49) rotate(-64.26)"/><path class="cls-70" d="M157.95,86.17l0.64,0.23a0.11,0.11,0,0,0,.15-0.11,4.82,4.82,0,0,0-1.68-2.81c-2.07-1.68-5-1.86-6.18.13s0.19,3.9,1.71,5a0.12,0.12,0,0,0,.09,0h0a0.11,0.11,0,0,0,.06-0.1V85.29a2.67,2.67,0,0,0,1.63,1.6h0a0.12,0.12,0,0,0,.1-0.13V85.83"/><path class="cls-74" d="M161.87,97.66l-1.24,1.4L162,98.6C162.52,97.77,161.87,97.66,161.87,97.66Z"/><path class="cls-48" d="M152.45,99.91a1.54,1.54,0,0,1,.81-3h0.05l7.22,1.93a0.84,0.84,0,0,1,.85.86,1,1,0,0,1-1.13.94l-7.43-.68A1.29,1.29,0,0,1,152.45,99.91Z"/><path class="cls-48" d="M154.13,98.2l-1.89-7-0.77-2.54-4.18,1.46,4.32,9A1.35,1.35,0,0,0,154.13,98.2Z"/><path class="cls-47" d="M160.56,99v1.53a5.64,5.64,0,0,0,2.16.25c0.81,0,1.38-1.9.86-2.11A3.07,3.07,0,0,0,160.56,99Z"/><rect class="cls-63" x="160.29" y="98.62" width="0.3" height="2.19"/><path class="cls-80" d="M160.59,100.94h-0.3a0.14,0.14,0,0,1-.14-0.14V98.62a0.14,0.14,0,0,1,.14-0.14h0.3a0.14,0.14,0,0,1,.14.14v2.19A0.14,0.14,0,0,1,160.59,100.94Zm-0.16-.27h0V98.76h0v1.91Z"/><polygon class="cls-75" points="155.78 86.22 155.33 85.95 153.09 89.83 153.55 90.08 155.78 86.22"/><g class="cls-68"><polygon class="cls-47" points="153.04 84.7 157.18 87.08 156.79 87.75 152.66 85.37 153.04 84.7"/></g><path class="cls-75" d="M153.91,88.5a2.35,2.35,0,0,1-.86-3.21l0.46,0.27a1.82,1.82,0,0,0,.66,2.48Z"/><path class="cls-79" d="M159.26,86.72c-0.81-1.85-2.05-4.21-3.4-5-2.06-1.19-3.94-.91-4.88.72-0.83,1.44-1,3-.37,3.44l1.24,0.72a0.93,0.93,0,0,0,1.38-.56c0.35-.61.51-0.64,0.85-0.45l3,1.72a0.52,0.52,0,0,0,.71-0.13l1,0.16a0.45,0.45,0,0,0,.44-0.15A0.45,0.45,0,0,0,159.26,86.72Z"/><path class="cls-81" d="M152.47,85.49a0.3,0.3,0,0,0-.11-0.41l-1.09-.63a0.3,0.3,0,0,0-.41.11h0A0.3,0.3,0,0,0,151,85l1.09,0.63a0.3,0.3,0,0,0,.41-0.11h0Z"/><path class="cls-81" d="M153,84.55a0.3,0.3,0,0,0-.11-0.41l-1.09-.63a0.3,0.3,0,0,0-.41.11h0a0.3,0.3,0,0,0,.11.41l1.09,0.63a0.3,0.3,0,0,0,.41-0.11h0Z"/></g></g></svg>