<svg xmlns="http://www.w3.org/2000/svg" viewBox="0 0 360 138"><defs><style>.cls-1{isolation:isolate;}.cls-2,.cls-26{fill:none;}.cls-3{fill:#f2f2f2;}.cls-4{fill:#ef6950;}.cls-5{fill:#cae0d9;}.cls-6{fill:#f03a17;}.cls-7{fill:#c5dbd4;}.cls-8{fill:#de614a;}.cls-9{fill:#bd7f54;}.cls-10{fill:#47d041;}.cls-11{fill:#9ad93a;}.cls-12{fill:#3a96dd;}.cls-13{fill:#0078d7;}.cls-14{fill:#0061a3;}.cls-15{fill:#e3e3e3;}.cls-16{fill:#f7630c;}.cls-17,.cls-18{fill:#d95100;}.cls-18{opacity:0.1;mix-blend-mode:multiply;}.cls-19{fill:#91e5df;}.cls-20{fill:#003966;}.cls-21{fill:#fff;}.cls-22{fill:#6ccfc7;}.cls-23{fill:#ccc;}.cls-24{opacity:0.3;}.cls-25{fill:#c6f7f4;}.cls-26{stroke:#25bf54;stroke-miterlimit:10;stroke-width:2px;}</style></defs><title>set_duration_360x138ep</title><g class="cls-1"><g id="set_duration" data-name="set duration"><rect class="cls-2" width="360" height="138"/><rect class="cls-3" x="124.84" y="22.19" width="98.19" height="99.58" rx="7.41" ry="7.41"/><path class="cls-4" d="M223,29.6a7.41,7.41,0,0,0-7.41-7.41H132.25a7.41,7.41,0,0,0-7.41,7.41V46.86H223V29.6Z"/><path class="cls-5" d="M214,114.77h-80.1a1.23,1.23,0,0,1-1.23-1.23V58.8a1.23,1.23,0,0,1,1.23-1.23H214a1.23,1.23,0,0,1,1.23,1.23v54.73A1.23,1.23,0,0,1,214,114.77Zm-78.86-2.47h77.63V60H135.12V112.3Z"/><path class="cls-5" d="M150.16,114.77a1.23,1.23,0,0,1-1.23-1.23V58.8a1.23,1.23,0,0,1,2.47,0v54.73A1.23,1.23,0,0,1,150.16,114.77Z"/><path class="cls-5" d="M166,114.77a1.23,1.23,0,0,1-1.23-1.23V58.8a1.23,1.23,0,0,1,2.47,0v54.73A1.23,1.23,0,0,1,166,114.77Z"/><path class="cls-5" d="M181.86,114.77a1.23,1.23,0,0,1-1.23-1.23V58.8a1.23,1.23,0,0,1,2.47,0v54.73A1.23,1.23,0,0,1,181.86,114.77Z"/><path class="cls-5" d="M197.7,114.77a1.23,1.23,0,0,1-1.23-1.23V58.8a1.23,1.23,0,0,1,2.47,0v54.73A1.23,1.23,0,0,1,197.7,114.77Z"/><path class="cls-5" d="M214,74.44h-80.1a1.23,1.23,0,1,1,0-2.47H214A1.23,1.23,0,1,1,214,74.44Z"/><path class="cls-5" d="M214,87.92h-80.1a1.23,1.23,0,1,1,0-2.47H214A1.23,1.23,0,1,1,214,87.92Z"/><path class="cls-5" d="M214,101.39h-80.1a1.23,1.23,0,1,1,0-2.47H214A1.23,1.23,0,1,1,214,101.39Z"/><rect class="cls-6" x="124.84" y="43.98" width="98.19" height="5.77"/><rect class="cls-5" x="141.01" y="16.05" width="5.35" height="14.78" rx="1.65" ry="1.65"/><rect class="cls-5" x="153.15" y="16.05" width="5.35" height="14.78" rx="1.65" ry="1.65"/><rect class="cls-5" x="165.29" y="16.05" width="5.35" height="14.78" rx="1.65" ry="1.65"/><rect class="cls-5" x="177.43" y="16.05" width="5.35" height="14.78" rx="1.65" ry="1.65"/><rect class="cls-5" x="189.57" y="16.05" width="5.35" height="14.78" rx="1.65" ry="1.65"/><rect class="cls-5" x="201.71" y="16.05" width="5.35" height="14.78" rx="1.65" ry="1.65"/><rect class="cls-7" x="141.01" y="16.05" width="5.35" height="6.23" rx="1.65" ry="1.65"/><rect class="cls-7" x="153.15" y="16.05" width="5.35" height="6.23" rx="1.65" ry="1.65"/><rect class="cls-7" x="165.29" y="16.05" width="5.35" height="6.23" rx="1.65" ry="1.65"/><rect class="cls-7" x="177.43" y="16.05" width="5.35" height="6.23" rx="1.65" ry="1.65"/><rect class="cls-7" x="189.57" y="16.05" width="5.35" height="6.23" rx="1.65" ry="1.65"/><rect class="cls-7" x="201.71" y="16.05" width="5.35" height="6.23" rx="1.65" ry="1.65"/><path class="cls-4" d="M310.19,85.42h-18c-6.78,0-12,5.09-10.86,12.44l3,16.24a9.52,9.52,0,0,0,16.89,4.19,9.53,9.53,0,0,0,16.88-4.19l3-16.24C322.62,90.57,317,85.42,310.19,85.42Z"/><path class="cls-8" d="M291.8,85.42l6.75,2a9.87,9.87,0,0,0,4.63,0l6.74-2H291.8Z"/><path class="cls-9" d="M302.19,86.62h-1.83A6.58,6.58,0,0,1,306.93,80v1.83A4.75,4.75,0,0,0,302.19,86.62Z"/><path class="cls-10" d="M300,76.09c3.17,3.81,1.4,10.5,1.4,10.5s-6.9.51-10.07-3.3-1.41-10.5-1.41-10.5S296.84,72.28,300,76.09Z"/><path class="cls-11" d="M301.41,86.6s-6.9.51-10.07-3.3-1.41-10.5-1.41-10.5"/><path class="cls-12" d="M260.65,100.21a3,3,0,0,0-3-3h-17.5a3,3,0,0,0-3,3V103a3,3,0,0,0,3,3h17.5a3,3,0,0,0,3-3v-2.79Z"/><path class="cls-13" d="M293.7,106.64L267.29,97l0.36-.48a5.07,5.07,0,0,0-7.16-7.16l-6.78,6.79c-4.07,3.93-3.86,4.63-8.55,4.63h-8V115l68.17,0C304.24,112.14,301,109.5,293.7,106.64Z"/><path class="cls-14" d="M249.05,104.87H237.17V115H263A14.66,14.66,0,0,0,249.05,104.87Z"/><path class="cls-15" d="M305.35,115l-68.17,0v7h68.24A13.09,13.09,0,0,0,305.35,115Z"/><path class="cls-12" d="M267.28,97L265,99.3c-1.57,1.57-.66,3.49,1.16,4.16l16.25,5.28a3.51,3.51,0,0,0,4.5-2.1l0.79-2.18Z"/><circle class="cls-14" cx="266.36" cy="112.22" r="1.25" transform="translate(69.82 324.15) rotate(-70)"/><circle class="cls-14" cx="270.88" cy="112.22" r="1.25" transform="translate(72.79 328.39) rotate(-70)"/><path class="cls-12" d="M245.87,80.26a3,3,0,0,1,1-4.1l15-9a3,3,0,0,1,4.1,1l1.44,2.39a3,3,0,0,1-1,4.1l-15,9a3,3,0,0,1-4.1-1Z"/><path class="cls-13" d="M220.85,102.79l17.69-21.84L238,80.73a5.07,5.07,0,0,1,2.45-9.83l9.31,2.33c5.51,1.27,5.7,2,9.71-.43l6.85-4.12,7.22,12,0.07,0.12-58.44,35.1C214.65,112.94,216.09,109,220.85,102.79Z"/><path class="cls-14" d="M258.21,78.28l10.19-6.12,5.13,8.54,0.07,0.12L251.48,94.11A14.66,14.66,0,0,1,258.21,78.28Z"/><path class="cls-15" d="M215.15,115.93l58.44-35.1,3.59,6-58.49,35.14A13.09,13.09,0,0,1,215.15,115.93Z"/><path class="cls-12" d="M238.55,80.95l3.14,0.76c2.15,0.54,2.37,2.65,1.15,4.16L231.63,98.76a3.51,3.51,0,0,1-4.94.52l-1.8-1.46Z"/><circle class="cls-14" cx="247.16" cy="93.5" r="1.26" transform="translate(18.97 226.76) rotate(-51.01)"/><circle class="cls-14" cx="243.28" cy="95.83" r="1.26" transform="translate(15.71 224.59) rotate(-51)"/><circle class="cls-16" cx="72.12" cy="88.33" r="33.43" transform="translate(-35.44 50.46) rotate(-31.38)"/><circle class="cls-16" cx="72.12" cy="88.33" r="33.43" transform="translate(-35.44 50.46) rotate(-31.38)"/><path class="cls-17" d="M100.66,70.92q-0.44-.72-0.9-1.4L82.21,80.22a25.76,25.76,0,0,1-.06-23.78,33.91,33.91,0,0,0-3.29-.85A29.08,29.08,0,0,0,79.36,82L72.67,86,56.16,59q-0.73.4-1.44,0.83t-1.4.9L69.83,87.77l-6.68,4.07A29.08,29.08,0,0,0,39.93,79.33a33.59,33.59,0,0,0-.75,3.32A25.76,25.76,0,0,1,60.29,93.59l-17.55,10.7q0.4,0.73.83,1.44t0.9,1.4L62,96.43a25.76,25.76,0,0,1,.06,23.78,33.56,33.56,0,0,0,3.29.85,29.08,29.08,0,0,0-.5-26.37l6.68-4.07L88.08,117.7q0.73-.4,1.44-0.83t1.4-.9L74.41,88.88l6.68-4.07a29.08,29.08,0,0,0,23.22,12.51,33.55,33.55,0,0,0,.75-3.31A25.76,25.76,0,0,1,83.94,83.07l17.55-10.7Q101.1,71.64,100.66,70.92Z"/><path class="cls-18" d="M55.22,98.64a38.19,38.19,0,0,1-.58-38.8,33.43,33.43,0,0,0,34.81,57.08A38.19,38.19,0,0,1,55.22,98.64Z"/><circle class="cls-18" cx="72.06" cy="62.03" r="1.82" transform="translate(-21.76 46.59) rotate(-31.38)"/><circle class="cls-18" cx="67.62" cy="64.74" r="1.82" transform="translate(-23.82 44.67) rotate(-31.38)"/><circle class="cls-18" cx="67.68" cy="59.84" r="1.82" transform="translate(-21.26 43.99) rotate(-31.38)"/><path class="cls-19" d="M115.57,44.13a1.93,1.93,0,0,0-1.93-1.93H98.21a1.93,1.93,0,0,0-1.93,1.93h0a1.93,1.93,0,0,0,1.93,1.93h15.42a1.93,1.93,0,0,0,1.93-1.93h0Z"/><rect class="cls-19" x="98.16" y="42.2" width="15.48" height="6.87"/><path class="cls-20" d="M113.63,42.2l-1.14-10.07A1.52,1.52,0,0,0,111,30.82H100.77a1.52,1.52,0,0,0-1.47,1.31L98.16,42.2"/><circle class="cls-21" cx="105.89" cy="36.51" r="2.52"/><path class="cls-19" d="M114.27,49.07H97.52a7.73,7.73,0,0,0-7.73,7.73v60.75a3.86,3.86,0,0,0,3.86,3.86h24.48a3.86,3.86,0,0,0,3.86-3.86V56.8A7.73,7.73,0,0,0,114.27,49.07Z"/><path class="cls-22" d="M103,49.07V42.19h-4.8a1.93,1.93,0,0,0,0,3.85v3H97.52a7.73,7.73,0,0,0-7.73,7.73v60.75a3.86,3.86,0,0,0,3.86,3.86h6.44a3.86,3.86,0,0,1-3.86-3.86V56.8a7.73,7.73,0,0,1,6.69-7.66h0"/><path class="cls-23" d="M105.73,36.09a1.63,1.63,0,0,1-.6,2.23l-10,5.76a1.64,1.64,0,0,1-2.23-.6h0a1.63,1.63,0,0,1,.6-2.23l10-5.75a1.63,1.63,0,0,1,2.23.6h0Z"/><g class="cls-24"><path class="cls-25" d="M117.62,75.31a1.54,1.54,0,0,1-1.54-1.54v-16a1.54,1.54,0,0,1,3.08,0v16A1.54,1.54,0,0,1,117.62,75.31Z"/></g><g class="cls-24"><path class="cls-25" d="M117.62,84.41a1.54,1.54,0,0,1-1.54-1.54V80.73a1.54,1.54,0,1,1,3.08,0v2.15A1.54,1.54,0,0,1,117.62,84.41Z"/></g><polyline class="cls-26" points="153.4 79.52 156.88 83.13 163.54 75.69"/><polyline class="cls-26" points="136.84 79.52 140.33 83.13 146.99 75.69"/><polyline class="cls-26" points="168.86 79.52 172.34 83.13 179 75.69"/><polyline class="cls-26" points="185.04 79.52 188.53 83.13 195.19 75.69"/><polyline class="cls-26" points="200.88 79.52 204.36 83.13 211.02 75.69"/></g></g></svg>