<svg xmlns="http://www.w3.org/2000/svg" viewBox="0 0 64 64"><defs><style>.cls-1{isolation:isolate;}.cls-11,.cls-2{fill:none;}.cls-2{opacity:0.25;}.cls-3{fill:#f7b189;}.cls-4{fill:#f7a87c;}.cls-5{fill:#005b70;}.cls-6{fill:#e3e3e3;}.cls-7{fill:#002a47;}.cls-8{fill:#00b294;}.cls-9{opacity:0.1;}.cls-10{fill:#ffb800;}.cls-11{stroke:#ffcb94;stroke-miterlimit:10;}.cls-12{fill:#fa0;}.cls-13{fill:#006f94;}.cls-14{fill:#006cb6;}.cls-15{fill:#00487a;}.cls-16{opacity:0.3;mix-blend-mode:multiply;}.cls-17{fill:#003f54;}</style></defs><title>bike_challenge_64x64</title><g class="cls-1"><g id="bike_challenge"><rect class="cls-2" width="64" height="64" rx="0.65" ry="0.65"/><polyline class="cls-3" points="38.44 19.17 39.94 17.47 38.87 15.36 37.15 16.71"/><path class="cls-3" d="M42.86,11.08a2.85,2.85,0,0,0-3.95,1.17,3.28,3.28,0,0,0-.24,2.88c0.3,0.79.84,2.81,0.84,2.81,0.32-.36.52-0.38,0.8-0.22L40.85,18a0.76,0.76,0,0,0,1.09-.29L42.54,17l0.24,0.14a0.23,0.23,0,0,0,.37-0.2,1.6,1.6,0,0,1,.17-1l0.48-.83A2.89,2.89,0,0,0,42.86,11.08Z"/><path class="cls-3" d="M43.8,15.12h0Z"/><path class="cls-4" d="M26.93,28a1,1,0,0,0-.53,1.21l0.83,2.33a2.73,2.73,0,0,1,0,1.7A14.28,14.28,0,0,0,26.46,37,33.85,33.85,0,0,1,26,40.75a0.78,0.78,0,0,0,.35,1,1,1,0,0,0,.9-0.73l3.44-8.15a4.66,4.66,0,0,0,.3-1.75l-0.22-3.79a0.6,0.6,0,0,0-.89-0.55Z"/><polygon class="cls-5" points="26.72 30.13 24.1 21.98 30.38 21.62 30.9 30.13 26.72 30.13"/><path class="cls-5" d="M26,40.42l-0.38,2,4.77,0.91s0.54-.6-0.59-1.21a24.83,24.83,0,0,1-2.41-1.55l0.48-1-1.67-.18Z"/><path class="cls-6" d="M30.5,42.83l-4.82-.92-0.12.61,4.82,0.92A1.55,1.55,0,0,0,30.5,42.83Z"/><path class="cls-6" d="M45.89,51.26a8.73,8.73,0,1,1,8.73-8.73A8.74,8.74,0,0,1,45.89,51.26Zm0-16.66a7.93,7.93,0,1,0,7.93,7.93A7.93,7.93,0,0,0,45.89,34.6Z"/><circle class="cls-6" cx="45.89" cy="42.53" r="1.53"/><path class="cls-6" d="M45.89,44.26a1.73,1.73,0,1,1,1.73-1.73A1.74,1.74,0,0,1,45.89,44.26Zm0-3.06a1.33,1.33,0,1,0,1.33,1.33A1.33,1.33,0,0,0,45.89,41.2Z"/><path class="cls-6" d="M17.47,51.26a8.73,8.73,0,1,1,8.73-8.73A8.74,8.74,0,0,1,17.47,51.26Zm0-16.66a7.93,7.93,0,1,0,7.93,7.93A7.93,7.93,0,0,0,17.47,34.6Z"/><circle class="cls-6" cx="17.47" cy="42.53" r="1.53"/><path class="cls-6" d="M17.47,44.26a1.73,1.73,0,1,1,1.73-1.73A1.74,1.74,0,0,1,17.47,44.26Zm0-3.06a1.33,1.33,0,1,0,1.33,1.33A1.33,1.33,0,0,0,17.47,41.2Z"/><path class="cls-7" d="M45.88,52a9.47,9.47,0,1,1,9.47-9.47A9.48,9.48,0,0,1,45.88,52Zm0-18.14a8.67,8.67,0,1,0,8.67,8.67A8.67,8.67,0,0,0,45.88,33.86Z"/><path class="cls-8" d="M45.83,42.93a0.4,0.4,0,0,1-.38-0.26L39.9,28.12a0.4,0.4,0,0,1,0-.14V26.06a0.4,0.4,0,0,1,.4-0.4h4.19a0.4,0.4,0,1,1,0,.81H40.68V27.9l5.52,14.48a0.4,0.4,0,0,1-.23.52Z"/><path class="cls-8" d="M46.56,29a0.4,0.4,0,0,1,0-.81,0.88,0.88,0,1,0,0-1.77H44.47a0.4,0.4,0,0,1,0-.81h2.09A1.69,1.69,0,1,1,46.56,29Z"/><path class="cls-7" d="M17.47,52a9.47,9.47,0,1,1,9.47-9.47A9.48,9.48,0,0,1,17.47,52Zm0-18.14a8.67,8.67,0,1,0,8.66,8.67A8.67,8.67,0,0,0,17.47,33.86Z"/><path class="cls-8" d="M30.37,42.93H17.47a0.4,0.4,0,0,1-.33-0.63l7.39-10.72a0.4,0.4,0,0,1,.33-0.17H41.11a0.4,0.4,0,0,1,.29.69L30.66,42.81A0.4,0.4,0,0,1,30.37,42.93Zm-12.13-.81h12l9.93-9.92H25.07Z"/><path class="cls-8" d="M30.37,42.93A0.4,0.4,0,0,1,30,42.71l-7.73-15.5A0.4,0.4,0,1,1,23,26.85l7.73,15.5A0.4,0.4,0,0,1,30.37,42.93Z"/><g class="cls-9"><path class="cls-5" d="M30.17,42.68A0.15,0.15,0,0,1,30,42.6L22.3,27.1A0.15,0.15,0,1,1,22.57,27l7.73,15.5a0.15,0.15,0,0,1-.07.2Z"/></g><path class="cls-6" d="M44.48,28.23a0.4,0.4,0,1,0,0,.81h2.08V28.23H44.48Z"/><path class="cls-10" d="M38.75,16.66A3.94,3.94,0,0,0,35,14a14.26,14.26,0,0,0-9.73,3.45l3,2.3h9.19l2.51,1.15S38.92,17.17,38.75,16.66Z"/><path class="cls-11" d="M40.33,26.84"/><path class="cls-11" d="M21.14,23.57"/><path class="cls-12" d="M35.54,18.74H24.39l2.88,1.49H33s0.81,0.84,1.39.58C35.86,20,37.83,19,37.83,19Z"/><path class="cls-3" d="M29.87,27l2.31,1.57a7.85,7.85,0,0,0-1.4,1.79c-0.53,1-1.47,4.19-2.16,5.55s-0.3,1.07-.11,1.21,0.21,1.39.53,1c1-1.16,6.26-8.38,7.07-9.66a2.41,2.41,0,0,0-.53-3.14l-3.38-2.49"/><path class="cls-13" d="M25.22,17.48L25,17.69c-1.15,1.28-2.17,4.67.78,6.64,2,1.32,4.16,2.71,4.16,2.71l2.6-3.95Z"/><path class="cls-5" d="M28.12,36.88l-0.9,1.79,4.34,2.19s0.69-.43-0.23-1.33a25.38,25.38,0,0,1-1.81-2l0.63-.85-1.53-.77Z"/><path class="cls-6" d="M31.81,40.45l-4.38-2.21-0.28.56L31.53,41A1.55,1.55,0,0,0,31.81,40.45Z"/><path class="cls-6" d="M31.53,41h0l-4.38-2.22h0a0,0,0,0,1,0,0l0.28-.56a0,0,0,0,1,0,0l4.38,2.21a0,0,0,0,1,0,0,1.55,1.55,0,0,1-.28.57h0Zm-4.35-2.25L31.52,41a1.52,1.52,0,0,0,.26-0.51l-4.34-2.19Z"/><path class="cls-14" d="M20.37,26.48c0,1.71,3.93,1.5,5.44,0H20.37Z"/><path class="cls-14" d="M22.41,28h0c-1.48,0-2.39-.6-2.39-1.56a0.35,0.35,0,0,1,.35-0.35H25.8a0.35,0.35,0,0,1,.25.6A5.5,5.5,0,0,1,22.41,28Zm-1.57-1.21a2,2,0,0,0,1.57.5h0a5.44,5.44,0,0,0,2.25-.5H20.84Z"/><g class="cls-9"><path class="cls-5" d="M45.63,42.68a0.15,0.15,0,0,1-.14-0.1L39.93,28a0.15,0.15,0,0,1,.28-0.11l5.55,14.55a0.15,0.15,0,0,1-.09.2H45.63Z"/></g><polygon class="cls-3" points="21.05 11.78 21.05 11.78 21.05 11.78 21.05 11.78"/><path class="cls-3" d="M21,11.78s0,0,0,0h0Z"/><path class="cls-3" d="M21,11.78h0S21,11.78,21,11.78Z"/><path class="cls-3" d="M21,11.78h0Z"/><path class="cls-7" d="M38.29,11.34s-1.67-1.51-3.18-.18A4.36,4.36,0,0,1,33,12.42a0.09,0.09,0,0,0-.06.16,4,4,0,0,0,.94.55,2.26,2.26,0,0,0,1.1.19A1.5,1.5,0,0,0,35.71,13a7.2,7.2,0,0,0,.78-0.65A1.64,1.64,0,0,1,37,12a1.13,1.13,0,0,1,1.24,0,0.09,0.09,0,1,0,.08-0.17l0,0V11.5A0.09,0.09,0,0,0,38.29,11.34Z"/><rect class="cls-10" x="37.56" y="11.41" width="0.85" height="0.37" transform="translate(11.05 40.77) rotate(-64.26)"/><path class="cls-7" d="M44.38,14.49l0.55,0.2a0.1,0.1,0,0,0,.13-0.1,4.18,4.18,0,0,0-1.46-2.43c-1.79-1.45-4.31-1.61-5.36.11s0.17,3.38,1.48,4.34a0.1,0.1,0,0,0,.07,0h0a0.1,0.1,0,0,0,.06-0.09V13.73a2.31,2.31,0,0,0,1.41,1.38h0A0.11,0.11,0,0,0,41.42,15V14.2"/><path class="cls-4" d="M47.78,24.45l-1.08,1.21,1.16-.39C48.34,24.55,47.78,24.45,47.78,24.45Z"/><path class="cls-10" d="M39.61,26.41a1.33,1.33,0,0,1,.7-2.56h0l6.27,1.68a0.73,0.73,0,0,1,.73.75,0.9,0.9,0,0,1-1,.82l-6.45-.59A1.12,1.12,0,0,1,39.61,26.41Z"/><path class="cls-10" d="M41.06,24.93l-1.64-6.07-0.67-2.2-3.63,1.27,3.75,7.8A1.17,1.17,0,0,0,41.06,24.93Z"/><path class="cls-3" d="M46.64,25.64V27a4.89,4.89,0,0,0,1.87.21c0.7,0,1.2-1.64.75-1.83A2.66,2.66,0,0,0,46.64,25.64Z"/><rect class="cls-15" x="46.41" y="25.29" width="0.26" height="1.9"/><path class="cls-15" d="M46.67,27.3H46.41a0.12,0.12,0,0,1-.12-0.12v-1.9a0.12,0.12,0,0,1,.12-0.12h0.26a0.12,0.12,0,0,1,.12.12v1.9A0.12,0.12,0,0,1,46.67,27.3Zm-0.14-.24h0V25.41h0v1.66Z"/><polygon class="cls-5" points="42.5 14.53 42.11 14.3 40.16 17.66 40.56 17.88 42.5 14.53"/><g class="cls-16"><polygon class="cls-3" points="40.12 13.22 43.71 15.28 43.37 15.86 39.79 13.8 40.12 13.22"/></g><path class="cls-5" d="M40.87,16.51a2,2,0,0,1-.75-2.79L40.53,14a1.58,1.58,0,0,0,.58,2.15Z"/><path class="cls-13" d="M45.51,15c-0.7-1.6-1.78-3.66-2.95-4.33-1.79-1-3.41-.79-4.24.63-0.72,1.25-.91,2.61-0.32,3l1.08,0.62a0.81,0.81,0,0,0,1.2-.49c0.3-.53.44-0.56,0.74-0.39l2.59,1.5a0.45,0.45,0,0,0,.61-0.11l0.88,0.13a0.39,0.39,0,0,0,.39-0.13A0.39,0.39,0,0,0,45.51,15Z"/><path class="cls-17" d="M39.62,13.9a0.26,0.26,0,0,0-.1-0.36L38.58,13a0.26,0.26,0,0,0-.36.1h0a0.26,0.26,0,0,0,.1.36L39.27,14a0.26,0.26,0,0,0,.36-0.1h0Z"/><path class="cls-17" d="M40.1,13.08a0.26,0.26,0,0,0-.1-0.36l-0.95-.55a0.26,0.26,0,0,0-.36.1h0a0.26,0.26,0,0,0,.1.36l0.95,0.55a0.26,0.26,0,0,0,.36-0.1h0Z"/></g></g></svg>