<svg id="cardio_challenge" xmlns="http://www.w3.org/2000/svg" viewBox="0 0 64 64"><defs><style>.cls-1,.cls-3{fill:none;}.cls-1{opacity:0.25;}.cls-2{fill:#f46442;}.cls-3{stroke:red;stroke-linejoin:round;stroke-width:1.01px;}</style></defs><title>cardio_challenge_64x64</title><rect class="cls-1" width="64" height="64" rx="0.65" ry="0.65"/><circle class="cls-2" cx="41.6" cy="29.01" r="11.54" transform="translate(-8.33 37.91) rotate(-45)"/><path class="cls-2" d="M21.26,25.37H44.34a0,0,0,0,1,0,0V42.26a8,8,0,0,1-8,8H21.26a0,0,0,0,1,0,0V25.37A0,0,0,0,1,21.26,25.37Z" transform="translate(36.34 -12.12) rotate(45)"/><path class="cls-2" d="M31.61,21.59c-4.91-4.91-12.55-5.25-17.06-.74S10.38,33,15.29,37.91l1.4,1.4L33,23Z"/><polyline class="cls-3" points="55.54 44.92 53.14 42.52 50.74 44.92 48.34 41.72 44.33 46.52 38.73 34.51 34.73 41.72 30.73 29.71 28.33 37.71 21.13 10.9 14.72 43.32 11.52 38.51 8.32 43.32"/></svg>