<svg xmlns="http://www.w3.org/2000/svg" xmlns:xlink="http://www.w3.org/1999/xlink" viewBox="0 0 414.76 138"><defs><style>.cls-1{fill:none;}.cls-2{isolation:isolate;}.cls-3{clip-path:url(#clip-path);}.cls-4{fill:#68bc45;}.cls-13,.cls-23,.cls-25,.cls-28,.cls-29,.cls-5{fill:#50b748;}.cls-19,.cls-41,.cls-6,.cls-61{fill:#fff;}.cls-6{stroke:#221f1f;stroke-width:0.28px;}.cls-41,.cls-6,.cls-61{stroke-miterlimit:10;}.cls-7{opacity:0.6;}.cls-8{fill:#b5acac;}.cls-9{opacity:0.2;}.cls-10,.cls-21,.cls-28,.cls-29,.cls-45{opacity:0.3;}.cls-11,.cls-12{opacity:0.5;}.cls-11,.cls-29{mix-blend-mode:multiply;}.cls-13,.cls-23,.cls-25,.cls-28,.cls-29{stroke:#50b748;}.cls-13,.cls-14,.cls-15,.cls-23,.cls-24,.cls-25,.cls-26,.cls-28,.cls-29,.cls-43{stroke-linecap:round;stroke-linejoin:round;}.cls-13,.cls-14,.cls-15{stroke-width:1.42px;}.cls-14{fill:#13a049;stroke:#13a049;}.cls-15,.cls-32{fill:#008e46;}.cls-15{stroke:#008e46;}.cls-16{fill:#0b723a;}.cls-17{opacity:0.4;}.cls-18{fill:#0e7e3f;}.cls-20{fill:#38bfc7;}.cls-21{fill:#4fc3cf;}.cls-22,.cls-24{fill:#10ac4b;}.cls-23,.cls-28,.cls-29{stroke-width:1.13px;}.cls-24{stroke:#10ac4b;}.cls-24,.cls-26{stroke-width:0.85px;}.cls-25{stroke-width:1.98px;}.cls-26{fill:#0ebbc0;stroke:#0ebbc0;}.cls-27{fill:#39a248;}.cls-30{fill:#57b847;}.cls-31{opacity:0.7;}.cls-33{fill:#379645;}.cls-34,.cls-49,.cls-55{opacity:0.25;}.cls-34{fill:url(#linear-gradient);}.cls-35{fill:#a3613e;}.cls-36{fill:#ffb800;}.cls-37{fill:#f7b189;}.cls-38,.cls-45{fill:#ff9e00;}.cls-39{fill:#003961;}.cls-40{fill:#00487a;}.cls-41,.cls-61{stroke:#000;}.cls-41{stroke-width:1.98px;}.cls-42{fill:#ffd594;}.cls-43,.cls-54{fill:#11255e;}.cls-43{stroke:#11255e;stroke-width:0.79px;}.cls-44{fill:#9c633a;}.cls-46{fill:#0078d7;}.cls-47{fill:#0061a3;}.cls-48{fill:#e3e3e3;}.cls-49{fill:url(#linear-gradient-2);}.cls-50{fill:#b06f42;}.cls-51{fill:#b47243;}.cls-52{fill:#825230;}.cls-53{fill:#006cb6;}.cls-55{fill:url(#linear-gradient-3);}.cls-56{fill:#ffcd80;}.cls-57{fill:#ffe299;}.cls-58{fill:#1f1f1f;}.cls-59{fill:#f7630c;}.cls-60{fill:#e85d18;}.cls-61{stroke-width:2px;}.cls-62{fill:#757575;}.cls-63{fill:#393c42;}.cls-64{fill:#636363;}.cls-65{fill:#383838;}</style><clipPath id="clip-path"><rect class="cls-1" x="-1.6" width="361.29" height="135.6"/></clipPath><linearGradient id="linear-gradient" x1="175.41" y1="113.93" x2="224.2" y2="113.93" gradientUnits="userSpaceOnUse"><stop offset="0" stop-opacity="0"/><stop offset="1"/></linearGradient><linearGradient id="linear-gradient-2" x1="75.61" y1="113.86" x2="124.4" y2="113.86" xlink:href="#linear-gradient"/><linearGradient id="linear-gradient-3" x1="112.51" y1="113.91" x2="161.3" y2="113.91" xlink:href="#linear-gradient"/></defs><title>create_challenge_360x138ep</title><g class="cls-2"><g id="Layer_1" data-name="Layer 1"><rect class="cls-1" width="360" height="138"/><g class="cls-3"><path class="cls-4" d="M44.16,93H411.35a0,0,0,0,1,0,0v39.92a0,0,0,0,1,0,0H44.16a20,20,0,0,1-20-20v0a20,20,0,0,1,20-20Z"/><path class="cls-5" d="M171.72,61.49H370.77a15.89,15.89,0,0,1,15.89,15.89V88.89a15.89,15.89,0,0,1-15.89,15.89H166.46V61.49h5.27Z"/><path class="cls-5" d="M191,104.79V83H392.3a21.65,21.65,0,0,1,21.65,21.65"/><path class="cls-6" d="M165.46,61.53"/><g class="cls-7"><path class="cls-8" d="M319.46,61.53l23.12-36c1.34-2.08,3.52-2.08,4.86,0l23.12,36"/></g><g class="cls-7"><path class="cls-8" d="M233.31,62l32.28-37.22a3,3,0,0,1,4.25-.33l5.9,5,4.1,3.48a2.38,2.38,0,0,0,3.29-.12c0.82-.91,2.34-2.7,3.39-4l17.38-21a2.24,2.24,0,0,1,3.7.1l40,54.1"/></g><g class="cls-9"><path class="cls-8" d="M347.61,62l-8.76-11.84a1.61,1.61,0,0,0-1.15-.58H274.81a2,2,0,0,0-1.23.51l-8.34,8.34c-0.28.28-.51,0.19-0.51-0.21v-7.5A0.72,0.72,0,0,0,264,50h-8.94a0.76,0.76,0,0,1-.75-0.72l-0.12-2.69c0-.4-0.27-0.5-0.57-0.24l-3.5,3.16a2.17,2.17,0,0,1-1.25.48h-4.44a1.8,1.8,0,0,0-1.19.54L233.31,62"/></g><g class="cls-10"><path class="cls-8" d="M282.81,33.5c0-.18-0.26,0-0.57.45l-7.56,10.14a0.93,0.93,0,0,1-1.33.17l-1.42-1.13a1,1,0,0,1-.19-1.37l2.1-2.92a1,1,0,0,0-.19-1.37l-1.72-1.35a1,1,0,0,1-.17-1.35l3.46-4.49a0.91,0.91,0,0,1,1.32-.14l2.85,2.42c0.4,0.34.95,0.77,1.2,0.95h2.22Z"/></g><g class="cls-11"><path class="cls-5" d="M192.9,48.09c-15.35,0-17.1,13.44-27.48,13.44h55C209.07,61.53,208.25,48.09,192.9,48.09Z"/><g class="cls-12"><polygon class="cls-13" points="199.09 51.88 201.4 45.65 203.7 51.88 199.09 51.88"/><polygon class="cls-13" points="186.36 50.49 188.67 44.26 190.97 50.16 186.36 50.49"/></g><polygon class="cls-14" points="190.19 56.95 192.4 50.97 194.61 56.95 190.19 56.95"/><polygon class="cls-14" points="179.82 59.08 182.87 50.84 185.91 59.08 179.82 59.08"/><polygon class="cls-14" points="198.72 56.72 200.61 51.63 202.49 56.72 198.72 56.72"/></g><path class="cls-5" d="M365.3,61.49H166.25a15.89,15.89,0,0,0-15.89,15.89V88.89a15.89,15.89,0,0,0,15.89,15.89H370.57V61.49H365.3Z"/><polygon class="cls-15" points="354.34 71.83 362.02 51.07 369.69 71.83 354.34 71.83"/><polygon class="cls-15" points="354.66 61.45 362.33 40.69 370.01 61.45 354.66 61.45"/><rect class="cls-16" x="361.4" y="58.16" width="1.32" height="22.69"/><g class="cls-17"><path class="cls-18" d="M365.36,69.79a0.83,0.83,0,1,1-.66-1.32A2.06,2.06,0,0,1,365.36,69.79Z"/><path class="cls-18" d="M366.78,55.64a0.83,0.83,0,1,1-.66-1.32A2.06,2.06,0,0,1,366.78,55.64Z"/><path class="cls-18" d="M361.54,54.78a2.07,2.07,0,0,1-.47-1.4,1.65,1.65,0,0,1,1.87,1.87A2.06,2.06,0,0,1,361.54,54.78Z"/><path class="cls-18" d="M362.21,45.36a0.83,0.83,0,1,1-.66-1.32A2.06,2.06,0,0,1,362.21,45.36Z"/><path class="cls-18" d="M357,69.4a0.83,0.83,0,1,1-.66-1.32A2.06,2.06,0,0,1,357,69.4Z"/><path class="cls-18" d="M359.87,66a2.07,2.07,0,0,1,.47,1.4,1.65,1.65,0,0,1-1.87-1.87A2.06,2.06,0,0,1,359.87,66Z"/><path class="cls-18" d="M359.21,70a2.07,2.07,0,0,1,1.4-.47,1.65,1.65,0,0,1-1.87,1.87A2.06,2.06,0,0,1,359.21,70Z"/><path class="cls-18" d="M360.53,63.17a2.07,2.07,0,0,1-1.4.47A1.66,1.66,0,0,1,361,61.76,2.07,2.07,0,0,1,360.53,63.17Z"/><path class="cls-18" d="M359.4,60.28a0.83,0.83,0,1,1-.66-1.32A2.06,2.06,0,0,1,359.4,60.28Z"/><path class="cls-18" d="M364.83,65.51a2.07,2.07,0,0,1-1.4.47,1.65,1.65,0,0,1,1.87-1.87A2.07,2.07,0,0,1,364.83,65.51Z"/><path class="cls-18" d="M359.21,53a2.07,2.07,0,0,1-1.4.47,1.65,1.65,0,0,1,1.87-1.87A2.06,2.06,0,0,1,359.21,53Z"/><path class="cls-18" d="M363.77,49a2.07,2.07,0,0,1-.47-1.4,1.65,1.65,0,0,1,1.87,1.87A2.06,2.06,0,0,1,363.77,49Z"/><path class="cls-18" d="M366.78,68.58a2.06,2.06,0,0,1-1.32-.66,1.66,1.66,0,0,1,2.65,0A2.06,2.06,0,0,1,366.78,68.58Z"/><path class="cls-18" d="M363.71,60.44a0.83,0.83,0,1,1,.66,1.32A2.07,2.07,0,0,1,363.71,60.44Z"/><path class="cls-18" d="M367.56,59.62a2.06,2.06,0,0,1-1.32-.66,1.65,1.65,0,0,1,2.65,0A2.06,2.06,0,0,1,367.56,59.62Z"/><path class="cls-18" d="M360.53,49.72a2.06,2.06,0,0,1-.47-1.4,1.65,1.65,0,0,1,1.87,1.87A2.06,2.06,0,0,1,360.53,49.72Z"/><path class="cls-18" d="M363.7,52.91a2.06,2.06,0,0,1-1.32-.66,1.65,1.65,0,0,1,2.65,0A2.06,2.06,0,0,1,363.7,52.91Z"/><path class="cls-18" d="M358.66,57.43a2.06,2.06,0,0,1-1.4.47A1.65,1.65,0,0,1,359.12,56,2.07,2.07,0,0,1,358.66,57.43Z"/></g><path class="cls-5" d="M349.28,104.79V83H148a21.65,21.65,0,0,0-21.65,21.65"/><path class="cls-19" d="M246.85,28.79a4.73,4.73,0,0,0-4.73,4.73h9.47A4.73,4.73,0,0,0,246.85,28.79Z"/><path class="cls-19" d="M258.1,25a8.58,8.58,0,0,0-8.58,8.58h17.15A8.58,8.58,0,0,0,258.1,25Z"/><path class="cls-19" d="M269.79,29.19a4.34,4.34,0,0,0-4.34,4.34h8.69A4.34,4.34,0,0,0,269.79,29.19Z"/><path class="cls-19" d="M302.54,13.29A4.73,4.73,0,0,0,297.81,18h9.47A4.73,4.73,0,0,0,302.54,13.29Z"/><path class="cls-19" d="M313.8,9.45A8.58,8.58,0,0,0,305.22,18h17.15A8.58,8.58,0,0,0,313.8,9.45Z"/><path class="cls-19" d="M328.34,10.83A7.19,7.19,0,0,0,321.14,18h14.38A7.19,7.19,0,0,0,328.34,10.83Z"/><path class="cls-20" d="M306.41,81.82H294a11.43,11.43,0,0,0-7.22-20.29H200.55a11.43,11.43,0,0,0,0,22.86H207a3.47,3.47,0,0,1,2.39,6.07c-2.13,2.13-5.14,5-5.14,7.5,0,5.18,4.46,6.72,7.52,6.72h39.39"/><path class="cls-21" d="M297.11,68.47a6.94,6.94,0,0,0-6.94-6.94H220.91A6.94,6.94,0,0,0,214,68.47h0a6.94,6.94,0,0,0,6.94,6.94h69.25a6.94,6.94,0,0,0,6.94-6.94h0Z"/><path class="cls-21" d="M233,75.42a6.75,6.75,0,0,1,6.75-6.75h33.55a6.75,6.75,0,0,1,6.75,6.75h0a6.75,6.75,0,0,1-6.75,6.75H239.8A6.75,6.75,0,0,1,233,75.42h0Z"/><path class="cls-21" d="M197.33,78a4.21,4.21,0,0,1,4.21-4.21h6.25A4.21,4.21,0,0,1,212,78h0a4.21,4.21,0,0,1-4.21,4.21h-6.25A4.21,4.21,0,0,1,197.33,78h0Z"/><path class="cls-21" d="M231.12,94.37a5.67,5.67,0,0,1,5.67-5.67h28.16a5.67,5.67,0,0,1,5.67,5.67h0a5.67,5.67,0,0,1-5.67,5.67H236.79a5.67,5.67,0,0,1-5.67-5.67h0Z"/><path class="cls-6" d="M289.77,61.53"/><path class="cls-4" d="M321.59,38.75a41.55,41.55,0,0,0-7.65-.7h-1.53a41.55,41.55,0,0,0-7.65.7c-20.6,3.85-34.33,22.84-49,39.47-12.45,14.13-25.57,26.57-44.15,26.57H370.57V78.22C355.92,61.58,342.19,42.59,321.59,38.75Z"/><path class="cls-4" d="M304.8,38.75a41.55,41.55,0,0,1,7.65-.7H314a41.55,41.55,0,0,1,7.65.7c20.6,3.85,34.33,22.84,49,39.47,12.45,14.13,25.57,26.57,44.16,26.57H255.82V78.22C270.47,61.58,284.2,42.59,304.8,38.75Z"/><polygon class="cls-15" points="157.88 72.68 164.2 55.59 170.51 72.68 157.88 72.68"/><polygon class="cls-15" points="158.14 64.13 164.46 47.05 170.77 64.13 158.14 64.13"/><rect class="cls-16" x="163.68" y="61.43" width="1.08" height="18.67"/><g class="cls-17"><path class="cls-18" d="M166.95,71a1.7,1.7,0,0,1-.54,1.09,1.36,1.36,0,0,1,0-2.18A1.7,1.7,0,0,1,166.95,71Z"/><path class="cls-18" d="M168.11,59.35a1.7,1.7,0,0,1-.54,1.09,1.36,1.36,0,0,1,0-2.18A1.7,1.7,0,0,1,168.11,59.35Z"/><path class="cls-18" d="M163.8,58.65a1.7,1.7,0,0,1-.39-1.16A1.36,1.36,0,0,1,165,59,1.7,1.7,0,0,1,163.8,58.65Z"/><path class="cls-18" d="M164.36,50.89a1.7,1.7,0,0,1-.54,1.09,1.36,1.36,0,0,1,0-2.18A1.7,1.7,0,0,1,164.36,50.89Z"/><path class="cls-18" d="M160.09,70.68a1.7,1.7,0,0,1-.54,1.09,1.36,1.36,0,0,1,0-2.18A1.7,1.7,0,0,1,160.09,70.68Z"/><path class="cls-18" d="M162.43,67.89a1.7,1.7,0,0,1,.38,1.16,1.36,1.36,0,0,1-1.54-1.54A1.7,1.7,0,0,1,162.43,67.89Z"/><path class="cls-18" d="M161.88,71.14a1.7,1.7,0,0,1,1.16-.38,1.36,1.36,0,0,1-1.54,1.54A1.7,1.7,0,0,1,161.88,71.14Z"/><path class="cls-18" d="M163,65.54a1.7,1.7,0,0,1-1.16.39,1.36,1.36,0,0,1,1.54-1.54A1.7,1.7,0,0,1,163,65.54Z"/><path class="cls-18" d="M162,63.17a1.7,1.7,0,0,1-.54,1.09,1.36,1.36,0,0,1,0-2.18A1.7,1.7,0,0,1,162,63.17Z"/><path class="cls-18" d="M166.51,67.47a1.7,1.7,0,0,1-1.16.38,1.36,1.36,0,0,1,1.54-1.54A1.7,1.7,0,0,1,166.51,67.47Z"/><path class="cls-18" d="M161.88,57.17a1.7,1.7,0,0,1-1.16.39A1.36,1.36,0,0,1,162.27,56,1.7,1.7,0,0,1,161.88,57.17Z"/><path class="cls-18" d="M165.64,53.89a1.7,1.7,0,0,1-.38-1.16,1.36,1.36,0,0,1,1.54,1.54A1.7,1.7,0,0,1,165.64,53.89Z"/><path class="cls-18" d="M168.11,70a1.7,1.7,0,0,1-1.09-.54,1.36,1.36,0,0,1,2.18,0A1.7,1.7,0,0,1,168.11,70Z"/><path class="cls-18" d="M165.58,63.3a1.7,1.7,0,0,1,.54-1.09,1.36,1.36,0,0,1,0,2.18A1.7,1.7,0,0,1,165.58,63.3Z"/><path class="cls-18" d="M168.76,62.62a1.7,1.7,0,0,1-1.09-.54,1.36,1.36,0,0,1,2.18,0A1.7,1.7,0,0,1,168.76,62.62Z"/><path class="cls-18" d="M163,54.48a1.7,1.7,0,0,1-.38-1.16,1.36,1.36,0,0,1,1.54,1.54A1.7,1.7,0,0,1,163,54.48Z"/><path class="cls-18" d="M165.58,57.1a1.7,1.7,0,0,1-1.09-.55,1.36,1.36,0,0,1,2.18,0A1.7,1.7,0,0,1,165.58,57.1Z"/><path class="cls-18" d="M161.43,60.82a1.7,1.7,0,0,1-1.16.38,1.36,1.36,0,0,1,1.54-1.54A1.7,1.7,0,0,1,161.43,60.82Z"/></g><path class="cls-4" d="M142.29,91.84a1.56,1.56,0,0,1-1.57-2.25l8.8-23.8c0.46-1.24,1.21-1.24,1.66,0l8.8,23.8a1.56,1.56,0,0,1-1.57,2.25H142.29Z"/><rect class="cls-22" x="149.8" y="76.36" width="1.12" height="22.17"/><g class="cls-17"><path class="cls-22" d="M152.86,87.65a1.71,1.71,0,0,1-.55,1.1,1.37,1.37,0,0,1,0-2.2A1.71,1.71,0,0,1,152.86,87.65Z"/><path class="cls-22" d="M157.55,88.95a1.71,1.71,0,0,1-1.16.39,1.37,1.37,0,0,1,1.55-1.55A1.71,1.71,0,0,1,157.55,88.95Z"/><path class="cls-22" d="M152.58,76.85a1.71,1.71,0,0,1-.55,1.1,1.37,1.37,0,0,1,0-2.2A1.71,1.71,0,0,1,152.58,76.85Z"/><path class="cls-22" d="M149.95,75.1a1.71,1.71,0,0,1-.39-1.16,1.37,1.37,0,0,1,1.55,1.55A1.71,1.71,0,0,1,149.95,75.1Z"/><path class="cls-22" d="M155.18,82.27a1.71,1.71,0,0,1,.39,1.16A1.37,1.37,0,0,1,154,81.88,1.71,1.71,0,0,1,155.18,82.27Z"/><path class="cls-22" d="M144.56,88.53a1.71,1.71,0,0,1-.55,1.1,1.37,1.37,0,0,1,0-2.2A1.71,1.71,0,0,1,144.56,88.53Z"/><path class="cls-22" d="M148.5,85.5a1.71,1.71,0,0,1,.39,1.16,1.37,1.37,0,0,1-1.55-1.55A1.71,1.71,0,0,1,148.5,85.5Z"/><path class="cls-22" d="M145.49,83a1.71,1.71,0,0,1,.39,1.16,1.37,1.37,0,0,1-1.55-1.55A1.71,1.71,0,0,1,145.49,83Z"/><path class="cls-22" d="M147.72,89a1.71,1.71,0,0,1,1.16-.39,1.37,1.37,0,0,1-1.55,1.55A1.71,1.71,0,0,1,147.72,89Z"/><path class="cls-22" d="M148.33,83.36a1.71,1.71,0,0,1-1.16.39,1.37,1.37,0,0,1,1.55-1.55A1.71,1.71,0,0,1,148.33,83.36Z"/><path class="cls-22" d="M146.75,81a1.71,1.71,0,0,1-.55,1.1,1.37,1.37,0,0,1,0-2.2A1.71,1.71,0,0,1,146.75,81Z"/><path class="cls-22" d="M153,84.55a1.71,1.71,0,0,1-1.16.39,1.37,1.37,0,0,1,1.55-1.55A1.71,1.71,0,0,1,153,84.55Z"/><path class="cls-22" d="M145.65,86.8a1.71,1.71,0,0,1-1.1-.55,1.37,1.37,0,0,1,2.2,0A1.71,1.71,0,0,1,145.65,86.8Z"/><path class="cls-22" d="M151.8,74a1.71,1.71,0,0,1-1.1-.55,1.37,1.37,0,0,1,2.2,0A1.71,1.71,0,0,1,151.8,74Z"/><path class="cls-22" d="M148.16,76a1.71,1.71,0,0,1-1.16.39,1.37,1.37,0,0,1,1.55-1.55A1.71,1.71,0,0,1,148.16,76Z"/><path class="cls-22" d="M150.58,69.76a1.71,1.71,0,0,1-.39-1.16,1.37,1.37,0,0,1,1.55,1.55A1.71,1.71,0,0,1,150.58,69.76Z"/><path class="cls-22" d="M155.57,86.43a1.71,1.71,0,0,1-1.1-.55,1.37,1.37,0,0,1,2.2,0A1.71,1.71,0,0,1,155.57,86.43Z"/><path class="cls-22" d="M152,81.09a1.71,1.71,0,0,1,.55-1.1,1.37,1.37,0,0,1,0,2.2A1.71,1.71,0,0,1,152,81.09Z"/><path class="cls-22" d="M153.68,79.58a1.71,1.71,0,0,1-1.1-.55,1.37,1.37,0,0,1,2.2,0A1.71,1.71,0,0,1,153.68,79.58Z"/><path class="cls-22" d="M149.87,72.14a1.72,1.72,0,0,1-1.1-.55,1.37,1.37,0,0,1,2.2,0A1.71,1.71,0,0,1,149.87,72.14Z"/><path class="cls-22" d="M147.94,78.24a1.71,1.71,0,0,1-1.1-.55,1.37,1.37,0,0,1,2.2,0A1.71,1.71,0,0,1,147.94,78.24Z"/><path class="cls-22" d="M148.94,80.25a1.71,1.71,0,0,1-1.16.39,1.37,1.37,0,0,1,1.55-1.55A1.71,1.71,0,0,1,148.94,80.25Z"/></g><path class="cls-23" d="M262.41,80.69l2.45,2.45A2.45,2.45,0,0,0,262.41,80.69Z"/><path class="cls-23" d="M264.94,83.13l2.45-2.45A2.45,2.45,0,0,0,264.94,83.13Z"/><path class="cls-23" d="M319.71,68.95l2,2A2,2,0,0,0,319.71,68.95Z"/><path class="cls-23" d="M321.75,70.93l2-2A2,2,0,0,0,321.75,70.93Z"/><path class="cls-24" d="M372.32,68.33l2,2A2,2,0,0,0,372.32,68.33Z"/><path class="cls-24" d="M374.36,70.31l2-2A2,2,0,0,0,374.36,70.31Z"/><path class="cls-25" d="M349,97.21l1.5,1.5A1.5,1.5,0,0,0,349,97.21Z"/><path class="cls-25" d="M350.51,98.7l1.5-1.5A1.5,1.5,0,0,0,350.51,98.7Z"/><path class="cls-26" d="M203.68,96.06a1.57,1.57,0,0,0-1.57,1.57h3.14A1.57,1.57,0,0,0,203.68,96.06Z"/><path class="cls-26" d="M197.38,65.46a1.11,1.11,0,0,0-1.11,1.11h2.21A1.11,1.11,0,0,0,197.38,65.46Z"/><path class="cls-26" d="M207.28,99.2a1,1,0,0,0-1,1h2.07A1,1,0,0,0,207.28,99.2Z"/><g class="cls-10"><circle class="cls-5" cx="288.48" cy="56.3" r="0.7"/><circle class="cls-5" cx="291.06" cy="56.3" r="0.7"/><circle class="cls-5" cx="289.77" cy="54.21" r="0.7"/></g><g class="cls-9"><circle class="cls-27" cx="169.48" cy="96.2" r="0.7"/><circle class="cls-27" cx="172.06" cy="96.2" r="0.7"/><circle class="cls-27" cx="170.77" cy="94.11" r="0.7"/></g><path class="cls-24" d="M162.54,87.07l1.77,1.77A1.77,1.77,0,0,0,162.54,87.07Z"/><path class="cls-24" d="M164.46,88.83l1.77-1.77A1.77,1.77,0,0,0,164.46,88.83Z"/><path class="cls-28" d="M296.25,81.51a3.91,3.91,0,0,0-3.91,3.91h7.82A3.91,3.91,0,0,0,296.25,81.51Z"/><path class="cls-29" d="M399.16,91A3.91,3.91,0,0,0,395.25,95h7.81A3.91,3.91,0,0,0,399.16,91Z"/><path class="cls-28" d="M278.26,83.86a1.69,1.69,0,0,0-1.69,1.69H280A1.69,1.69,0,0,0,278.26,83.86Z"/><path class="cls-30" d="M330.95,91.55a4.41,4.41,0,0,0-1.44-1A4.4,4.4,0,0,0,324.73,84,4.4,4.4,0,0,0,317,81.49,4.4,4.4,0,0,0,309.26,84a4.4,4.4,0,0,0-4.78,6.59,4.4,4.4,0,0,0,1.66,8.47h21.7A4.4,4.4,0,0,0,330.95,91.55Z"/><g class="cls-9"><path class="cls-22" d="M322.93,95.35a2.82,2.82,0,0,1-.91,1.81,2.26,2.26,0,0,1,0-3.62A2.82,2.82,0,0,1,322.93,95.35Z"/><path class="cls-22" d="M328.91,96a2.82,2.82,0,0,1-1.92.64,2.26,2.26,0,0,1,2.56-2.56A2.82,2.82,0,0,1,328.91,96Z"/><path class="cls-22" d="M326.29,86.38a2.82,2.82,0,0,1,.64,1.92,2.26,2.26,0,0,1-2.56-2.56A2.82,2.82,0,0,1,326.29,86.38Z"/><path class="cls-22" d="M311.76,94.67a2.82,2.82,0,0,1,.64,1.92A2.26,2.26,0,0,1,309.84,94,2.82,2.82,0,0,1,311.76,94.67Z"/><path class="cls-22" d="M307.5,95.31a2.82,2.82,0,0,1-.9,1.81,2.26,2.26,0,0,1,0-3.62A2.82,2.82,0,0,1,307.5,95.31Z"/><path class="cls-22" d="M314,90.3a2.82,2.82,0,0,1,.64,1.92,2.26,2.26,0,0,1-2.56-2.56A2.83,2.83,0,0,1,314,90.3Z"/><path class="cls-22" d="M309,86.26a2.82,2.82,0,0,1,.64,1.92,2.26,2.26,0,0,1-2.56-2.56A2.82,2.82,0,0,1,309,86.26Z"/><path class="cls-22" d="M316.55,93.73a2.82,2.82,0,0,1,1.92-.64,2.26,2.26,0,0,1-2.56,2.56A2.82,2.82,0,0,1,316.55,93.73Z"/><path class="cls-22" d="M314.35,85.65a2.82,2.82,0,0,1-1.92.64A2.26,2.26,0,0,1,315,83.73,2.82,2.82,0,0,1,314.35,85.65Z"/><path class="cls-22" d="M321.82,90a2.82,2.82,0,0,1-1.92.64,2.26,2.26,0,0,1,2.56-2.56A2.82,2.82,0,0,1,321.82,90Z"/><path class="cls-22" d="M309.31,93.13a2.82,2.82,0,0,1-1.81-.91,2.26,2.26,0,0,1,3.62,0A2.82,2.82,0,0,1,309.31,93.13Z"/><path class="cls-22" d="M325.65,91.84a2.82,2.82,0,0,1-1.81-.91,2.26,2.26,0,0,1,3.62,0A2.82,2.82,0,0,1,325.65,91.84Z"/><path class="cls-22" d="M319.5,84.2a2.82,2.82,0,0,1,.91-1.81,2.26,2.26,0,0,1,0,3.62A2.82,2.82,0,0,1,319.5,84.2Z"/><path class="cls-22" d="M317,88.18a2.82,2.82,0,0,1-1.81-.91,2.26,2.26,0,0,1,3.62,0A2.82,2.82,0,0,1,317,88.18Z"/></g><g class="cls-31"><path class="cls-30" d="M299.51,70.06a3.68,3.68,0,0,0-1.21-.8,3.67,3.67,0,0,0-4-5.5,3.68,3.68,0,0,0-6.47-2.11,3.68,3.68,0,0,0-6.47,2.1,3.68,3.68,0,0,0-4,5.51,3.67,3.67,0,0,0,1.39,7.08h18.13A3.68,3.68,0,0,0,299.51,70.06Z"/><g class="cls-9"><path class="cls-22" d="M292.81,73.24a2.36,2.36,0,0,1-.76,1.51,1.89,1.89,0,0,1,0-3A2.36,2.36,0,0,1,292.81,73.24Z"/><path class="cls-22" d="M297.81,73.77a2.36,2.36,0,0,1-1.6.53,1.89,1.89,0,0,1,2.14-2.14A2.36,2.36,0,0,1,297.81,73.77Z"/><path class="cls-22" d="M295.62,65.73a2.36,2.36,0,0,1,.53,1.6A1.89,1.89,0,0,1,294,65.2,2.36,2.36,0,0,1,295.62,65.73Z"/><path class="cls-22" d="M283.47,72.66a2.36,2.36,0,0,1,.53,1.6,1.89,1.89,0,0,1-2.14-2.14A2.36,2.36,0,0,1,283.47,72.66Z"/><path class="cls-22" d="M279.91,73.2a2.36,2.36,0,0,1-.76,1.51,1.89,1.89,0,0,1,0-3A2.36,2.36,0,0,1,279.91,73.2Z"/><path class="cls-22" d="M285.34,69a2.36,2.36,0,0,1,.54,1.6,1.89,1.89,0,0,1-2.14-2.14A2.36,2.36,0,0,1,285.34,69Z"/><path class="cls-22" d="M281.2,65.64a2.36,2.36,0,0,1,.53,1.6,1.89,1.89,0,0,1-2.14-2.14A2.36,2.36,0,0,1,281.2,65.64Z"/><path class="cls-22" d="M287.48,71.87a2.36,2.36,0,0,1,1.6-.53,1.89,1.89,0,0,1-2.14,2.14A2.36,2.36,0,0,1,287.48,71.87Z"/><path class="cls-22" d="M285.64,65.13a2.36,2.36,0,0,1-1.6.53,1.89,1.89,0,0,1,2.14-2.14A2.36,2.36,0,0,1,285.64,65.13Z"/><path class="cls-22" d="M291.88,68.78a2.36,2.36,0,0,1-1.6.53,1.89,1.89,0,0,1,2.14-2.14A2.36,2.36,0,0,1,291.88,68.78Z"/><path class="cls-22" d="M281.43,71.37a2.36,2.36,0,0,1-1.51-.76,1.89,1.89,0,0,1,3,0A2.36,2.36,0,0,1,281.43,71.37Z"/><path class="cls-22" d="M295.09,70.3a2.36,2.36,0,0,1-1.51-.76,1.89,1.89,0,0,1,3,0A2.36,2.36,0,0,1,295.09,70.3Z"/><path class="cls-22" d="M289.94,63.92a2.36,2.36,0,0,1,.76-1.51,1.89,1.89,0,0,1,0,3A2.36,2.36,0,0,1,289.94,63.92Z"/><path class="cls-22" d="M287.87,67.24a2.36,2.36,0,0,1-1.51-.76,1.89,1.89,0,0,1,3,0A2.36,2.36,0,0,1,287.87,67.24Z"/></g></g><path class="cls-5" d="M312.21,56.56a1.54,1.54,0,0,1-1.53-2.24l13.54-35c0.48-1.23,1.26-1.23,1.73,0l13.54,35A1.54,1.54,0,0,1,338,56.56H312.21Z"/><rect class="cls-22" x="324.3" y="34.96" width="1.57" height="30.94"/><g class="cls-17"><path class="cls-22" d="M328.57,50.72a1,1,0,1,1-.77-1.53A2.39,2.39,0,0,1,328.57,50.72Z"/><path class="cls-22" d="M335.11,52.53a2.39,2.39,0,0,1-1.62.54,1.91,1.91,0,0,1,2.17-2.17A2.39,2.39,0,0,1,335.11,52.53Z"/><path class="cls-22" d="M328.18,35.65a1,1,0,1,1-1.53,0A1,1,0,1,1,328.18,35.65Z"/><path class="cls-22" d="M324.51,33.21a2.39,2.39,0,0,1-.54-1.62,1.91,1.91,0,0,1,2.17,2.17A2.39,2.39,0,0,1,324.51,33.21Z"/><path class="cls-22" d="M331.81,43.2a2.39,2.39,0,0,1,.54,1.62,1.91,1.91,0,0,1-2.17-2.17A2.39,2.39,0,0,1,331.81,43.2Z"/><path class="cls-22" d="M317,51.95a2.39,2.39,0,0,1-.77,1.53,1.91,1.91,0,0,1,0-3.06A2.39,2.39,0,0,1,317,51.95Z"/><path class="cls-22" d="M322.49,47.71a2.39,2.39,0,0,1,.54,1.62,1.91,1.91,0,0,1-2.17-2.17A2.39,2.39,0,0,1,322.49,47.71Z"/><path class="cls-22" d="M318.29,44.29a2.39,2.39,0,0,1,.54,1.62,1.91,1.91,0,0,1-2.17-2.17A2.39,2.39,0,0,1,318.29,44.29Z"/><path class="cls-22" d="M321.4,52.6a2.39,2.39,0,0,1,1.62-.54,1.91,1.91,0,0,1-2.17,2.17A2.39,2.39,0,0,1,321.4,52.6Z"/><path class="cls-22" d="M322.25,44.73a2.39,2.39,0,0,1-1.62.54,1.91,1.91,0,0,1,2.17-2.17A2.39,2.39,0,0,1,322.25,44.73Z"/><path class="cls-22" d="M320.05,41.38a2.39,2.39,0,0,1-.77,1.53,2.39,2.39,0,0,1-.77-1.53,2.39,2.39,0,0,1,.77-1.53A2.39,2.39,0,0,1,320.05,41.38Z"/><path class="cls-22" d="M328.72,46.39a2.39,2.39,0,0,1-1.62.54,1.91,1.91,0,0,1,2.17-2.17A2.39,2.39,0,0,1,328.72,46.39Z"/><path class="cls-22" d="M318.52,49.52a2.39,2.39,0,0,1-1.53-.77,1.92,1.92,0,0,1,3.06,0A2.39,2.39,0,0,1,318.52,49.52Z"/><path class="cls-22" d="M327.1,31.7a2.39,2.39,0,0,1-1.53-.77,1.91,1.91,0,0,1,3.06,0A2.39,2.39,0,0,1,327.1,31.7Z"/><path class="cls-22" d="M322,34.48a2.39,2.39,0,0,1-1.62.54,1.91,1.91,0,0,1,2.17-2.17A2.39,2.39,0,0,1,322,34.48Z"/><path class="cls-22" d="M325.39,25.76a2.39,2.39,0,0,1-.54-1.62,2.39,2.39,0,0,1,1.62.54A2.39,2.39,0,0,1,327,26.3,2.39,2.39,0,0,1,325.39,25.76Z"/><path class="cls-22" d="M332.35,49a2.39,2.39,0,0,1-1.53-.77,1.91,1.91,0,0,1,3.06,0A2.39,2.39,0,0,1,332.35,49Z"/><path class="cls-22" d="M331.12,52.79a2.39,2.39,0,0,1-1.62.54,1.92,1.92,0,0,1,2.17-2.17A2.39,2.39,0,0,1,331.12,52.79Z"/><path class="cls-22" d="M327.41,41.57a1,1,0,1,1,1.53,0A1,1,0,1,1,327.41,41.57Z"/><path class="cls-22" d="M329.71,39.46a2.39,2.39,0,0,1-1.53-.77,1.92,1.92,0,0,1,3.06,0A2.39,2.39,0,0,1,329.71,39.46Z"/><path class="cls-22" d="M324.4,29.08a2.39,2.39,0,0,1-1.53-.77,1.92,1.92,0,0,1,3.06,0A2.39,2.39,0,0,1,324.4,29.08Z"/><path class="cls-22" d="M321.71,37.59a2.39,2.39,0,0,1-1.53-.77,1.92,1.92,0,0,1,3.06,0A2.39,2.39,0,0,1,321.71,37.59Z"/><path class="cls-22" d="M323.1,40.39a2.39,2.39,0,0,1-1.62.54,1.92,1.92,0,0,1,2.17-2.17A2.39,2.39,0,0,1,323.1,40.39Z"/></g><path class="cls-22" d="M328.88,83a1.56,1.56,0,0,1-1.57-2.25l18.47-50c0.46-1.24,1.21-1.24,1.66,0l18.47,50A1.56,1.56,0,0,1,364.35,83H328.88Z"/><rect class="cls-32" x="345.66" y="55.21" width="1.91" height="46.12"/><g class="cls-17"><path class="cls-33" d="M351.75,76a3.49,3.49,0,0,1-1.12,2.24,2.8,2.8,0,0,1,0-4.47A3.49,3.49,0,0,1,351.75,76Z"/><path class="cls-33" d="M361.31,78.63a3.48,3.48,0,0,1-2.37.79,2.79,2.79,0,0,1,3.16-3.16A3.48,3.48,0,0,1,361.31,78.63Z"/><path class="cls-33" d="M351.18,54a3.49,3.49,0,0,1-1.12,2.24A3.49,3.49,0,0,1,348.95,54a3.49,3.49,0,0,1,1.12-2.24A3.49,3.49,0,0,1,351.18,54Z"/><path class="cls-33" d="M345.83,50.42A3.49,3.49,0,0,1,345,48a2.79,2.79,0,0,1,3.16,3.16A3.49,3.49,0,0,1,345.83,50.42Z"/><path class="cls-33" d="M356.49,65a3.49,3.49,0,0,1,.79,2.37,2.8,2.8,0,0,1-3.16-3.16A3.49,3.49,0,0,1,356.49,65Z"/><path class="cls-33" d="M334.84,77.78A3.49,3.49,0,0,1,333.72,80a2.8,2.8,0,0,1,0-4.47A3.49,3.49,0,0,1,334.84,77.78Z"/><path class="cls-33" d="M342.87,71.59a3.49,3.49,0,0,1,.79,2.37,2.8,2.8,0,0,1-3.16-3.16A3.49,3.49,0,0,1,342.87,71.59Z"/><path class="cls-33" d="M336.75,66.6a3.49,3.49,0,0,1,.79,2.37,2.8,2.8,0,0,1-3.16-3.16A3.49,3.49,0,0,1,336.75,66.6Z"/><path class="cls-33" d="M341.28,78.74a3.48,3.48,0,0,1,2.37-.79,2.8,2.8,0,0,1-3.16,3.16A3.49,3.49,0,0,1,341.28,78.74Z"/><path class="cls-33" d="M342.53,67.24a3.48,3.48,0,0,1-2.37.79,2.8,2.8,0,0,1,3.16-3.16A3.48,3.48,0,0,1,342.53,67.24Z"/><path class="cls-33" d="M339.31,62.36a3.49,3.49,0,0,1-1.12,2.24,3.48,3.48,0,0,1-1.12-2.24,3.49,3.49,0,0,1,1.12-2.24A3.49,3.49,0,0,1,339.31,62.36Z"/><path class="cls-33" d="M352,69.67a3.49,3.49,0,0,1-2.37.79,2.8,2.8,0,0,1,3.16-3.16A3.49,3.49,0,0,1,352,69.67Z"/><path class="cls-33" d="M337.08,74.24a3.49,3.49,0,0,1-2.24-1.12,2.8,2.8,0,0,1,4.47,0A3.49,3.49,0,0,1,337.08,74.24Z"/><path class="cls-33" d="M349.6,48.22a3.49,3.49,0,0,1-2.24-1.12,2.8,2.8,0,0,1,4.47,0A3.49,3.49,0,0,1,349.6,48.22Z"/><path class="cls-33" d="M342.18,52.28a3.49,3.49,0,0,1-2.37.79A2.8,2.8,0,0,1,343,49.91,3.49,3.49,0,0,1,342.18,52.28Z"/><path class="cls-33" d="M347.11,39.54a3.48,3.48,0,0,1-.79-2.37,3.49,3.49,0,0,1,2.37.79,3.49,3.49,0,0,1,.79,2.37A3.49,3.49,0,0,1,347.11,39.54Z"/><path class="cls-33" d="M357.28,73.5A3.49,3.49,0,0,1,355,72.38a2.8,2.8,0,0,1,4.47,0A3.49,3.49,0,0,1,357.28,73.5Z"/><path class="cls-33" d="M350.07,62.63a3.49,3.49,0,0,1,1.12-2.24,3.49,3.49,0,0,1,1.12,2.24,3.49,3.49,0,0,1-1.12,2.24A3.49,3.49,0,0,1,350.07,62.63Z"/><path class="cls-33" d="M353.42,59.54a3.49,3.49,0,0,1-2.24-1.12,2.8,2.8,0,0,1,4.47,0A3.49,3.49,0,0,1,353.42,59.54Z"/><path class="cls-33" d="M345.66,44.38a3.49,3.49,0,0,1-2.24-1.12,2.8,2.8,0,0,1,4.47,0A3.49,3.49,0,0,1,345.66,44.38Z"/><path class="cls-33" d="M341.74,56.82a3.49,3.49,0,0,1-2.24-1.12,2.8,2.8,0,0,1,4.47,0A3.49,3.49,0,0,1,341.74,56.82Z"/><path class="cls-33" d="M343.77,60.91a3.49,3.49,0,0,1-2.37.79,2.8,2.8,0,0,1,3.16-3.16A3.49,3.49,0,0,1,343.77,60.91Z"/></g></g><rect class="cls-34" x="175.41" y="113.14" width="48.79" height="1.59" rx="0.79" ry="0.79"/><path class="cls-35" d="M198,41.31c-2,0-4.93,0-5.8,3.55-1.09,4.45-3.28,5.32-3.28,5.32s4.38,0.67,6.06-2.44,1-4.57,3-4.57V41.31Z"/><rect class="cls-36" x="198.01" y="41.31" width="1.54" height="1.86"/><path class="cls-37" d="M183.69,53.78a2.45,2.45,0,0,0,.92,4.81l13.14-1.37V49.68Z"/><polygon class="cls-38" points="199.01 49.2 192.02 51.35 192.69 57.75 197.76 57.24 199.01 49.2"/><path class="cls-37" d="M187.22,57l0-.08a2.81,2.81,0,0,0-5.39-1.48,2.32,2.32,0,0,0-.17.68l-1.15,12.48h0l-0.1,1.07a1.92,1.92,0,0,0,0,.2q-0.08,1-.24,2.69s-0.23,1.31.44,1.53a0.83,0.83,0,0,0,.37,0,0.64,0.64,0,0,0,.39.44,0.7,0.7,0,0,0,.63,0,0.64,0.64,0,0,0,.39.43,0.68,0.68,0,0,0,.74-0.13,0.54,0.54,0,0,0,.27.2,0.68,0.68,0,0,0,.9-0.36c0-.07.32-2,0.5-3.24,1.25,0.64,1.37-.34,1.37-0.34L184,69l3.2-12h0Z"/><path class="cls-37" d="M227.49,48.81a0.84,0.84,0,0,0-.23-0.29,0.64,0.64,0,0,0,0-.58,0.71,0.71,0,0,0-.46-0.41v0a0.63,0.63,0,0,0,0-.56,0.68,0.68,0,0,0-.62-0.43,0.54,0.54,0,0,0,0-.33,0.68,0.68,0,0,0-.89-0.38c-0.08,0-1.69,1.22-2.68,2-0.43-1.36-1.21-.74-1.21-0.74v3.27l-8.48,10.12,0,0-0.05.07a2.81,2.81,0,0,0,4.26,3.62,2.33,2.33,0,0,0,.44-0.54l6.25-10.72A27.91,27.91,0,0,0,227,50h0A1.12,1.12,0,0,0,227.49,48.81Z"/><polyline class="cls-37" points="204.94 53.71 205.86 49.2 201.82 46.56 200.16 50.69"/><path class="cls-37" d="M204.49,35a5.81,5.81,0,0,0-5.76,6.08,6.67,6.67,0,0,0,2.51,5.31c1.34,1.09,4.34,4.11,4.34,4.11,0.2-1,.53-1.19,1.19-1.19H208a1.54,1.54,0,0,0,1.62-1.62l0.29-2h0.56a0.46,0.46,0,0,0,.45-0.72,3.26,3.26,0,0,1-.69-1.86c0-1,0-2,0-2A5.88,5.88,0,0,0,204.49,35Z"/><path class="cls-37" d="M210.26,41.14s0,0,0,0,0,0,0,0S210.26,41.13,210.26,41.14Z"/><polygon class="cls-37" points="210.26 41.14 210.26 41.14 210.26 41.14 210.26 41.14"/><path class="cls-37" d="M210.26,41.14s0,0,0,0h0Z"/><path class="cls-37" d="M210.26,41.14h0S210.26,41.13,210.26,41.14Z"/><path class="cls-37" d="M210.26,41.14h0S210.26,41.14,210.26,41.14Z"/><path class="cls-35" d="M210.26,41.1A5.88,5.88,0,0,0,204.49,35a5.81,5.81,0,0,0-5.76,6.08,7.1,7.1,0,0,0,2.46,5.54c0.14,0.11,1.55,1.48,1.61.4,0-.3,0-1,0-2a2,2,0,0,1-1.45-1.94c0-1.07,1.13-1.84,1.54-.94,0,0,.49,1.09.68,1.53a0.45,0.45,0,0,0,.85-0.21s0-.27,0-3C204.43,38.59,205.46,41.1,210.26,41.1Zm-7.33,0,0,0Z"/><polygon class="cls-37" points="210.09 41.02 210.09 41.03 210.09 41.03 210.09 41.02"/><path class="cls-37" d="M210.09,41s0,0,0,0h0Z"/><path class="cls-37" d="M210.09,41h0Z"/><path class="cls-37" d="M210.09,41h0S210.09,41,210.09,41Z"/><path class="cls-37" d="M214.31,91.59h-6s0,0,0,0h0l1.79,18.63a2.23,2.23,0,0,0,2,2.26,2.09,2.09,0,0,0,2.22-2.18V91.59Z"/><path class="cls-37" d="M200.19,75.16l-3.82,3.7S195,80.35,195,80.36h0l-1.17.91,16.76,14c1.07,1,1.73-.45,2.86-1.41s1.08-2.58,0-3.82Z"/><path class="cls-39" d="M192.22,71.31c-2,4.38-3.42,7.49.64,10.76l12.91,9.16,4.17-5.2-8.33-9.27S193.45,72,192.22,71.31Z"/><path class="cls-37" d="M213.9,64.68a2.45,2.45,0,0,0,2.75-4.05L206.38,52.3l0,0-4.16,5.94Z"/><path class="cls-37" d="M182.33,94.55c-0.54,1.34,2,.69,3.25,1.49a2.63,2.63,0,0,0,3.6-1.27l2.14-3.55-6.43-2.84Z"/><path class="cls-40" d="M192.21,70.89s0,0,0,0h0L184.9,88.38l6.43,3,9.48-17.23Z"/><path class="cls-37" d="M186.78,96.37v-6s0,0,0,0h0v0l-18.63,1.79a2.23,2.23,0,0,0-2.26,2,2.09,2.09,0,0,0,2.18,2.22h18.7Z"/><polyline class="cls-36" points="203.53 59.03 208.78 61.86 211.67 56.59 207.03 52.76"/><path class="cls-41" d="M193.84,57.47"/><path class="cls-36" d="M191.54,72.4l1.5-4a35,35,0,0,0,1.51-5.61l1.64-10a5.13,5.13,0,0,1,3.12-3.73,5.53,5.53,0,0,1,4.82,1.09l0.68,0.6,2.63,2.34c0.25,0.22-.41,1.65-0.42,3.26l0.08,4.28c0,1.61.13,2.79-.69,3.61-0.62.62-1.69,1.1-2.11,2.65l-2.68,9.85"/><path class="cls-42" d="M198,49"/><path class="cls-40" d="M188.14,80.58l-3.24,7.79,6.43,3,2.92-5.3-3.84-2.68A7.08,7.08,0,0,1,188.14,80.58Z"/><rect class="cls-43" x="222.15" y="49.91" width="0.81" height="3.72" transform="translate(57.22 209.49) rotate(-56.75)"/><path class="cls-44" d="M214.32,58.74"/><path class="cls-45" d="M206.4,64.26c0.68-.68.7-2.1,0.69-3.31l-4.89-2.68-3.3,17.32,2.71,1.18,2.68-9.85C204.72,65.36,205.78,64.87,206.4,64.26Z"/><path class="cls-46" d="M221.46,111.56l-5.31-1.93,0.07-.1a1,1,0,0,0-1.44-1.44l-1.36,1.37c-0.82.79-.78,0.93-1.72,0.93h-1.61v2.85H223.8C223.58,112.66,222.92,112.13,221.46,111.56Z"/><path class="cls-47" d="M212.48,111.2h-2.39v2h5.19A3,3,0,0,0,212.48,111.2Z"/><path class="cls-48" d="M223.8,113.23H210.09v1.4h13.73A2.64,2.64,0,0,0,223.8,113.23Z"/><path class="cls-46" d="M162.49,101.28l4.33-3.63,0,0.11a1,1,0,0,0,2-.53l-0.5-1.86c-0.27-1.1-.42-1.14.05-2l0.8-1.39-2.44-1.41h0l-6.85,11.88C160.47,102.57,161.26,102.26,162.49,101.28Z"/><path class="cls-47" d="M167.29,93.68l1.19-2.07-1.73-1h0l-2.59,4.49A3,3,0,0,0,167.29,93.68Z"/><path class="cls-48" d="M159.87,102.47l6.85-11.88-1.21-.7-6.86,11.89A2.64,2.64,0,0,0,159.87,102.47Z"/><rect class="cls-49" x="75.61" y="113.07" width="48.79" height="1.59" rx="0.79" ry="0.79"/><polygon class="cls-50" points="104.05 45.1 102.51 48.92 107.45 52.12 108.3 47.94 104.05 45.1"/><path class="cls-51" d="M107,34.78a5.37,5.37,0,0,0-5.33,5.63A6.17,6.17,0,0,0,104,45.32c1.24,1,4.14,3.29,4.14,3.29h2.71a1.5,1.5,0,0,0,1.5-1.5V44.69H113a0.43,0.43,0,0,0,.4-0.64l-1-1.86v-1.7A5.44,5.44,0,0,0,107,34.78Z"/><path class="cls-37" d="M112.37,40.48h0s0,0,0,0S112.37,40.47,112.37,40.48Z"/><path class="cls-52" d="M105.52,44.09A2.17,2.17,0,0,1,104.13,42c0-1,1.21-1.64,1.66-.54l0.46,1.17a0.73,0.73,0,0,0,1.42-.31c-0.07-1.5-.19-2.91-0.24-3.84-0.07-1.4,1.32-1.54,2.4-.46a3.34,3.34,0,0,0,2.35,1,5.35,5.35,0,0,0-4.33-4.14l-0.34,0h-0.09l-0.4,0a5.37,5.37,0,0,0-5.33,5.63A6.17,6.17,0,0,0,104,45.32l1.5,1.2V44.09Z"/><path class="cls-51" d="M122.26,45v3.85l1.41-2.62C123.24,44.21,122.26,45,122.26,45Z"/><path class="cls-51" d="M122.23,48.91l2.63,2.31a29.83,29.83,0,0,0,3.38-3.08c1.18-1.18-1-4.58-2.09-4.13C125.08,45,123,45.43,122.23,48.91Z"/><path class="cls-51" d="M114.26,90.5h-6.08s0,0,0,0h0L110,109.43a2.27,2.27,0,0,0,2,2.29,2.12,2.12,0,0,0,2.26-2.22v-19Z"/><path class="cls-51" d="M99.91,73.82L96,77.58s-1.4,1.51-1.4,1.52h0L93.45,80l17,14.24c1.09,1,1.75-.46,2.9-1.43s1.1-2.63,0-3.88Z"/><path class="cls-53" d="M109.93,108.64v5.68h13.8s1.2-2-2.28-3.06a55.89,55.89,0,0,1-6.62-2.62h-4.9Z"/><path class="cls-53" d="M116.45,107.42a1,1,0,0,0-1.46,0l-1.36,1.36a1,1,0,0,0,0,1.46h0a1,1,0,0,0,1.46,0l1.36-1.36a1,1,0,0,0,0-1.46h0Z"/><path class="cls-47" d="M112.35,110.9h-2.42v3.31h5.4v-0.33A3,3,0,0,0,112.35,110.9Z"/><path class="cls-48" d="M123.86,113H109.93v1.78h13.94A4.4,4.4,0,0,0,123.86,113Z"/><path class="cls-39" d="M91.82,69.91c-2,4.45-3.47,7.61.65,10.93l13.11,9.31,4.23-5.28-8-9.16S93.06,70.64,91.82,69.91Z"/><path class="cls-51" d="M80.87,54a3,3,0,0,1,5.76,1.58l0,0.09h0L82.87,69.72c-0.22,1-.65,1.74-1.68,1.65a2,2,0,0,1-1.84-2.21l1.33-14.49A2.49,2.49,0,0,1,80.87,54Z"/><path class="cls-51" d="M82.84,52.15a2.62,2.62,0,0,0,1,5.14l14.05-1.47V47.77Z"/><polygon class="cls-38" points="97.9 47.75 91.74 49.55 92.46 56.39 97.88 55.85 97.9 47.75"/><path class="cls-51" d="M117.7,63.27a3,3,0,0,1-4.55-3.87l0.06-.07,0,0,9.37-11.17c0.62-.79,1.33-1.31,2.22-0.79a2,2,0,0,1,.73,2.78l-7.33,12.56A2.48,2.48,0,0,1,117.7,63.27Z"/><path class="cls-51" d="M114.23,63.86a2.62,2.62,0,0,0,2.94-4.33l-11-8.9,0,0L101.73,57Z"/><path class="cls-51" d="M81.77,93.51c-0.55,1.36,2,.7,3.3,1.51s2.84,0.13,3.66-1.29l2.17-3.61-6.53-2.88Z"/><path class="cls-40" d="M91.8,69.47s0,0,0,0h0L84.38,87.24l6.53,3,9.63-17.5Z"/><path class="cls-51" d="M86.29,95.36V89.28s0,0,0,0h0v0L67.37,91.07a2.27,2.27,0,0,0-2.29,2,2.12,2.12,0,0,0,2.22,2.26h19Z"/><polyline class="cls-36" points="106.77 59.77 108.75 60.86 111.85 55.22 106.88 51.13"/><path class="cls-53" d="M69.1,90.74L64.18,87.9l-6.9,12s1.11,2,3.8-.45A55.9,55.9,0,0,1,66.65,95Z"/><path class="cls-53" d="M66.89,97a1,1,0,0,0,.73-1.26l-0.5-1.85a1,1,0,0,0-1.26-.73h0a1,1,0,0,0-.73,1.26l0.5,1.85a1,1,0,0,0,1.26.73h0Z"/><path class="cls-47" d="M65.94,91.71l1.21-2.1-2.58-1.49L64.28,88l-2.7,4.68,0.29,0.17A3,3,0,0,0,65.94,91.71Z"/><path class="cls-48" d="M58.4,100.65l7-12.06-1.54-.89-7,12.08A4.4,4.4,0,0,0,58.4,100.65Z"/><path class="cls-41" d="M93.46,55.85"/><path class="cls-36" d="M102.14,76l6-20,0.9-3,0-.07s0,0,0,0-1-1-2.24-2l-2.91-2.56a5.81,5.81,0,0,0-5.05-1.05L98,47.64a4.89,4.89,0,0,0-3.1,3.86L94,61.27A26.5,26.5,0,0,1,92.65,67l-1.52,4"/><path class="cls-42" d="M97.71,47.25"/><path class="cls-40" d="M87.67,79.33l-3.29,7.91,6.53,3,3-5.38L90,82.18A7.19,7.19,0,0,1,87.67,79.33Z"/><rect class="cls-54" x="123.05" y="48.08" width="0.87" height="3.98" transform="translate(13.91 125.88) rotate(-56.75)"/><path class="cls-54" d="M124.91,51.92a0.4,0.4,0,0,1-.22-0.06l-3.33-2.18a0.4,0.4,0,0,1-.11-0.55l0.48-.73a0.4,0.4,0,0,1,.55-0.11l3.33,2.18a0.4,0.4,0,0,1,.11.55l-0.48.73a0.4,0.4,0,0,1-.25.17h-0.08Zm-2.78-2.69L124.8,51l0-.06-2.66-1.75Z"/><path class="cls-44" d="M114.69,57.51"/><path class="cls-50" d="M114.69,57.51l1,0.82a1,1,0,0,0,1.6-.54L120.14,51Z"/><g class="cls-10"><polygon class="cls-38" points="101.73 57 100.4 75.23 102.14 76.03 107.05 59.8 101.73 57"/></g><path class="cls-51" d="M85.48,70.69L82.76,68l0.85,2.85C85.34,71.94,85.48,70.69,85.48,70.69Z"/><path class="cls-51" d="M82.73,67.89L79.46,68s-0.11,1.44-.38,4.33C78.92,74,83,75.21,83.43,74.13,83.67,72,84.68,70.87,82.73,67.89Z"/><path class="cls-51" d="M79.09,72.25s-0.25,1.4.47,1.64a0.73,0.73,0,0,0,1-.38"/><path class="cls-51" d="M79.9,72.77s-0.25,1.4.47,1.64a0.73,0.73,0,0,0,1-.38"/><path class="cls-51" d="M81,73.18s-0.25,1.4.46,1.64a0.73,0.73,0,0,0,1-.38"/><path class="cls-51" d="M82.07,73.25s-0.25,1.4.46,1.64a0.73,0.73,0,0,0,1-.38c0.06-.11.68-4.53,0.68-4.53"/><path class="cls-51" d="M127.94,48.39s1.16-.82.83-1.49a0.73,0.73,0,0,0-.95-0.41"/><path class="cls-51" d="M127.73,47.45s1.16-.82.83-1.49a0.73,0.73,0,0,0-.95-0.41"/><path class="cls-51" d="M127.25,46.39s1.16-.82.83-1.49a0.73,0.73,0,0,0-.95-0.41"/><path class="cls-51" d="M126.54,45.57s1.16-.82.83-1.49a0.73,0.73,0,0,0-.95-0.41c-0.13,0-3.69,2.72-3.69,2.72"/><rect class="cls-55" x="112.51" y="113.12" width="48.79" height="1.59" rx="0.79" ry="0.79"/><polygon class="cls-56" points="139.04 44.85 137.47 48.75 142.51 52.01 143.38 47.75 139.04 44.85"/><path class="cls-57" d="M142.09,34.31a5.49,5.49,0,0,0-5.45,5.75,6.3,6.3,0,0,0,2.37,5c1.26,1,4.23,3.36,4.23,3.36H146a1.54,1.54,0,0,0,1.53-1.53V44.43h0.65a0.44,0.44,0,0,0,.41-0.66l-1.06-1.9V40.13A5.56,5.56,0,0,0,142.09,34.31Z"/><path class="cls-37" d="M147.55,40.13h0s0,0,0,0h0Z"/><path class="cls-57" d="M116.74,93.3c-0.55,1.37,2,.77,3.33,1.53s2.87,0.13,3.69-1.31l2.2-3.64L119.37,87Z"/><path class="cls-58" d="M126.86,69s0,0,0,0h0l-7.46,18L126,90l9.73-17.67Z"/><path class="cls-57" d="M151.21,90.26h-6.14s0,0,0,0h0l1.84,19.11a2.29,2.29,0,0,0,2.06,2.31,2.14,2.14,0,0,0,2.28-2.24V90.26Z"/><path class="cls-57" d="M135.22,73.42l-5.32,5.32s0,0,0,0h0l0,0,17.87,16.46c1.1,1,1.41-1.63,2.58-2.61s1.11-2.65,0-3.92Z"/><path class="cls-59" d="M146.83,108.58v5.74h13.94s1.21-2-2.31-3.09a56.38,56.38,0,0,1-6.68-2.64h-4.95Z"/><path class="cls-59" d="M153.43,107.35a1,1,0,0,0-1.47,0l-1.37,1.37a1,1,0,0,0,0,1.47h0a1,1,0,0,0,1.47,0l1.37-1.37a1,1,0,0,0,0-1.47h0Z"/><path class="cls-60" d="M149.28,110.86h-2.44v3.35h5.46v-0.34A3,3,0,0,0,149.28,110.86Z"/><path class="cls-48" d="M160.9,112.93H146.83v1.79h14.08A4.44,4.44,0,0,0,160.9,112.93Z"/><path class="cls-57" d="M121.21,95.14V89s0,0,0,0h0v0L102.1,90.81a2.29,2.29,0,0,0-2.31,2.06A2.14,2.14,0,0,0,102,95.16h19.18Z"/><path class="cls-59" d="M103.94,90.5l-5-2.87L92,99.7s1.12,2,3.83-.45a56.45,56.45,0,0,1,5.63-4.47Z"/><path class="cls-59" d="M101.71,96.83a1,1,0,0,0,.74-1.28l-0.5-1.87a1,1,0,0,0-1.28-.74h0a1,1,0,0,0-.74,1.28l0.5,1.87a1,1,0,0,0,1.28.74h0Z"/><path class="cls-60" d="M100.74,91.48L102,89.36l-2.61-1.51-0.29-.17-2.73,4.73,0.29,0.17A3,3,0,0,0,100.74,91.48Z"/><path class="cls-48" d="M93.13,100.51l7-12.18-1.55-.9-7,12.2A4.44,4.44,0,0,0,93.13,100.51Z"/><path class="cls-56" d="M153,62.75a3,3,0,0,1-4.6-3.91l0.06-.07,0,0,9.46-11.29c0.62-.8,1.34-1.32,2.24-0.79a2.05,2.05,0,0,1,.74,2.81l-7.41,12.69A2.49,2.49,0,0,1,153,62.75Z"/><path class="cls-56" d="M149.52,63.36a2.65,2.65,0,0,0,3-4.38L141.4,50l0,0-4.49,6.41Z"/><path class="cls-61" d="M128.54,55.26"/><path class="cls-62" d="M126.2,70.66l2.06-5.53a10,10,0,0,0,.52-2.9V50a2.24,2.24,0,0,1,1.42-2l5.23-1.78a2.83,2.83,0,0,1,2.53.52l5.18,4.64,1.15,1a0.11,0.11,0,0,1,0,.1l-0.47,1.5-7,22.43"/><polygon class="cls-36" points="148.85 35.1 148.85 35.1 148.85 35.1 148.85 35.1"/><polygon class="cls-36" points="142.65 35.92 142.65 35.92 142.65 35.92 142.65 35.92"/><polygon class="cls-36" points="148.01 35.1 148.01 35.1 148.01 35.1 148.01 35.1"/><polygon class="cls-36" points="141.81 35.92 141.81 35.92 141.81 35.92 141.81 35.92"/><path class="cls-63" d="M136.65,38.42v3.12c0,2,1.69,3.76,3.61,4.78V34.81A3.61,3.61,0,0,0,136.65,38.42Z"/><path class="cls-64" d="M129.47,72.45l2.85-6a7.93,7.93,0,0,0,.64-2.85v-15a1,1,0,0,0-1.42-1L130.2,48a2.24,2.24,0,0,0-1.42,2v12.2a10,10,0,0,1-.52,2.9l-2.06,5.53"/><path class="cls-42" d="M132.83,46.58"/><polyline class="cls-63" points="141.19 39.62 143.07 41.51 143.07 39.62"/><path class="cls-57" d="M115.83,53.35a3,3,0,0,1,5.82,1.6l0,0.09h0l-3.8,14.23c-0.23,1-.66,1.76-1.69,1.67a2.05,2.05,0,0,1-1.85-2.23l1.35-14.63A2.51,2.51,0,0,1,115.83,53.35Z"/><path class="cls-57" d="M117.81,51.53a2.65,2.65,0,0,0,1,5.19L133,55.24V47.1Z"/><path class="cls-65" d="M126.87,68.92c-2.06,4.49-3.49,7.56.67,10.91L141.95,89.9l4.27-5.33-9.08-9.25S128.12,69.67,126.87,68.92Z"/><path class="cls-57" d="M158.29,42.89v3.89l1.42-2.64C159.29,42.1,158.29,42.89,158.29,42.89Z"/><path class="cls-57" d="M158.26,46.85l2.66,2.34a30.14,30.14,0,0,0,3.41-3.11c1.19-1.19-1-4.63-2.11-4.17C161.14,42.92,159,43.34,158.26,46.85Z"/><rect class="cls-54" x="159.23" y="46.28" width="0.88" height="4.02" transform="translate(31.74 155.34) rotate(-56.75)"/><path class="cls-58" d="M161.11,50.16a0.4,0.4,0,0,1-.22-0.07l-3.36-2.2a0.4,0.4,0,0,1-.12-0.56l0.48-.74a0.4,0.4,0,0,1,.55-0.12l3.36,2.2a0.4,0.4,0,0,1,.12.55l-0.48.74a0.4,0.4,0,0,1-.25.17h-0.08Zm-2.8-2.72L161,49.2l0-.07-2.69-1.76Z"/><path class="cls-57" d="M120.57,69.32l-2.75-2.75,0.86,2.87C120.42,70.58,120.57,69.32,120.57,69.32Z"/><path class="cls-57" d="M117.79,66.49l-3.31.13s-0.11,1.45-.39,4.38c-0.16,1.67,3.95,2.88,4.39,1.79C118.74,70.6,119.76,69.5,117.79,66.49Z"/><path class="cls-57" d="M114.11,70.9s-0.25,1.41.47,1.65a0.74,0.74,0,0,0,1-.38"/><path class="cls-57" d="M114.9,71.36s-0.25,1.41.47,1.65a0.74,0.74,0,0,0,1-.38"/><path class="cls-57" d="M116,71.84s-0.25,1.41.47,1.65a0.74,0.74,0,0,0,1-.38"/><path class="cls-57" d="M117.12,71.91s-0.25,1.41.47,1.65a0.74,0.74,0,0,0,1-.38c0.07-.11.69-4.58,0.69-4.58"/><path class="cls-57" d="M164,46.32s1.18-.83.84-1.5a0.74,0.74,0,0,0-1-.41"/><path class="cls-57" d="M163.81,45.38s1.18-.82.84-1.5a0.74,0.74,0,0,0-1-.41"/><path class="cls-57" d="M163.33,44.3s1.18-.82.84-1.5a0.74,0.74,0,0,0-1-.41"/><path class="cls-57" d="M162.61,43.48s1.18-.83.84-1.5a0.74,0.74,0,0,0-1-.41c-0.13,0-3.72,2.75-3.72,2.75"/><path class="cls-58" d="M147.55,37.15a5.62,5.62,0,0,0-10.9,0h10.9Z"/><rect class="cls-58" x="136.65" y="37.15" width="10.9" height="2.48"/><path class="cls-58" d="M143.07,38.39h7.13a0.62,0.62,0,0,1,.62.62v0a0.62,0.62,0,0,1-.62.62h-7.13a0,0,0,0,1,0,0V38.39A0,0,0,0,1,143.07,38.39Z"/></g></g></svg>