<svg id="step_challenge" xmlns="http://www.w3.org/2000/svg" viewBox="0 0 64 64"><defs><style>.cls-1{fill:#fff;}.cls-2{fill:none;opacity:0.25;}.cls-3{fill:#3a96dd;}.cls-4{fill:#0078d7;}.cls-5{fill:#0061a3;}.cls-6{fill:#e3e3e3;}</style></defs><title>step_challenge_64x64</title><rect class="cls-1" width="64" height="64"/><rect class="cls-2" width="64" height="64" rx="0.65" ry="0.65"/><rect class="cls-3" x="23.98" y="32.69" width="12.08" height="4.51" rx="1.54" ry="1.54"/><path class="cls-4" d="M53.07,37.54L39.48,32.59l0.19-.25A2.61,2.61,0,0,0,36,28.66l-3.49,3.5c-2.09,2-2,2.38-4.4,2.38H24v7.29H59.06C58.49,40.37,56.81,39,53.07,37.54Z"/><path class="cls-5" d="M30.1,36.63H24v5.2H37.26A7.54,7.54,0,0,0,30.1,36.63Z"/><path class="cls-6" d="M59.06,41.82H24v3.59H59.1A6.74,6.74,0,0,0,59.06,41.82Z"/><path class="cls-3" d="M39.48,32.6l-1.18,1.17a1.25,1.25,0,0,0,.6,2.14l8.36,2.71a1.81,1.81,0,0,0,2.32-1.08L50,36.42Z"/><circle class="cls-5" cx="39" cy="40.41" r="0.65" transform="translate(-12.31 63.25) rotate(-70.01)"/><circle class="cls-5" cx="41.33" cy="40.41" r="0.65" transform="translate(-10.78 65.43) rotate(-70)"/><rect class="cls-3" x="21.42" y="19.22" width="12.08" height="4.51" rx="1.54" ry="1.54" transform="translate(-7.14 17.21) rotate(-31)"/><path class="cls-4" d="M9,35.56l9.1-11.24-0.29-.12a2.61,2.61,0,0,1,1.26-5.06l4.79,1.2c2.84,0.65,2.93,1,5-.22L32.43,18l3.72,6.19,0,0.06L6.11,42.32C5.85,40.78,6.59,38.75,9,35.56Z"/><path class="cls-5" d="M28.27,23l5.24-3.15,2.64,4.39,0,0.06L24.8,31.09A7.54,7.54,0,0,1,28.27,23Z"/><path class="cls-6" d="M6.11,42.32L36.18,24.26,38,27.33,7.93,45.42A6.74,6.74,0,0,1,6.11,42.32Z"/><path class="cls-3" d="M18.15,24.32l1.62,0.39a1.25,1.25,0,0,1,.59,2.14l-5.77,6.63a1.81,1.81,0,0,1-2.54.27L11.12,33Z"/><circle class="cls-5" cx="22.58" cy="30.78" r="0.65" transform="translate(-15.55 28.96) rotate(-51.01)"/><circle class="cls-5" cx="20.59" cy="31.98" r="0.65" transform="translate(-17.22 27.85) rotate(-51)"/></svg>