<svg id="run_challenge" data-name="run challenge" xmlns="http://www.w3.org/2000/svg" viewBox="0 0 64 64"><defs><style>.cls-1{fill:none;opacity:0.25;}.cls-2{fill:#b06f42;}.cls-3{fill:#b47243;}.cls-4{fill:#f7b189;}.cls-5{fill:#825230;}.cls-6{fill:#006cb6;}.cls-7{fill:#0061a3;}.cls-8{fill:#e3e3e3;}.cls-9{fill:#003961;}.cls-10{fill:#ff9e00;}.cls-11{fill:#00487a;}.cls-12{fill:#ffb800;}.cls-13{fill:#fff;stroke:#000;stroke-miterlimit:10;stroke-width:5px;}.cls-14{fill:#ffd594;}.cls-15{fill:#11255e;}.cls-16{fill:#9c633a;}.cls-17{opacity:0.3;}</style></defs><title>run_challenge_64x64</title><rect class="cls-1" width="64" height="64" rx="0.65" ry="0.65"/><polygon class="cls-2" points="36.4 16.05 35.54 18.19 38.3 19.97 38.78 17.64 36.4 16.05"/><path class="cls-3" d="M38.07,10.27a3,3,0,0,0-3,3.15,3.45,3.45,0,0,0,1.3,2.75C37.08,16.73,38.7,18,38.7,18h1.52a0.84,0.84,0,0,0,.84-0.84V15.82h0.36a0.24,0.24,0,0,0,.22-0.36l-0.58-1v-1A3,3,0,0,0,38.07,10.27Z"/><path class="cls-4" d="M41.06,13.46h0s0,0,0,0S41.06,13.46,41.06,13.46Z"/><path class="cls-5" d="M37.23,15.48a1.21,1.21,0,0,1-.78-1.19c0-.57.67-0.91,0.93-0.3l0.26,0.65a0.41,0.41,0,0,0,.8-0.17c0-.84-0.11-1.63-0.13-2.15,0-.78.74-0.86,1.34-0.26a1.87,1.87,0,0,0,1.32.55,3,3,0,0,0-2.43-2.31l-0.19,0H38.07a3,3,0,0,0-3,3.15,3.45,3.45,0,0,0,1.3,2.75l0.84,0.67V15.48Z"/><path class="cls-3" d="M46.59,16v2.15l0.79-1.46C47.14,15.55,46.59,16,46.59,16Z"/><path class="cls-3" d="M46.57,18.18L48,19.47a16.69,16.69,0,0,0,1.89-1.72c0.66-.66-0.57-2.56-1.17-2.31C48.17,16,47,16.23,46.57,18.18Z"/><path class="cls-3" d="M42.11,41.45h-3.4s0,0,0,0h0l1,10.59a1.27,1.27,0,0,0,1.14,1.28,1.19,1.19,0,0,0,1.26-1.24V41.45Z"/><path class="cls-3" d="M34.09,32.11l-2.17,2.1s-0.78.84-.78,0.85h0l-0.66.52,9.52,8c0.61,0.55,1-.26,1.62-0.8a1.45,1.45,0,0,0,0-2.17Z"/><path class="cls-6" d="M39.69,51.59v3.18h7.72s0.67-1.1-1.28-1.71a31.27,31.27,0,0,1-3.7-1.46H39.69Z"/><path class="cls-6" d="M43.34,50.91a0.58,0.58,0,0,0-.82,0l-0.76.76a0.58,0.58,0,0,0,0,.82h0a0.58,0.58,0,0,0,.82,0l0.76-.76a0.58,0.58,0,0,0,0-.82h0Z"/><path class="cls-7" d="M41,52.86H39.69v1.85h3V54.52A1.67,1.67,0,0,0,41,52.86Z"/><path class="cls-8" d="M47.48,54H39.69v1h7.8A2.46,2.46,0,0,0,47.48,54Z"/><path class="cls-9" d="M29.56,29.92c-1.14,2.49-1.94,4.26.36,6.11l7.34,5.21,2.37-3-4.48-5.12Z"/><path class="cls-3" d="M23.44,21a1.68,1.68,0,0,1,3.22.89v0.05h0l-2.11,7.88a0.92,0.92,0,0,1-.94.92,1.14,1.14,0,0,1-1-1.24l0.75-8.1A1.39,1.39,0,0,1,23.44,21Z"/><path class="cls-3" d="M24.54,20a1.47,1.47,0,0,0,.55,2.88L32.95,22V17.54Z"/><polygon class="cls-10" points="32.96 17.53 29.52 18.54 29.92 22.36 32.95 22.06 32.96 17.53"/><path class="cls-3" d="M44,26.21A1.68,1.68,0,0,1,41.49,24l0,0h0l5.24-6.25A0.92,0.92,0,0,1,48,17.3a1.14,1.14,0,0,1,.41,1.55l-4.1,7A1.39,1.39,0,0,1,44,26.21Z"/><path class="cls-3" d="M42.1,26.54a1.47,1.47,0,0,0,1.64-2.42l-6.14-5h0L35.11,22.7Z"/><path class="cls-3" d="M23.94,43.13c-0.31.76,1.14,0.39,1.85,0.85a1.49,1.49,0,0,0,2-.72l1.22-2L25.4,39.62Z"/><path class="cls-11" d="M29.55,29.68s0,0,0,0h0L25.4,39.62l3.65,1.7,5.39-9.79Z"/><path class="cls-3" d="M26.47,44.17v-3.4s0,0,0,0h0l-10.59,1a1.27,1.27,0,0,0-1.28,1.14,1.19,1.19,0,0,0,1.24,1.26H26.47Z"/><polyline class="cls-12" points="37.92 24.25 39.03 24.86 40.77 21.7 37.99 19.42"/><path class="cls-6" d="M16.85,41.58L14.1,40l-3.86,6.69s0.62,1.13,2.12-.25A31.28,31.28,0,0,1,15.48,44Z"/><path class="cls-6" d="M15.62,45.08A0.58,0.58,0,0,0,16,44.38l-0.28-1A0.58,0.58,0,0,0,15,42.93h0a0.58,0.58,0,0,0-.41.71l0.28,1a0.58,0.58,0,0,0,.71.41h0Z"/><path class="cls-7" d="M15.08,42.12l0.68-1.17-1.45-.83L14.15,40l-1.51,2.62,0.16,0.09A1.67,1.67,0,0,0,15.08,42.12Z"/><path class="cls-8" d="M10.86,47.12l3.9-6.75-0.86-.5L10,46.63A2.46,2.46,0,0,0,10.86,47.12Z"/><path class="cls-13" d="M30.48,22.06"/><path class="cls-12" d="M35.34,33.35l3.38-11.17,0.5-1.66v0s0,0,0,0-0.57-.54-1.25-1.14L36.33,17.9a3.25,3.25,0,0,0-2.83-.59L33,17.47a2.74,2.74,0,0,0-1.74,2.16l-0.52,5.46A14.82,14.82,0,0,1,30,28.3l-0.85,2.25"/><path class="cls-14" d="M32.86,17.25"/><path class="cls-11" d="M27.24,35.19L25.4,39.62l3.65,1.7,1.66-3-2.18-1.52A4,4,0,0,1,27.24,35.19Z"/><rect class="cls-15" x="47.03" y="17.71" width="0.49" height="2.23" transform="translate(5.61 48.04) rotate(-56.75)"/><path class="cls-15" d="M48.07,19.86a0.22,0.22,0,0,1-.12,0L46.09,18.6A0.22,0.22,0,0,1,46,18.3l0.27-.41a0.22,0.22,0,0,1,.31-0.06L48.46,19a0.22,0.22,0,0,1,.06.31l-0.27.41a0.22,0.22,0,0,1-.14.1h0Zm-1.55-1.51,1.49,1,0,0-1.49-1Z"/><path class="cls-16" d="M42.35,23"/><path class="cls-2" d="M42.35,23l0.56,0.46a0.57,0.57,0,0,0,.89-0.3l1.6-3.79Z"/><g class="cls-17"><polygon class="cls-10" points="35.1 22.7 34.36 32.91 35.34 33.35 38.08 24.27 35.1 22.7"/></g><path class="cls-3" d="M26,30.36l-1.52-1.52L25,30.43C25.93,31.06,26,30.36,26,30.36Z"/><path class="cls-3" d="M24.48,28.8l-1.83.07s-0.06.81-.21,2.43c-0.09.93,2.19,1.59,2.43,1C25,31.07,25.57,30.46,24.48,28.8Z"/><path class="cls-3" d="M22.44,31.24a0.91,0.91,0,0,0,.26.92,0.41,0.41,0,0,0,.54-0.21"/><path class="cls-3" d="M22.89,31.53a0.91,0.91,0,0,0,.26.92,0.41,0.41,0,0,0,.54-0.21"/><path class="cls-3" d="M23.5,31.76a0.91,0.91,0,0,0,.26.92,0.41,0.41,0,0,0,.54-0.21"/><path class="cls-3" d="M24.11,31.8a0.91,0.91,0,0,0,.26.92,0.41,0.41,0,0,0,.54-0.21c0-.06.38-2.53,0.38-2.53"/><path class="cls-3" d="M49.77,17.89a0.91,0.91,0,0,0,.46-0.83,0.41,0.41,0,0,0-.53-0.23"/><path class="cls-3" d="M49.65,17.36a0.91,0.91,0,0,0,.46-0.83,0.41,0.41,0,0,0-.53-0.23"/><path class="cls-3" d="M49.38,16.77a0.91,0.91,0,0,0,.46-0.83,0.41,0.41,0,0,0-.53-0.23"/><path class="cls-3" d="M49,16.31a0.91,0.91,0,0,0,.46-0.83,0.41,0.41,0,0,0-.53-0.23c-0.07,0-2.06,1.52-2.06,1.52"/></svg>