<svg xmlns="http://www.w3.org/2000/svg" xmlns:xlink="http://www.w3.org/1999/xlink" viewBox="0 0 360 216"><defs><style>.cls-1{isolation:isolate;}.cls-2,.cls-7{fill:none;}.cls-10,.cls-3{fill:#202020;}.cls-12,.cls-3{opacity:0.1;}.cls-3{mix-blend-mode:multiply;}.cls-4{fill:#353535;}.cls-5{fill:#0078d7;}.cls-12,.cls-6{fill:#fff;}.cls-7{stroke:#fff;stroke-linecap:round;stroke-linejoin:round;stroke-width:2px;}.cls-8{fill:url(#linear-gradient);}.cls-9{fill:url(#linear-gradient-2);}.cls-11{fill:#b7b7b7;}</style><linearGradient id="linear-gradient" x1="92.28" y1="162.6" x2="135.47" y2="205.8" gradientUnits="userSpaceOnUse"><stop offset="0" stop-color="#898989"/><stop offset="0.83" stop-color="#181818"/></linearGradient><linearGradient id="linear-gradient-2" x1="115.15" y1="139.73" x2="158.34" y2="182.93" xlink:href="#linear-gradient"/></defs><title>error_state_360x216ep</title><g class="cls-1"><g id="Layer_1" data-name="Layer 1"><rect class="cls-2" width="360" height="216"/><rect class="cls-3" x="218.64" y="189.92" width="97.63" height="3.08" rx="1.54" ry="1.54"/><rect class="cls-4" x="220.21" y="24.7" width="94.5" height="166.05" rx="7.5" ry="7.5"/><rect class="cls-4" x="314.43" y="47.67" width="1.15" height="12.67"/><rect class="cls-5" x="225.08" y="41" width="84.76" height="129.33"/><rect class="cls-6" x="256.43" y="119.4" width="3.67" height="3.67"/><rect class="cls-6" x="261.04" y="119.38" width="3.67" height="3.67"/><polygon class="cls-6" points="260.09 132.21 260.09 123.9 260.07 123.9 256.4 123.9 251.79 123.9 251.79 128.51 251.79 128.51 251.79 132.18 251.79 132.18 251.79 132.21 260.09 132.21"/><polygon class="cls-6" points="269.32 123.9 269.29 123.9 265.62 123.9 261.01 123.9 261.01 128.51 261.01 132.18 261.01 132.21 269.32 132.21 269.32 123.9"/><rect class="cls-6" x="270.24" y="123.9" width="3.67" height="3.67"/><rect class="cls-6" x="274.85" y="123.9" width="3.67" height="3.67"/><rect class="cls-6" x="279.46" y="123.9" width="3.67" height="3.67"/><polygon class="cls-6" points="278.54 128.51 278.51 128.51 274.85 128.51 270.24 128.51 270.24 136.81 278.54 136.81 278.54 136.81 278.56 136.81 278.56 133.14 278.54 133.14 278.54 128.51"/><rect class="cls-6" x="279.46" y="128.51" width="3.67" height="3.67"/><rect class="cls-6" x="270.26" y="119.39" width="3.67" height="3.67"/><rect class="cls-6" x="274.87" y="119.37" width="3.67" height="3.67"/><rect class="cls-6" x="256.45" y="133.14" width="3.67" height="3.67"/><polygon class="cls-6" points="265.67 133.14 261.06 133.14 261.06 137.63 261.03 137.63 261.03 141.3 261.06 141.3 261.06 141.41 269.33 141.41 269.33 136.81 269.34 136.81 269.34 133.14 269.33 133.14 265.67 133.14"/><rect class="cls-6" x="270.18" y="137.69" width="3.67" height="3.67"/><rect class="cls-6" x="265.62" y="142.31" width="3.67" height="3.67"/><polyline class="cls-7" points="291.07 104.07 288.67 101.67 286.26 104.07 283.86 100.86 279.86 105.67 274.26 93.66 270.26 100.86 266.26 88.86 263.86 96.86 256.65 70.05 250.25 102.47 247.05 97.66 243.85 102.47"/><rect class="cls-3" x="43" y="189.92" width="149.04" height="3.08" rx="1.54" ry="1.54"/><path class="cls-4" d="M171.48,140.84h0A20.56,20.56,0,0,1,192,161.4v7.19a20.56,20.56,0,0,1-20.56,20.56h0a0,0,0,0,1,0,0V140.84A0,0,0,0,1,171.48,140.84Z"/><path class="cls-4" d="M43,140.84h0A20.56,20.56,0,0,1,63.58,161.4v7.19A20.56,20.56,0,0,1,43,189.15h0a0,0,0,0,1,0,0V140.84a0,0,0,0,1,0,0Z" transform="translate(106.61 329.99) rotate(180)"/><rect x="63.58" y="143.41" width="107.92" height="43.17"/><rect class="cls-8" x="63.58" y="186.58" width="107.92" height="2.57"/><rect class="cls-9" x="63.58" y="140.84" width="107.92" height="2.57"/><rect class="cls-10" x="76.43" y="148.55" width="82.23" height="32.89"/><circle class="cls-10" cx="165.39" cy="164.91" r="1.28"/><path class="cls-11" d="M107.27,189.15h20.56a0,0,0,0,1,0,0v0.06a2,2,0,0,1-2,2H109.27a2,2,0,0,1-2-2v-0.06A0,0,0,0,1,107.27,189.15Z"/><path class="cls-11" d="M148.38,189.15h10.28a0,0,0,0,1,0,0v0a2.06,2.06,0,0,1-2.06,2.06h-6.17a2.06,2.06,0,0,1-2.06-2.06v0A0,0,0,0,1,148.38,189.15Z"/><rect class="cls-5" x="77.18" y="149.4" width="23.92" height="31.2"/><rect class="cls-5" x="102" y="149.4" width="31.2" height="31.2"/><rect class="cls-5" x="134" y="149.4" width="23.9" height="31.2"/><rect class="cls-6" x="110.4" y="157.54" width="2.39" height="2.39"/><rect class="cls-6" x="113.41" y="157.52" width="2.39" height="2.39"/><polygon class="cls-6" points="112.79 165.89 112.79 160.47 112.78 160.47 110.38 160.47 107.37 160.47 107.37 163.48 107.37 163.48 107.37 165.87 107.37 165.87 107.37 165.89 112.79 165.89"/><polygon class="cls-6" points="118.81 160.47 118.79 160.47 116.4 160.47 113.39 160.47 113.39 163.48 113.39 165.87 113.39 165.89 118.81 165.89 118.81 160.47"/><rect class="cls-6" x="119.41" y="160.47" width="2.39" height="2.39"/><rect class="cls-6" x="122.42" y="160.47" width="2.39" height="2.39"/><rect class="cls-6" x="125.43" y="160.47" width="2.39" height="2.39"/><polygon class="cls-6" points="124.83 163.48 124.81 163.48 122.42 163.48 119.41 163.48 119.41 168.89 124.83 168.89 124.83 168.89 124.84 168.89 124.84 166.5 124.83 166.5 124.83 163.48"/><rect class="cls-6" x="125.43" y="163.48" width="2.39" height="2.39"/><rect class="cls-6" x="119.43" y="157.53" width="2.39" height="2.39"/><rect class="cls-6" x="122.44" y="157.51" width="2.39" height="2.39"/><rect class="cls-6" x="110.41" y="166.5" width="2.39" height="2.39"/><polygon class="cls-6" points="116.43 166.5 113.42 166.5 113.42 169.43 113.41 169.43 113.41 171.82 113.42 171.82 113.42 171.89 118.82 171.89 118.82 168.89 118.83 168.89 118.83 166.5 118.82 166.5 116.43 166.5"/><rect class="cls-6" x="119.38" y="169.47" width="2.39" height="2.39"/><rect class="cls-6" x="116.4" y="172.48" width="2.39" height="2.39"/><polygon class="cls-12" points="225.08 41 309.83 41 225.08 133.14 225.08 41"/></g></g></svg>