<?xml version="1.0" encoding="utf-8"?>
<!-- Generator: Adobe Illustrator 19.2.1, SVG Export Plug-In . SVG Version: 6.00 Build 0)  -->
<svg version="1.1" id="Layer_1" xmlns="http://www.w3.org/2000/svg" xmlns:xlink="http://www.w3.org/1999/xlink" x="0px" y="0px"
	 viewBox="0 0 360 216" style="enable-background:new 0 0 360 216;" xml:space="preserve">
<style type="text/css">
	.st0{clip-path:url(#SVGID_2_);}
	.st1{opacity:0.25;clip-path:url(#SVGID_4_);fill:url(#SVGID_5_);}
	.st2{clip-path:url(#SVGID_2_);fill:#DCF1FC;}
	.st3{clip-path:url(#SVGID_2_);fill:#8E8E8E;}
	.st4{clip-path:url(#SVGID_2_);fill:#51AB47;}
	.st5{clip-path:url(#SVGID_2_);fill:#69BC46;}
	.st6{clip-path:url(#SVGID_2_);fill:#FFFFFF;stroke:#211F1F;stroke-width:0.5013;stroke-miterlimit:10;}
	.st7{fill:#10AA4B;stroke:#10AA4B;stroke-width:1.5038;stroke-linecap:round;stroke-linejoin:round;stroke-miterlimit:10;}
	.st8{clip-path:url(#SVGID_2_);fill:#FFFFFF;}
	.st9{fill:#FFFFFF;}
	.st10{fill:#8CC540;}
	.st11{opacity:0.2;clip-path:url(#SVGID_2_);}
	.st12{fill:#38A148;}
	.st13{fill:#B9C7CB;}
	.st14{opacity:0.5;fill:#839498;}
	.st15{opacity:0.2;}
	.st16{fill:#839498;}
	.st17{opacity:0.6;fill:#69BC46;}
	.st18{fill:#FFFFFF;stroke:#211F1F;stroke-width:0.5013;stroke-miterlimit:10;}
	.st19{fill:#50B648;stroke:#50B648;stroke-width:2.005;stroke-linecap:round;stroke-linejoin:round;stroke-miterlimit:10;}
	.st20{fill:#50B648;stroke:#50B648;stroke-width:3.5088;stroke-linecap:round;stroke-linejoin:round;stroke-miterlimit:10;}
	.st21{opacity:0.3;}
	.st22{fill:#50B648;}
	
		.st23{opacity:0.3;fill:#50B648;stroke:#50B648;stroke-width:2.005;stroke-linecap:round;stroke-linejoin:round;stroke-miterlimit:10;}
	.st24{fill:#6DB544;}
	.st25{fill:#ABABAB;}
	.st26{fill:#D1E0E8;}
	.st27{fill:#D7E1E5;}
	.st28{opacity:0.4;}
	.st29{fill:#E2E2E2;}
	.st30{fill:#A7A8AB;}
	.st31{opacity:0.2;fill:#A7A8AB;}
	.st32{fill:#C1C3C8;}
	.st33{opacity:0.3;fill:#C1C3C8;}
	.st34{fill:#C8C8C8;}
	.st35{opacity:0.3;fill:#ABABAB;}
	.st36{fill:#DBDADA;}
	.st37{fill:#808184;}
	.st38{fill:#BFBEBE;}
	.st39{fill:#F6F7F7;}
	.st40{fill:#B8B7B8;}
	.st41{fill:#E6E6E6;}
	.st42{opacity:0.4;fill:#839498;}
	.st43{fill:#CCCDCE;}
	.st44{fill:#C3C3C3;}
	.st45{fill:#B1ACAA;}
	.st46{opacity:0.3;fill:#5D6061;}
	.st47{opacity:0.3;fill:#7A7675;}
	.st48{fill:#9A9695;}
	.st49{fill:#D1D2D3;}
	.st50{fill:#7A7675;}
	.st51{opacity:0.5;fill:#E7E7E7;}
	.st52{fill:#DEDEDD;}
	.st53{fill:#E7E7E7;}
	.st54{opacity:0.25;clip-path:url(#SVGID_2_);fill:url(#SVGID_6_);}
	.st55{fill:#028E46;stroke:#028E46;stroke-width:3.5993;stroke-linecap:round;stroke-linejoin:round;stroke-miterlimit:10;}
	.st56{fill:#0E723B;}
	.st57{fill:#0E7E40;}
	.st58{clip-path:url(#SVGID_2_);fill:#CACAC9;}
	
		.st59{opacity:0.3;clip-path:url(#SVGID_2_);fill:#50B648;stroke:#50B648;stroke-width:2.7654;stroke-linecap:round;stroke-linejoin:round;stroke-miterlimit:10;}
	.st60{fill:#10AA4B;}
	.st61{fill:#544239;}
	.st62{fill:#F5AF87;}
	.st63{fill:#086DB5;}
	.st64{fill:#052A47;}
	.st65{fill:#11375C;}
	.st66{fill:#F79C6B;}
	.st67{fill:#ED4A23;}
	.st68{fill:#11426D;}
	.st69{fill:#0D497A;}
	.st70{fill:#0062A3;}
	.st71{fill:none;stroke:#0D497A;stroke-width:1.1706;stroke-linecap:round;stroke-miterlimit:10;}
	.st72{fill:#BCBDBF;stroke:#BCBDBF;stroke-width:0.9755;stroke-linecap:round;stroke-linejoin:round;stroke-miterlimit:10;}
	.st73{fill:#6F7071;}
	.st74{fill:#D54326;}
	.st75{fill:#AD3024;}
	.st76{opacity:0.25;fill:url(#SVGID_7_);}
	.st77{fill:#D98D67;}
	.st78{fill:#D18565;}
	.st79{fill:#015B70;}
	.st80{fill:#8ED1C7;}
	.st81{fill:none;stroke:#FCCA94;stroke-width:0.2581;stroke-miterlimit:10;}
	.st82{fill:#70C7B7;}
	.st83{opacity:0.1;}
	.st84{fill:#701E12;}
	.st85{fill:#5F3A16;}
	.st86{fill:#FCB614;}
	.st87{fill:#017094;}
	.st88{fill:#013F54;}
	.st89{opacity:0.25;fill:url(#SVGID_8_);}
	.st90{fill:#AF6F42;}
	.st91{fill:#B37243;}
	.st92{fill:#564235;}
	.st93{fill:#123A60;}
	.st94{fill:#F89C1C;}
	.st95{fill:#FFFFFF;stroke:#000000;stroke-width:1.5905;stroke-miterlimit:10;}
	.st96{fill:#FFD493;}
	.st97{fill:#21295C;}
	.st98{fill:#020202;}
	.st99{fill:#9B633A;}
	.st100{opacity:0.25;fill:url(#SVGID_9_);}
	.st101{fill:#EDA682;}
	.st102{fill:#114069;}
	.st103{fill:#EF5123;}
	.st104{fill:#D33F27;}
	.st105{fill:#FFFFFF;stroke:#000000;stroke-width:1.3285;stroke-miterlimit:10;}
	.st106{fill:#815331;}
	.st107{fill:#C43527;}
</style>
<g>
	<defs>
		<rect id="SVGID_1_" x="0" y="-0.4" width="359.7" height="217"/>
	</defs>
	<clipPath id="SVGID_2_">
		<use xlink:href="#SVGID_1_"  style="overflow:visible;"/>
	</clipPath>
	<g class="st0">
		<defs>
			<rect id="SVGID_3_" y="126.1" width="21" height="6.3"/>
		</defs>
		<clipPath id="SVGID_4_">
			<use xlink:href="#SVGID_3_"  style="overflow:visible;"/>
		</clipPath>
		<linearGradient id="SVGID_5_" gradientUnits="userSpaceOnUse" x1="-21.0003" y1="129.7127" x2="20.9997" y2="129.7127">
			<stop  offset="0" style="stop-color:#000000;stop-opacity:0"/>
			<stop  offset="1" style="stop-color:#000000"/>
		</linearGradient>
		<path class="st1" d="M20.5,130.2h-41c-0.3,0-0.5-0.2-0.5-0.5l0,0c0-0.3,0.2-0.5,0.5-0.5h41c0.3,0,0.5,0.2,0.5,0.5l0,0
			C21,130,20.8,130.2,20.5,130.2z"/>
	</g>
	<rect x="0" y="-0.4" class="st2" width="360" height="216.9"/>
	<rect x="98.1" y="136.3" class="st3" width="261.9" height="11.9"/>
	<rect x="100.6" y="127.6" class="st4" width="2.6" height="5.6"/>
	<rect x="91.6" y="124.3" class="st4" width="7.3" height="6.6"/>
	<polygon class="st4" points="64.1,152.4 18.8,152.4 17.1,152.4 1.8,152.4 0,152.4 0,152.4 0,92.4 0,92.4 1.8,92.4 17.1,92.4 
		18.8,92.4 64.1,92.4 	"/>
	<rect x="0" y="148.2" class="st5" width="360" height="68.3"/>
	<path class="st6" d="M118.5,92.4"/>
	<path class="st4" d="M0,126.9l0-21.2h96.8c10.9,0,19.7,9.4,19.7,21"/>
	<g class="st0">
		<path class="st7" d="M220.2,169.2l1.6,1.6C221.9,169.9,221.1,169.2,220.2,169.2z"/>
		<path class="st7" d="M222,170.8l1.6-1.6C222.7,169.2,222,169.9,222,170.8z"/>
	</g>
	<g class="st0">
		<path class="st7" d="M341.2,198.7l1.6,1.6C342.8,199.5,342.1,198.7,341.2,198.7z"/>
		<path class="st7" d="M343,200.3l1.6-1.6C343.7,198.7,343,199.5,343,200.3z"/>
	</g>
	<g class="st0">
		<path class="st7" d="M13.7,157.5l1.6,1.6C15.3,158.2,14.6,157.5,13.7,157.5z"/>
		<path class="st7" d="M15.4,159.1l1.6-1.6C16.2,157.5,15.4,158.2,15.4,159.1z"/>
	</g>
	<path class="st8" d="M71.5,34.6H21.4c-2.8,0-5-2.3-5-5v-2c0-2.8,2.3-5,5-5h50.1c2.8,0,5,2.3,5,5v2C76.5,32.4,74.3,34.6,71.5,34.6z"
		/>
	<path class="st5" d="M145.2,161.3h-16.6c-0.9,0-1.7-0.8-1.7-1.7V159c0-0.9,0.8-1.7,1.7-1.7h16.6c0.9,0,1.7,0.8,1.7,1.7v0.7
		C146.9,160.5,146.1,161.3,145.2,161.3z"/>
	<g class="st0">
		<path class="st9" d="M327.1,20.3h-10.6c-3.7,0-6.7,3-6.7,6.7v2.6c0,3.7,3,6.7,6.7,6.7h10.6c3.7,0,6.7-3,6.7-6.7V27
			C333.9,23.3,330.9,20.3,327.1,20.3z"/>
		<path class="st9" d="M321.2,20.3h-16.6c-1.9,0-3.4,1.5-3.4,3.4v1.3c0,1.9,1.5,3.4,3.4,3.4h16.6c1.9,0,3.4-1.5,3.4-3.4v-1.3
			C324.5,21.8,323,20.3,321.2,20.3z"/>
	</g>
	<path class="st8" d="M74.7,18.6H48.1c-3.7,0-6.7,3-6.7,6.7v2.6c0,3.7,3,6.7,6.7,6.7h26.7c3.7,0,6.7-3,6.7-6.7v-2.6
		C81.4,21.6,78.4,18.6,74.7,18.6z"/>
	<g class="st0">
		<path class="st10" d="M124.5,136.3c0,0,0-1.2,0-2.8c0-1.5-1.3-2.8-2.8-2.8h-0.5c-1.6,0-2.8-1.2-2.8-2.7c0-1.5-1.3-2.7-2.8-2.7
			h-2.7c-1.6,0-4.1,0-5.7,0H96.8c-1.6,0-2.8,1.3-2.8,2.8v8"/>
	</g>
	<ellipse class="st4" cx="64.1" cy="110.8" rx="18.4" ry="18.4"/>
	<g class="st0">
		<path class="st7" d="M18.9,156.2l1.6,1.6C20.5,156.9,19.8,156.2,18.9,156.2z"/>
		<path class="st7" d="M20.6,157.8l1.6-1.6C21.3,156.2,20.6,156.9,20.6,157.8z"/>
	</g>
	<g class="st11">
		<circle class="st12" cx="133.6" cy="152" r="0.6"/>
		<circle class="st12" cx="136" cy="152" r="0.6"/>
		<circle class="st12" cx="134.8" cy="150.1" r="0.6"/>
	</g>
	<g class="st0">
		<g>
			<path class="st13" d="M149.1,95.1h-40.7c-0.5,0-0.8,0.4-0.8,1v48.7h42.3V96.1C149.9,95.6,149.5,95.1,149.1,95.1z"/>
			<rect x="107.6" y="142.4" class="st14" width="42.3" height="2.4"/>
			<g class="st15">
				<rect x="107.6" y="100.6" class="st16" width="42.2" height="2.8"/>
				<rect x="107.6" y="111.8" class="st16" width="42.2" height="2.8"/>
				<rect x="107.6" y="123.1" class="st16" width="42.2" height="2.8"/>
			</g>
		</g>
		<g>
			<path class="st17" d="M153.7,115.1c0-2.1,1.7-3.8,3.8-3.8h5.7c2.1,0,3.8,1.7,3.8,3.8l0,0c0,2.1-1.7,3.8-3.8,3.8h-5.7
				C155.4,119,153.7,117.2,153.7,115.1L153.7,115.1z"/>
			<path class="st18" d="M237.9,100.1"/>
			<g>
				<path class="st19" d="M213,117.6l2.2,2.2C215.2,118.6,214.2,117.6,213,117.6z"/>
				<path class="st19" d="M215.3,119.8l2.2-2.2C216.3,117.6,215.3,118.6,215.3,119.8z"/>
			</g>
			<g>
				<path class="st20" d="M291.9,132.7l1.4,1.4C293.3,133.3,292.7,132.7,291.9,132.7z"/>
				<path class="st20" d="M293.3,134l1.4-1.4C293.9,132.7,293.3,133.3,293.3,134z"/>
			</g>
			<g class="st21">
				<circle class="st22" cx="236.8" cy="95.4" r="0.6"/>
				<circle class="st22" cx="239.1" cy="95.4" r="0.6"/>
				<circle class="st22" cx="237.9" cy="93.5" r="0.6"/>
			</g>
			<path class="st23" d="M243.9,118.4c-2,0-3.6,1.6-3.6,3.6h7.1C247.4,120,245.8,118.4,243.9,118.4z"/>
			<path class="st23" d="M227.4,120.5c-0.9,0-1.5,0.7-1.5,1.5h3.1C229,121.2,228.3,120.5,227.4,120.5z"/>
			<g>
				<path class="st22" d="M162.2,88.2c-14,0-15.6,12.3-25,12.3h50.1C176.9,100.4,176.2,88.2,162.2,88.2z"/>
			</g>
			<g>
				<path class="st9" d="M159.9,70.3h4v-4C163.9,68.5,162.1,70.3,159.9,70.3z"/>
			</g>
			<g>
				<path class="st24" d="M342.9,139.7c0,0,0-1.2,0-2.7s-1-2.7-2.2-2.7s-2.7-0.8-3.2-1.8c-0.5-1-1.8-1.8-2.9-1.8s-3.9,0-6.4,0
					s-4.5,2-4.5,4.5s0,4.5,0,4.5"/>
			</g>
			<g>
				<path class="st10" d="M342.9,139.7c0,0,0-1.2,0-2.7s-1-2.7-2.2-2.7s-2.7-1.6-3.2-3.5c-0.5-1.9-3.2-3.5-6-3.5h-2.7
					c-2.8,0-5,0.8-5,1.7s0,3.7,0,6.2s0,4.5,0,4.5"/>
			</g>
			<rect x="330.5" y="138.2" class="st25" width="14.1" height="6.8"/>
			<g>
				<g>
					<polygon class="st26" points="238.2,37.7 238.2,24.6 226.8,24.6 226.8,37.7 218.7,37.7 218.7,144.9 246.3,144.9 246.3,37.7 
											"/>
					<path class="st26" d="M246.3,146.3h-27.6c-0.8,0-1.4-0.6-1.4-1.4V37.7c0-0.8,0.6-1.4,1.4-1.4h6.7V24.6c0-0.8,0.6-1.4,1.4-1.4
						h11.4c0.8,0,1.4,0.6,1.4,1.4v11.7h6.7c0.8,0,1.4,0.6,1.4,1.4v107.2C247.7,145.7,247,146.3,246.3,146.3z M220.1,143.5h24.8V39.1
						h-6.7c-0.8,0-1.4-0.6-1.4-1.4V26h-8.6v11.7c0,0.8-0.6,1.4-1.4,1.4h-6.7V143.5z"/>
				</g>
			</g>
			<g>
				<g>
					<path class="st27" d="M209.7,38.6H176c-0.5,0-1,0.4-1,1v104.7c0,0.5,0.4,1,1,1h33.7c0.5,0,1-0.4,1-1V39.6
						C210.7,39,210.2,38.6,209.7,38.6z"/>
				</g>
			</g>
			<g class="st28">
				<path class="st25" d="M179,44.1c-1,0-1.7,0.8-1.7,1.7v3.3c0,0.2,0.1,0.3,0.3,0.3h2.9c0.2,0,0.3-0.1,0.3-0.3v-3.3
					C180.8,44.9,180,44.1,179,44.1z"/>
				<path class="st25" d="M185.9,44.1c-1,0-1.7,0.8-1.7,1.7v3.3c0,0.2,0.1,0.3,0.3,0.3h2.9c0.2,0,0.3-0.1,0.3-0.3v-3.3
					C187.7,44.9,186.9,44.1,185.9,44.1z"/>
				<path class="st25" d="M192.8,44.1c-1,0-1.7,0.8-1.7,1.7v3.3c0,0.2,0.1,0.3,0.3,0.3h2.9c0.2,0,0.3-0.1,0.3-0.3v-3.3
					C194.6,44.9,193.8,44.1,192.8,44.1z"/>
				<path class="st25" d="M199.7,44.1c-1,0-1.7,0.8-1.7,1.7v3.3c0,0.2,0.1,0.3,0.3,0.3h2.9c0.2,0,0.3-0.1,0.3-0.3v-3.3
					C201.5,44.9,200.7,44.1,199.7,44.1z"/>
				<path class="st25" d="M206.6,44.1c-1,0-1.7,0.8-1.7,1.7v3.3c0,0.2,0.1,0.3,0.3,0.3h2.9c0.2,0,0.3-0.1,0.3-0.3v-3.3
					C208.4,44.9,207.6,44.1,206.6,44.1z"/>
				<path class="st25" d="M179,54.4c-1,0-1.7,0.8-1.7,1.7v3.3c0,0.2,0.1,0.3,0.3,0.3h2.9c0.2,0,0.3-0.1,0.3-0.3v-3.3
					C180.8,55.2,180,54.4,179,54.4z"/>
				<path class="st25" d="M185.9,54.4c-1,0-1.7,0.8-1.7,1.7v3.3c0,0.2,0.1,0.3,0.3,0.3h2.9c0.2,0,0.3-0.1,0.3-0.3v-3.3
					C187.7,55.2,186.9,54.4,185.9,54.4z"/>
				<path class="st25" d="M192.8,54.4c-1,0-1.7,0.8-1.7,1.7v3.3c0,0.2,0.1,0.3,0.3,0.3h2.9c0.2,0,0.3-0.1,0.3-0.3v-3.3
					C194.6,55.2,193.8,54.4,192.8,54.4z"/>
				<path class="st25" d="M199.7,54.4c-1,0-1.7,0.8-1.7,1.7v3.3c0,0.2,0.1,0.3,0.3,0.3h2.9c0.2,0,0.3-0.1,0.3-0.3v-3.3
					C201.5,55.2,200.7,54.4,199.7,54.4z"/>
				<path class="st25" d="M206.6,54.4c-1,0-1.7,0.8-1.7,1.7v3.3c0,0.2,0.1,0.3,0.3,0.3h2.9c0.2,0,0.3-0.1,0.3-0.3v-3.3
					C208.4,55.2,207.6,54.4,206.6,54.4z"/>
			</g>
			<path class="st29" d="M211.1,38.4h-36.4c-0.4,0-0.8,0.3-0.8,0.8v2.1c0,0.4,0.3,0.8,0.8,0.8h36.4c0.4,0,0.8-0.3,0.8-0.8v-2.1
				C211.8,38.7,211.5,38.4,211.1,38.4z"/>
			<g class="st15">
				<rect x="175" y="51.3" class="st30" width="35.6" height="1.5"/>
			</g>
			<g class="st15">
				<rect x="175" y="61.8" class="st30" width="35.6" height="1.5"/>
			</g>
			<g class="st28">
				<path class="st25" d="M179,65.8c-1,0-1.7,0.8-1.7,1.7v3.3c0,0.2,0.1,0.3,0.3,0.3h2.9c0.2,0,0.3-0.1,0.3-0.3v-3.3
					C180.8,66.6,180,65.8,179,65.8z"/>
				<path class="st25" d="M185.9,65.8c-1,0-1.7,0.8-1.7,1.7v3.3c0,0.2,0.1,0.3,0.3,0.3h2.9c0.2,0,0.3-0.1,0.3-0.3v-3.3
					C187.7,66.6,186.9,65.8,185.9,65.8z"/>
				<path class="st25" d="M192.8,65.8c-1,0-1.7,0.8-1.7,1.7v3.3c0,0.2,0.1,0.3,0.3,0.3h2.9c0.2,0,0.3-0.1,0.3-0.3v-3.3
					C194.6,66.6,193.8,65.8,192.8,65.8z"/>
				<path class="st25" d="M199.7,65.8c-1,0-1.7,0.8-1.7,1.7v3.3c0,0.2,0.1,0.3,0.3,0.3h2.9c0.2,0,0.3-0.1,0.3-0.3v-3.3
					C201.5,66.6,200.7,65.8,199.7,65.8z"/>
				<path class="st25" d="M206.6,65.8c-1,0-1.7,0.8-1.7,1.7v3.3c0,0.2,0.1,0.3,0.3,0.3h2.9c0.2,0,0.3-0.1,0.3-0.3v-3.3
					C208.4,66.6,207.6,65.8,206.6,65.8z"/>
				<path class="st25" d="M179,76.1c-1,0-1.7,0.8-1.7,1.7v3.3c0,0.2,0.1,0.3,0.3,0.3h2.9c0.2,0,0.3-0.1,0.3-0.3v-3.3
					C180.8,76.9,180,76.1,179,76.1z"/>
				<path class="st25" d="M185.9,76.1c-1,0-1.7,0.8-1.7,1.7v3.3c0,0.2,0.1,0.3,0.3,0.3h2.9c0.2,0,0.3-0.1,0.3-0.3v-3.3
					C187.7,76.9,186.9,76.1,185.9,76.1z"/>
				<path class="st25" d="M192.8,76.1c-1,0-1.7,0.8-1.7,1.7v3.3c0,0.2,0.1,0.3,0.3,0.3h2.9c0.2,0,0.3-0.1,0.3-0.3v-3.3
					C194.6,76.9,193.8,76.1,192.8,76.1z"/>
				<path class="st25" d="M199.7,76.1c-1,0-1.7,0.8-1.7,1.7v3.3c0,0.2,0.1,0.3,0.3,0.3h2.9c0.2,0,0.3-0.1,0.3-0.3v-3.3
					C201.5,76.9,200.7,76.1,199.7,76.1z"/>
				<path class="st25" d="M206.6,76.1c-1,0-1.7,0.8-1.7,1.7v3.3c0,0.2,0.1,0.3,0.3,0.3h2.9c0.2,0,0.3-0.1,0.3-0.3v-3.3
					C208.4,76.9,207.6,76.1,206.6,76.1z"/>
			</g>
			<g class="st15">
				<rect x="175" y="72.4" class="st30" width="35.6" height="1.5"/>
			</g>
			<g class="st15">
				<rect x="175" y="82.9" class="st30" width="35.6" height="1.5"/>
			</g>
			<g class="st28">
				<path class="st25" d="M179,86.3c-1,0-1.7,0.8-1.7,1.7v3.3c0,0.2,0.1,0.3,0.3,0.3h2.9c0.2,0,0.3-0.1,0.3-0.3v-3.3
					C180.8,87.1,180,86.3,179,86.3z"/>
				<path class="st25" d="M185.9,86.3c-1,0-1.7,0.8-1.7,1.7v3.3c0,0.2,0.1,0.3,0.3,0.3h2.9c0.2,0,0.3-0.1,0.3-0.3v-3.3
					C187.7,87.1,186.9,86.3,185.9,86.3z"/>
				<path class="st25" d="M192.8,86.3c-1,0-1.7,0.8-1.7,1.7v3.3c0,0.2,0.1,0.3,0.3,0.3h2.9c0.2,0,0.3-0.1,0.3-0.3v-3.3
					C194.6,87.1,193.8,86.3,192.8,86.3z"/>
				<path class="st25" d="M199.7,86.3c-1,0-1.7,0.8-1.7,1.7v3.3c0,0.2,0.1,0.3,0.3,0.3h2.9c0.2,0,0.3-0.1,0.3-0.3v-3.3
					C201.5,87.1,200.7,86.3,199.7,86.3z"/>
				<path class="st25" d="M206.6,86.3c-1,0-1.7,0.8-1.7,1.7v3.3c0,0.2,0.1,0.3,0.3,0.3h2.9c0.2,0,0.3-0.1,0.3-0.3v-3.3
					C208.4,87.1,207.6,86.3,206.6,86.3z"/>
				<path class="st25" d="M179,96.6c-1,0-1.7,0.8-1.7,1.7v3.3c0,0.2,0.1,0.3,0.3,0.3h2.9c0.2,0,0.3-0.1,0.3-0.3v-3.3
					C180.8,97.4,180,96.6,179,96.6z"/>
				<path class="st25" d="M185.9,96.6c-1,0-1.7,0.8-1.7,1.7v3.3c0,0.2,0.1,0.3,0.3,0.3h2.9c0.2,0,0.3-0.1,0.3-0.3v-3.3
					C187.7,97.4,186.9,96.6,185.9,96.6z"/>
				<path class="st25" d="M192.8,96.6c-1,0-1.7,0.8-1.7,1.7v3.3c0,0.2,0.1,0.3,0.3,0.3h2.9c0.2,0,0.3-0.1,0.3-0.3v-3.3
					C194.6,97.4,193.8,96.6,192.8,96.6z"/>
				<path class="st25" d="M199.7,96.6c-1,0-1.7,0.8-1.7,1.7v3.3c0,0.2,0.1,0.3,0.3,0.3h2.9c0.2,0,0.3-0.1,0.3-0.3v-3.3
					C201.5,97.4,200.7,96.6,199.7,96.6z"/>
				<path class="st25" d="M206.6,96.6c-1,0-1.7,0.8-1.7,1.7v3.3c0,0.2,0.1,0.3,0.3,0.3h2.9c0.2,0,0.3-0.1,0.3-0.3v-3.3
					C208.4,97.4,207.6,96.6,206.6,96.6z"/>
			</g>
			<g class="st15">
				<rect x="175" y="93.5" class="st30" width="35.6" height="1.5"/>
			</g>
			<path class="st31" d="M211.1,40.5h-36.4c-0.4,0-0.8,0.3-0.8,0.8s0.3,0.8,0.8,0.8h36.4c0.4,0,0.8-0.3,0.8-0.8
				S211.5,40.5,211.1,40.5z"/>
			<g>
				<path class="st24" d="M221.2,140.5v-8c0-2.2,1.8-4,4-4h0.3c2.2,0,4-1,4-2.2c0-1.2,1.8-2.2,4-2.2h1c2.2,0,4-1.4,4-3.1
					c0-1.7,1.8-3.1,4-3.1h3.5c2.2,0,4,1.8,4,4v18.6"/>
			</g>
			<g>
				<path class="st10" d="M221.2,140.5v-8c0-2.2,1.8-4,4-4h0.3c2.2,0,4-1,4-2.2c0-1.2,1.8-2.2,4-2.2h1c2.2,0,4,1.4,4,3.1
					c0,1.7,1.3,3.1,2.8,3.1s2.8,1.8,2.8,4v6.1"/>
			</g>
			<g>
				<g class="st21">
					<g>
						<line class="st32" x1="311.3" y1="57.4" x2="284.5" y2="57.4"/>
						<rect x="284.5" y="56.4" class="st32" width="26.8" height="1.9"/>
					</g>
					<g>
						<line class="st32" x1="311.3" y1="63.7" x2="284.5" y2="63.7"/>
						<rect x="284.5" y="62.8" class="st32" width="26.8" height="1.9"/>
					</g>
					<g>
						<line class="st32" x1="311.3" y1="70.1" x2="284.5" y2="70.1"/>
						<rect x="284.5" y="69.1" class="st32" width="26.8" height="1.9"/>
					</g>
					<g>
						<line class="st32" x1="311.3" y1="76.5" x2="284.5" y2="76.5"/>
						<rect x="284.5" y="75.5" class="st32" width="26.8" height="1.9"/>
					</g>
					<g>
						<line class="st32" x1="311.3" y1="82.8" x2="284.5" y2="82.8"/>
						<rect x="284.5" y="81.8" class="st32" width="26.8" height="1.9"/>
					</g>
					<g>
						<line class="st32" x1="311.3" y1="89.2" x2="284.5" y2="89.2"/>
						<rect x="284.5" y="88.2" class="st32" width="26.8" height="1.9"/>
					</g>
					<g>
						<line class="st32" x1="311.3" y1="101.9" x2="284.5" y2="101.9"/>
						<rect x="284.5" y="100.9" class="st32" width="26.8" height="1.9"/>
					</g>
					<g>
						<line class="st32" x1="311.3" y1="95.5" x2="284.5" y2="95.5"/>
						<rect x="284.5" y="94.6" class="st32" width="26.8" height="1.9"/>
					</g>
					<g>
						<line class="st32" x1="310.7" y1="108.3" x2="283.9" y2="108.3"/>
						<rect x="283.9" y="107.3" class="st32" width="26.8" height="1.9"/>
					</g>
					<g>
						<line class="st32" x1="310.7" y1="114.6" x2="283.9" y2="114.6"/>
						<rect x="283.9" y="113.7" class="st32" width="26.8" height="1.9"/>
					</g>
					<g>
						<line class="st32" x1="310.7" y1="121" x2="283.9" y2="121"/>
						<rect x="283.9" y="120" class="st32" width="26.8" height="1.9"/>
					</g>
				</g>
				<path class="st33" d="M310.2,51.9h-24.6c-0.6,0-1.2,0.4-1.2,1v84.8c0,0.5,0.5,1,1.2,1h24.6c0.6,0,1.2-0.4,1.2-1V52.9
					C311.4,52.3,310.9,51.9,310.2,51.9z"/>
			</g>
			<rect x="231.5" y="138.2" class="st25" width="13.2" height="6.8"/>
			<g>
				<path class="st34" d="M284.7,39h-31.6c-0.5,0-0.8,0.4-0.8,0.8v88.5c0,0.5,0.4,0.8,0.8,0.8h31.6c0.5,0,0.8-0.4,0.8-0.8V39.8
					C285.5,39.3,285.2,39,284.7,39z"/>
				<g>
					<rect x="280.4" y="45.3" class="st35" width="2.1" height="5.5"/>
					<rect x="275.4" y="45.3" class="st35" width="2.1" height="5.5"/>
					<rect x="270.4" y="45.3" class="st35" width="2.1" height="5.5"/>
					<rect x="265.4" y="45.3" class="st35" width="2.1" height="5.5"/>
					<rect x="260.4" y="45.3" class="st35" width="2.1" height="5.5"/>
					<rect x="255.4" y="45.3" class="st35" width="2.1" height="5.5"/>
					<rect x="280.4" y="54.3" class="st35" width="2.1" height="5.5"/>
					<rect x="275.4" y="54.3" class="st35" width="2.1" height="5.5"/>
					<rect x="270.4" y="54.3" class="st35" width="2.1" height="5.5"/>
					<rect x="265.4" y="54.3" class="st35" width="2.1" height="5.5"/>
					<rect x="260.4" y="54.3" class="st35" width="2.1" height="5.5"/>
					<rect x="255.4" y="54.3" class="st35" width="2.1" height="5.5"/>
					<rect x="280.4" y="63.4" class="st35" width="2.1" height="5.5"/>
					<rect x="275.4" y="63.4" class="st35" width="2.1" height="5.5"/>
					<rect x="270.4" y="63.4" class="st35" width="2.1" height="5.5"/>
					<rect x="265.4" y="63.4" class="st35" width="2.1" height="5.5"/>
					<rect x="260.4" y="63.4" class="st35" width="2.1" height="5.5"/>
					<rect x="255.4" y="63.4" class="st35" width="2.1" height="5.5"/>
					<rect x="280.4" y="72.4" class="st35" width="2.1" height="5.5"/>
					<rect x="275.4" y="72.4" class="st35" width="2.1" height="5.5"/>
					<rect x="270.4" y="72.4" class="st35" width="2.1" height="5.5"/>
					<rect x="265.4" y="72.4" class="st35" width="2.1" height="5.5"/>
					<rect x="260.4" y="72.4" class="st35" width="2.1" height="5.5"/>
					<rect x="255.4" y="72.4" class="st35" width="2.1" height="5.5"/>
					<rect x="280.4" y="81.4" class="st35" width="2.1" height="5.5"/>
					<rect x="275.4" y="81.4" class="st35" width="2.1" height="5.5"/>
					<rect x="270.4" y="81.4" class="st35" width="2.1" height="5.5"/>
					<rect x="265.4" y="81.4" class="st35" width="2.1" height="5.5"/>
					<rect x="260.4" y="81.4" class="st35" width="2.1" height="5.5"/>
					<rect x="255.4" y="81.4" class="st35" width="2.1" height="5.5"/>
					<rect x="280.4" y="90.5" class="st35" width="2.1" height="5.5"/>
					<rect x="275.4" y="90.5" class="st35" width="2.1" height="5.5"/>
					<rect x="270.4" y="90.5" class="st35" width="2.1" height="5.5"/>
					<rect x="265.4" y="90.5" class="st35" width="2.1" height="5.5"/>
					<rect x="260.4" y="90.5" class="st35" width="2.1" height="5.5"/>
					<rect x="255.4" y="90.5" class="st35" width="2.1" height="5.5"/>
				</g>
			</g>
			<g>
				<path class="st10" d="M221.2,137.7"/>
			</g>
			<g>
				<g>
					<rect x="178.7" y="108.4" class="st36" width="55.3" height="36.4"/>
					<g>
						<g>
							<rect x="189.2" y="101.3" class="st37" width="2.5" height="7"/>
							<rect x="221" y="101.3" class="st37" width="2.5" height="7"/>
						</g>
						<rect x="178.7" y="142.9" class="st38" width="55.3" height="2.1"/>
						<g>
							<g>
								<rect x="200.6" y="122.2" class="st39" width="28.1" height="16.9"/>
								<g>
									<path class="st38" d="M229.6,140h-29.9v-18.7h29.9V140z M201.5,138.2h26.3v-15.1h-26.3V138.2z"/>
								</g>
							</g>
							<rect x="183.9" y="121.1" class="st38" width="12.5" height="20"/>
							<rect x="183.9" y="141.1" class="st25" width="12.5" height="3.7"/>
							<rect x="185.6" y="122.8" class="st39" width="9.4" height="7.3"/>
							<rect x="185.6" y="131.9" class="st39" width="9.4" height="7.3"/>
						</g>
						<path class="st40" d="M229,76.1c0-0.2-0.1-0.3-0.3-0.3H184c-0.2,0-0.3,0.1-0.3,0.3V101c0,0.2,0.1,0.3,0.3,0.3h44.7
							c0.2,0,0.3-0.1,0.3-0.3V76.1z"/>
						<path class="st36" d="M226.9,78.4c0-0.2-0.1-0.3-0.3-0.3H186c-0.2,0-0.3,0.1-0.3,0.3v18.4c0,0.2,0.1,0.3,0.3,0.3h40.6
							c0.2,0,0.3-0.1,0.3-0.3V78.4z"/>
						<path class="st25" d="M181.7,99.3c0,1.2,1,2.2,2.2,2.2h44.9c1.2,0,2.2-1,2.2-2.2H181.7z"/>
					</g>
				</g>
				<rect x="177.7" y="107.2" class="st25" width="57.2" height="3.4"/>
				<rect x="177.7" y="110.6" class="st38" width="57.2" height="1.7"/>
				<rect x="218.4" y="127.3" class="st41" width="7.5" height="9"/>
				<g>
					<path class="st9" d="M204.9,133.9c-0.2,0-0.3,0-0.5-0.1c-0.5-0.3-0.7-0.8-0.4-1.3l3.8-7.1c0.3-0.5,0.8-0.7,1.3-0.4
						c0.5,0.3,0.7,0.8,0.4,1.3l-3.8,7.1C205.6,133.7,205.2,133.9,204.9,133.9z"/>
					<path class="st9" d="M210,136c-0.2,0-0.3,0-0.5-0.1c-0.5-0.3-0.7-0.8-0.4-1.3l2.7-5.2c0.3-0.5,0.8-0.7,1.3-0.4
						c0.5,0.3,0.7,0.8,0.4,1.3l-2.7,5.2C210.7,135.9,210.4,136,210,136z"/>
					<path class="st9" d="M218.4,131.9c-0.2,0-0.3,0-0.5-0.1c-0.5-0.3-0.7-0.8-0.4-1.3l2.7-5.2c0.3-0.5,0.8-0.7,1.3-0.4
						c0.5,0.3,0.7,0.8,0.4,1.3l-2.7,5.2C219.1,131.7,218.8,131.9,218.4,131.9z"/>
					<path class="st9" d="M217.1,134.6c-0.2,0-0.3,0-0.5-0.1c-0.5-0.3-0.7-0.8-0.4-1.3l0.3-0.5c0.3-0.5,0.8-0.7,1.3-0.4
						c0.5,0.3,0.7,0.8,0.4,1.3l-0.3,0.5C217.8,134.5,217.5,134.6,217.1,134.6z"/>
				</g>
			</g>
			<g>
				<path class="st13" d="M178,55h-40.7c-0.5,0-0.8,0.4-0.8,1v88.8h42.3V56C178.8,55.5,178.4,55,178,55z"/>
				<rect x="136.5" y="142.4" class="st14" width="42.3" height="2.4"/>
				<rect x="151.5" y="125.9" class="st42" width="12.5" height="16.4"/>
				<g class="st15">
					<rect x="136.5" y="66.8" class="st16" width="42.2" height="2.8"/>
					<rect x="136.5" y="78" class="st16" width="42.2" height="2.8"/>
					<rect x="136.5" y="89.3" class="st16" width="42.2" height="2.8"/>
					<rect x="136.5" y="100.6" class="st16" width="42.2" height="2.8"/>
					<rect x="136.5" y="111.8" class="st16" width="42.2" height="2.8"/>
					<rect x="136.5" y="123.1" class="st16" width="42.2" height="2.8"/>
				</g>
			</g>
			<g>
				<g>
					<path class="st43" d="M331.6,71.6c0,1.4-1.1,2.5-2.5,2.5h-1.2c-1.4,0-2.5-1.1-2.5-2.5l0,0c0-1.4,1.1-2.5,2.5-2.5h1.2
						C330.5,69.1,331.6,70.2,331.6,71.6L331.6,71.6z"/>
					<path class="st44" d="M330.1,71.6c0,1.4-1.1,2.5-2.5,2.5h-1.2c-1.4,0-2.5-1.1-2.5-2.5l0,0c0-1.4,1.1-2.5,2.5-2.5h1.2
						C328.9,69.1,330.1,70.2,330.1,71.6L330.1,71.6z"/>
				</g>
				<g>
					<path class="st43" d="M286.4,71.6c0,1.4-1.1,2.5-2.5,2.5h-1.2c-1.4,0-2.5-1.1-2.5-2.5l0,0c0-1.4,1.1-2.5,2.5-2.5h1.2
						C285.2,69.1,286.4,70.2,286.4,71.6L286.4,71.6z"/>
					<path class="st44" d="M284.8,71.6c0,1.4-1.1,2.5-2.5,2.5h-1.2c-1.4,0-2.5-1.1-2.5-2.5l0,0c0-1.4,1.1-2.5,2.5-2.5h1.2
						C283.7,69.1,284.8,70.2,284.8,71.6L284.8,71.6z"/>
				</g>
				<g>
					<g>
						<rect x="289.4" y="76.2" class="st45" width="45.4" height="68.7"/>
						<rect x="289.4" y="141.6" class="st46" width="45.4" height="3.4"/>
						<rect x="289.4" y="76.2" class="st47" width="16.5" height="62"/>
						<g>
							<rect x="309.5" y="117.2" class="st39" width="8.5" height="15.5"/>
							<rect x="322.6" y="117.2" class="st39" width="8.5" height="15.5"/>
							<rect x="309.4" y="87.5" class="st39" width="8.5" height="15.5"/>
							<rect x="293.4" y="87.5" class="st39" width="8.5" height="15.5"/>
							<rect x="322.5" y="87.5" class="st39" width="8.5" height="15.5"/>
						</g>
						<g>
							<path class="st48" d="M319.1,133.8h-10.7V116h10.7V133.8z M310.6,131.5h6.2v-13.2h-6.2V131.5z"/>
							<path class="st48" d="M332.2,133.8h-10.7V116h10.7V133.8z M323.7,131.5h6.2v-13.2h-6.2V131.5z"/>
							<path class="st48" d="M319,104.1h-10.7V86.4H319V104.1z M310.6,101.9h6.2V88.7h-6.2V101.9z"/>
							<path class="st48" d="M303,104.1h-10.7V86.4H303V104.1z M294.5,101.9h6.2V88.7h-6.2V101.9z"/>
							<path class="st48" d="M332.1,104.1h-10.7V86.4h10.7V104.1z M323.7,101.9h6.2V88.7h-6.2V101.9z"/>
						</g>
						<rect x="289.4" y="107.8" class="st46" width="45.4" height="3.4"/>
						<rect x="289.4" y="134.8" class="st41" width="16.5" height="10.1"/>
						<rect x="289.4" y="141.6" class="st49" width="16.5" height="3.4"/>
						<rect x="289.4" y="134.8" class="st49" width="16.5" height="3.4"/>
					</g>
				</g>
				<g>
					<g>
						<rect x="244.3" y="76.2" class="st45" width="45.4" height="68.7"/>
						<rect x="244.3" y="141.6" class="st46" width="45.4" height="3.4"/>
						<rect x="244.3" y="76.2" class="st50" width="16.5" height="62"/>
						<g>
							<rect x="264.4" y="117.2" class="st39" width="8.5" height="15.5"/>
							<rect x="277.5" y="117.2" class="st39" width="8.5" height="15.5"/>
							<rect x="264.3" y="87.5" class="st39" width="8.5" height="15.5"/>
							<rect x="248.3" y="87.5" class="st39" width="8.5" height="15.5"/>
							<rect x="277.4" y="87.5" class="st39" width="8.5" height="15.5"/>
						</g>
						<g>
							<path class="st48" d="M274,133.8h-10.7V116H274V133.8z M265.5,131.5h6.2v-13.2h-6.2V131.5z"/>
							<path class="st48" d="M287.1,133.8h-10.7V116h10.7V133.8z M278.6,131.5h6.2v-13.2h-6.2V131.5z"/>
							<path class="st48" d="M273.9,104.1h-10.7V86.4h10.7V104.1z M265.5,101.9h6.2V88.7h-6.2V101.9z"/>
							<path class="st48" d="M257.9,104.1h-10.7V86.4h10.7V104.1z M249.4,101.9h6.2V88.7h-6.2V101.9z"/>
							<path class="st48" d="M287,104.1h-10.7V86.4H287V104.1z M278.6,101.9h6.2V88.7h-6.2V101.9z"/>
						</g>
						<rect x="244.3" y="107.8" class="st46" width="45.4" height="3.4"/>
						<rect x="244.3" y="134.8" class="st41" width="16.5" height="10.1"/>
						<rect x="244.3" y="141.6" class="st49" width="16.5" height="3.4"/>
						<rect x="244.3" y="134.8" class="st49" width="16.5" height="3.4"/>
					</g>
				</g>
				<rect x="244.3" y="75.1" class="st51" width="16.5" height="3.2"/>
				<rect x="260.9" y="75.1" class="st51" width="28.9" height="3.2"/>
				<rect x="289.7" y="75.1" class="st51" width="16.4" height="3.2"/>
				<rect x="306.1" y="75.1" class="st51" width="28.7" height="3.2"/>
				<rect x="244.3" y="73" class="st52" width="16.5" height="3.2"/>
				<rect x="260.9" y="73" class="st53" width="29.1" height="3.2"/>
				<rect x="289.7" y="73" class="st52" width="16.4" height="3.2"/>
				<rect x="306.1" y="73" class="st53" width="28.7" height="3.2"/>
			</g>
			<path class="st36" d="M354.1,148.2H99.4c-1.1,0-2-0.8-2-1.9l0,0c0-1,0.9-1.9,2-1.9h254.7c1.1,0,2,0.8,2,1.9l0,0
				C356.1,147.4,355.2,148.2,354.1,148.2z"/>
		</g>
	</g>
	<path class="st5" d="M53.6,148.5v-28.9h36.3c13.4,0,25.1,18.2,25.1,31.3"/>
	<path class="st5" d="M79.1,148.5v-28.9H42c-13.1,0-24.1,15.6-24.1,28.7"/>
	<linearGradient id="SVGID_6_" gradientUnits="userSpaceOnUse" x1="-1.389438e-03" y1="141.2284" x2="46.5214" y2="141.2284">
		<stop  offset="0" style="stop-color:#000000;stop-opacity:0"/>
		<stop  offset="1" style="stop-color:#000000"/>
	</linearGradient>
	<path class="st54" d="M46,141.8H0.5c-0.3,0-0.5-0.2-0.5-0.5l0-0.2c0-0.3,0.2-0.5,0.5-0.5H46c0.3,0,0.5,0.2,0.5,0.5v0.2
		C46.5,141.6,46.3,141.8,46,141.8z"/>
	<g class="st0">
		<polygon class="st55" points="37.5,132.1 45.8,109.7 54,132.1 		"/>
		<polygon class="st55" points="37.8,120.9 46.1,98.5 54.4,120.9 		"/>
		<rect x="45.1" y="117.4" class="st56" width="1.4" height="24.4"/>
		<g class="st28">
			<path class="st57" d="M49.4,129.9c0,0.8-0.7,1.4-0.7,1.4s-0.7-0.6-0.7-1.4c0-0.8,0.7-1.4,0.7-1.4S49.4,129.1,49.4,129.9z"/>
			<path class="st57" d="M50.9,114.6c0,0.8-0.7,1.4-0.7,1.4s-0.7-0.6-0.7-1.4c0-0.8,0.7-1.4,0.7-1.4S50.9,113.9,50.9,114.6z"/>
			<path class="st57" d="M45.3,113.7c-0.6-0.6-0.5-1.5-0.5-1.5s1-0.1,1.5,0.5c0.6,0.6,0.5,1.5,0.5,1.5S45.8,114.3,45.3,113.7z"/>
			<path class="st57" d="M46,103.6c0,0.8-0.7,1.4-0.7,1.4s-0.7-0.6-0.7-1.4c0-0.8,0.7-1.4,0.7-1.4S46,102.8,46,103.6z"/>
			<path class="st57" d="M40.4,129.5c0,0.8-0.7,1.4-0.7,1.4s-0.7-0.6-0.7-1.4c0-0.8,0.7-1.4,0.7-1.4S40.4,128.7,40.4,129.5z"/>
			<path class="st57" d="M43.5,125.8c0.6,0.6,0.5,1.5,0.5,1.5s-1,0.1-1.5-0.5c-0.6-0.6-0.5-1.5-0.5-1.5S42.9,125.3,43.5,125.8z"/>
			<path class="st57" d="M42.7,130.1c0.6-0.6,1.5-0.5,1.5-0.5s0.1,1-0.5,1.5c-0.6,0.6-1.5,0.5-1.5,0.5S42.2,130.6,42.7,130.1z"/>
			<path class="st57" d="M44.2,122.7c-0.6,0.6-1.5,0.5-1.5,0.5s-0.1-1,0.5-1.5c0.6-0.6,1.5-0.5,1.5-0.5S44.7,122.2,44.2,122.7z"/>
			<path class="st57" d="M43,119.6c0,0.8-0.7,1.4-0.7,1.4s-0.7-0.6-0.7-1.4c0-0.8,0.7-1.4,0.7-1.4S43,118.8,43,119.6z"/>
			<path class="st57" d="M48.8,125.3c-0.6,0.6-1.5,0.5-1.5,0.5s-0.1-1,0.5-1.5c0.6-0.6,1.5-0.5,1.5-0.5S49.4,124.7,48.8,125.3z"/>
			<path class="st57" d="M42.7,111.8c-0.6,0.6-1.5,0.5-1.5,0.5s-0.1-1,0.5-1.5c0.6-0.6,1.5-0.5,1.5-0.5S43.3,111.2,42.7,111.8z"/>
			<path class="st57" d="M47.7,107.5c-0.6-0.6-0.5-1.5-0.5-1.5s1-0.1,1.5,0.5c0.6,0.6,0.5,1.5,0.5,1.5S48.2,108.1,47.7,107.5z"/>
			<path class="st57" d="M50.9,128.6c-0.8,0-1.4-0.7-1.4-0.7s0.6-0.7,1.4-0.7c0.8,0,1.4,0.7,1.4,0.7S51.7,128.6,50.9,128.6z"/>
			<path class="st57" d="M47.6,119.8c0-0.8,0.7-1.4,0.7-1.4s0.7,0.6,0.7,1.4c0,0.8-0.7,1.4-0.7,1.4S47.6,120.6,47.6,119.8z"/>
			<path class="st57" d="M51.7,118.9c-0.8,0-1.4-0.7-1.4-0.7s0.6-0.7,1.4-0.7c0.8,0,1.4,0.7,1.4,0.7S52.5,118.9,51.7,118.9z"/>
			<path class="st57" d="M44.2,108.3c-0.6-0.6-0.5-1.5-0.5-1.5s1-0.1,1.5,0.5c0.6,0.6,0.5,1.5,0.5,1.5S44.7,108.8,44.2,108.3z"/>
			<path class="st57" d="M47.6,111.7c-0.8,0-1.4-0.7-1.4-0.7s0.6-0.7,1.4-0.7c0.8,0,1.4,0.7,1.4,0.7S48.4,111.7,47.6,111.7z"/>
			<path class="st57" d="M42.2,116.6c-0.6,0.6-1.5,0.5-1.5,0.5s-0.1-1,0.5-1.5c0.6-0.6,1.5-0.5,1.5-0.5S42.7,116,42.2,116.6z"/>
		</g>
	</g>
	<path class="st58" d="M0,195.8h56.1c1.9,0,3.4-1.5,3.4-3.4v-1.3c0-1.9-1.5-3.4-3.4-3.4H0L0,195.8z"/>
	<path class="st58" d="M34.7,180.3h105.5c4.1,0,7.4-3.3,7.4-7.4V170c0-4.1-3.3-7.4-7.4-7.4H34.7c-4.1,0-7.4,3.3-7.4,7.4v2.9
		C27.3,177,30.6,180.3,34.7,180.3z"/>
	<path class="st58" d="M46.3,164.8H0l0,23h46.3c5.3,0,9.6-4.3,9.6-9.6v-3.7C55.9,169.1,51.6,164.8,46.3,164.8z"/>
	<path class="st58" d="M108.8,180.3h147.3c2.8,0,5-2.3,5-5v-2c0-2.8-2.3-5-5-5H108.8c-2.8,0-5,2.3-5,5v2
		C103.7,178,106,180.3,108.8,180.3z"/>
	<path class="st58" d="M360,156.2H252.8c-7.6,0-13.7,5.5-13.7,12.3v0c0,6.8,6.1,12.3,13.7,12.3H360"/>
	<path class="st58" d="M137.2,193h163.7c5.8,0,10.4-4.7,10.4-10.4v0c0-5.8-4.7-10.4-10.4-10.4H137.2c-5.8,0-10.4,4.7-10.4,10.4v0
		C126.8,188.4,131.4,193,137.2,193z"/>
	<path class="st5" d="M46.3,186.6h83.9c1.7,0,3.2-1.4,3.2-3.2l0,0c0-1.7-1.4-3.2-3.2-3.2H46.3c-1.7,0-3.2,1.4-3.2,3.2l0,0
		C43.1,185.2,44.5,186.6,46.3,186.6z"/>
	
		<rect x="331.3" y="175.2" transform="matrix(-1 -2.192194e-10 2.192194e-10 -1 691.2627 365.0439)" class="st5" width="28.7" height="14.6"/>
	<path class="st58" d="M322.8,180.8h11.3c1.3,0,2.4-1.1,2.4-2.4v-0.9c0-1.3-1.1-2.4-2.4-2.4h-11.3c-1.3,0-2.4,1.1-2.4,2.4v0.9
		C320.5,179.8,321.5,180.8,322.8,180.8z"/>
	<path class="st58" d="M124.8,193.1h164.7c1.8,0,3.2-1.4,3.2-3.2v0c0-1.8-1.4-3.2-3.2-3.2H124.8c-1.8,0-3.2,1.4-3.2,3.2v0
		C121.6,191.6,123.1,193.1,124.8,193.1z"/>
	<path class="st59" d="M68.6,188.7c-2.7,0-4.9,2.2-4.9,4.9h9.8C73.5,190.9,71.3,188.7,68.6,188.7z"/>
	<path class="st59" d="M217.5,161.1c-2.7,0-4.9,2.2-4.9,4.9h9.8C222.4,163.3,220.2,161.1,217.5,161.1z"/>
	<g class="st0">
		<path class="st22" d="M68.3,193c-0.5-0.5-1.1-0.9-1.8-1.2c1.1-1.9,1.1-4.3-0.2-6.2c-1.4-1.9-3.7-2.6-5.8-2.1
			c-0.2-2.2-1.6-4.1-3.8-4.8c-2.2-0.7-4.5,0-5.9,1.7c-1.4-1.7-3.7-2.4-5.9-1.7c-2.2,0.7-3.6,2.7-3.8,4.8c-2.1-0.5-4.4,0.3-5.8,2.1
			c-1.4,1.9-1.4,4.3-0.2,6.2c-0.7,0.3-1.3,0.7-1.8,1.2c-1,1-1.6,2.5-1.6,3.9c0,1.5,0.6,2.9,1.6,3.9c1,1,2.5,1.6,3.9,1.6h27.3
			c1.5,0,2.9-0.6,3.9-1.6c1-1,1.6-2.5,1.6-3.9C69.9,195.4,69.3,194,68.3,193z"/>
		<g class="st15">
			<path class="st60" d="M58.2,197.7c0,1.3-1.1,2.3-1.1,2.3s-1.1-1-1.1-2.3c0-1.3,1.1-2.3,1.1-2.3S58.2,196.5,58.2,197.7z"/>
			<path class="st60" d="M65.8,198.6c-0.9,0.9-2.4,0.8-2.4,0.8s-0.1-1.5,0.8-2.4c0.9-0.9,2.4-0.8,2.4-0.8S66.6,197.7,65.8,198.6z"/>
			<path class="st60" d="M62.5,186.5c0.9,0.9,0.8,2.4,0.8,2.4s-1.5,0.1-2.4-0.8c-0.9-0.9-0.8-2.4-0.8-2.4S61.6,185.6,62.5,186.5z"/>
			<path class="st60" d="M44.2,196.9c0.9,0.9,0.8,2.4,0.8,2.4s-1.5,0.1-2.4-0.8c-0.9-0.9-0.8-2.4-0.8-2.4S43.3,196,44.2,196.9z"/>
			<path class="st60" d="M38.8,197.7c0,1.3-1.1,2.3-1.1,2.3s-1.1-1-1.1-2.3c0-1.3,1.1-2.3,1.1-2.3S38.8,196.4,38.8,197.7z"/>
			<path class="st60" d="M47,191.4c0.9,0.9,0.8,2.4,0.8,2.4s-1.5,0.1-2.4-0.8c-0.9-0.9-0.8-2.4-0.8-2.4S46.1,190.5,47,191.4z"/>
			<path class="st60" d="M40.8,186.3c0.9,0.9,0.8,2.4,0.8,2.4s-1.5,0.1-2.4-0.8c-0.9-0.9-0.8-2.4-0.8-2.4S39.9,185.4,40.8,186.3z"/>
			<path class="st60" d="M50.2,195.7c0.9-0.9,2.4-0.8,2.4-0.8s0.1,1.5-0.8,2.4c-0.9,0.9-2.4,0.8-2.4,0.8S49.3,196.6,50.2,195.7z"/>
			<path class="st60" d="M47.4,185.5c-0.9,0.9-2.4,0.8-2.4,0.8s-0.1-1.5,0.8-2.4c0.9-0.9,2.4-0.8,2.4-0.8S48.3,184.7,47.4,185.5z"/>
			<path class="st60" d="M56.8,191c-0.9,0.9-2.4,0.8-2.4,0.8s-0.1-1.5,0.8-2.4c0.9-0.9,2.4-0.8,2.4-0.8S57.7,190.2,56.8,191z"/>
			<path class="st60" d="M41.1,194.9c-1.3,0-2.3-1.1-2.3-1.1s1-1.1,2.3-1.1c1.3,0,2.3,1.1,2.3,1.1S42.4,194.9,41.1,194.9z"/>
			<path class="st60" d="M61.7,193.3c-1.3,0-2.3-1.1-2.3-1.1s1-1.1,2.3-1.1c1.3,0,2.3,1.1,2.3,1.1S62.9,193.3,61.7,193.3z"/>
			<path class="st60" d="M53.9,183.7c0-1.3,1.1-2.3,1.1-2.3s1.1,1,1.1,2.3s-1.1,2.3-1.1,2.3S53.9,185,53.9,183.7z"/>
			<path class="st60" d="M50.8,188.7c-1.3,0-2.3-1.1-2.3-1.1s1-1.1,2.3-1.1c1.3,0,2.3,1.1,2.3,1.1S52.1,188.7,50.8,188.7z"/>
		</g>
	</g>
	<g class="st0">
		<path class="st22" d="M241.3,162.2c-0.4-0.4-0.8-0.7-1.3-0.9c0.8-1.3,0.8-3.1-0.2-4.5c-1-1.4-2.7-1.9-4.2-1.5
			c-0.1-1.6-1.2-3-2.8-3.5c-1.6-0.5-3.3,0-4.3,1.2c-1-1.2-2.7-1.7-4.3-1.2c-1.6,0.5-2.6,1.9-2.8,3.5c-1.5-0.4-3.2,0.2-4.2,1.5
			c-1,1.4-1,3.1-0.2,4.5c-0.5,0.2-0.9,0.5-1.3,0.9c-0.7,0.7-1.2,1.8-1.2,2.8c0,1.1,0.4,2.1,1.2,2.8c0.7,0.7,1.8,1.2,2.8,1.2h19.8
			c1.1,0,2.1-0.4,2.8-1.2c0.7-0.7,1.2-1.8,1.2-2.8C242.5,164,242.1,162.9,241.3,162.2z"/>
		<g class="st15">
			<path class="st60" d="M234,165.7c0,0.9-0.8,1.7-0.8,1.7s-0.8-0.7-0.8-1.7c0-0.9,0.8-1.7,0.8-1.7S234,164.8,234,165.7z"/>
			<path class="st60" d="M239.5,166.3c-0.6,0.6-1.8,0.6-1.8,0.6s-0.1-1.1,0.6-1.8c0.6-0.6,1.8-0.6,1.8-0.6S240.1,165.6,239.5,166.3z
				"/>
			<path class="st60" d="M237.1,157.5c0.6,0.6,0.6,1.8,0.6,1.8s-1.1,0.1-1.8-0.6c-0.6-0.6-0.6-1.8-0.6-1.8S236.4,156.8,237.1,157.5z
				"/>
			<path class="st60" d="M223.8,165c0.6,0.6,0.6,1.8,0.6,1.8s-1.1,0.1-1.8-0.6c-0.6-0.6-0.6-1.8-0.6-1.8S223.2,164.4,223.8,165z"/>
			<path class="st60" d="M219.9,165.6c0,0.9-0.8,1.7-0.8,1.7s-0.8-0.7-0.8-1.7s0.8-1.7,0.8-1.7S219.9,164.7,219.9,165.6z"/>
			<path class="st60" d="M225.9,161.1c0.6,0.6,0.6,1.8,0.6,1.8s-1.1,0.1-1.8-0.6c-0.6-0.6-0.6-1.8-0.6-1.8S225.2,160.4,225.9,161.1z
				"/>
			<path class="st60" d="M221.3,157.4c0.6,0.6,0.6,1.8,0.6,1.8s-1.1,0.1-1.8-0.6c-0.6-0.6-0.6-1.8-0.6-1.8S220.7,156.7,221.3,157.4z
				"/>
			<path class="st60" d="M228.2,164.2c0.6-0.6,1.8-0.6,1.8-0.6s0.1,1.1-0.6,1.8c-0.6,0.6-1.8,0.6-1.8,0.6S227.6,164.8,228.2,164.2z"
				/>
			<path class="st60" d="M226.2,156.8c-0.6,0.6-1.8,0.6-1.8,0.6s-0.1-1.1,0.6-1.8c0.6-0.6,1.8-0.6,1.8-0.6S226.8,156.2,226.2,156.8z
				"/>
			<path class="st60" d="M233,160.8c-0.6,0.6-1.8,0.6-1.8,0.6s-0.1-1.1,0.6-1.8c0.6-0.6,1.8-0.6,1.8-0.6S233.6,160.2,233,160.8z"/>
			<path class="st60" d="M221.6,163.6c-0.9,0-1.7-0.8-1.7-0.8s0.7-0.8,1.7-0.8c0.9,0,1.7,0.8,1.7,0.8S222.5,163.6,221.6,163.6z"/>
			<path class="st60" d="M236.5,162.5c-0.9,0-1.7-0.8-1.7-0.8s0.7-0.8,1.7-0.8c0.9,0,1.7,0.8,1.7,0.8S237.4,162.5,236.5,162.5z"/>
			<path class="st60" d="M230.9,155.5c0-0.9,0.8-1.7,0.8-1.7s0.8,0.7,0.8,1.7s-0.8,1.7-0.8,1.7S230.9,156.4,230.9,155.5z"/>
			<path class="st60" d="M228.6,159.1c-0.9,0-1.7-0.8-1.7-0.8s0.7-0.8,1.7-0.8c0.9,0,1.7,0.8,1.7,0.8S229.5,159.1,228.6,159.1z"/>
		</g>
	</g>
	<g class="st0">
		<g>
			<g>
				<path class="st61" d="M70.6,125.9c0,0-3-1.5-4.6,1.1c-1.6,2.5-2.7,2.9-2.7,2.9s2.9,1.2,4.2-0.5c1.1-1.4,0.8-1.4,1.4-2.1
					c0.5-0.5,0.7-0.4,1.8-0.2"/>
				<path class="st62" d="M78.3,132c-0.1-0.3-0.3-0.6-0.2-1.3c0.1-0.6,0.3-1.2,0.3-1.2c0.5-2.2-0.8-4.2-2.8-4.7c-2-0.4-4,0.8-4.5,3
					c-0.3,1.4,0,2.8,0.8,3.7c0.1,0.1,0.2,0.2,0.3,0.3l-1.5,2.2l2.6,2.6l1-2.2c0.2-0.4,0.4-0.4,0.8-0.3c0.3,0.1,0.5,0.1,0.8,0.2
					c0.5,0.1,1,0,1.2-0.8l0.5-1.2l0.4,0.1C78.2,132.4,78.4,132.2,78.3,132z"/>
				<path class="st62" d="M78.4,129.4C78.4,129.5,78.4,129.5,78.4,129.4C78.4,129.5,78.4,129.4,78.4,129.4
					C78.4,129.4,78.4,129.4,78.4,129.4z"/>
				<polygon class="st62" points="78.4,129.4 78.4,129.4 78.4,129.4 				"/>
				<path class="st62" d="M78.4,129.4C78.4,129.5,78.4,129.4,78.4,129.4L78.4,129.4z"/>
				<path class="st62" d="M78.4,129.4C78.4,129.4,78.4,129.4,78.4,129.4C78.4,129.4,78.4,129.4,78.4,129.4z"/>
				<path class="st62" d="M78.4,129.4L78.4,129.4C78.4,129.5,78.4,129.5,78.4,129.4z"/>
				<path class="st61" d="M78.4,129.4c0.5-2.2-0.8-4.2-2.8-4.7c-2-0.4-4,0.8-4.5,3c-0.3,1.4,0,2.9,0.8,3.8c0.1,0.1,0.8,1.1,1,0.5
					c0.1-0.2,0.1-0.7,0.3-1.2c-0.4-0.2-0.8-0.8-0.6-1.4c0.1-0.7,1-1,1.1-0.4c0,0,0.2,0.8,0.2,1.1c0.1,0.3,0.5,0.3,0.5,0
					c0-0.2,0-0.2,0.5-1.9C75.1,127,75.4,128.8,78.4,129.4z M73.8,128.4C73.8,128.4,73.8,128.4,73.8,128.4L73.8,128.4z"/>
				<g>
					<polygon class="st62" points="78.3,129.4 78.3,129.4 78.3,129.4 					"/>
					<path class="st62" d="M78.3,129.4C78.3,129.4,78.3,129.3,78.3,129.4L78.3,129.4z"/>
					<path class="st62" d="M78.3,129.4L78.3,129.4C78.3,129.4,78.3,129.3,78.3,129.4z"/>
					<path class="st62" d="M78.3,129.4L78.3,129.4C78.3,129.4,78.3,129.4,78.3,129.4z"/>
				</g>
			</g>
			<g>
				<path class="st63" d="M74.9,133.5c-0.3-0.4-0.4-1.3-0.3-1.7l0.9-3.6c0-0.2-0.1-0.4-0.3-0.4c-0.2,0-0.4,0.1-0.4,0.3l-0.9,3.6
					c-0.2,0.7,0,1.7,0.3,2.3l0.2,0.3c0,0,0.9,0,0.9,0L74.9,133.5z"/>
				<g>
					<path class="st64" d="M70.2,127c-0.2,0.9-0.3,2.7,1.3,3.1c1.6,0.4,1.6-1.6,3-1.2c0.7,0.2,3.9,1,3.9,1c0.5,0.1,0.7-0.1,0.8-0.7
						l-4.3-2.2L70.2,127z"/>
					<path class="st65" d="M70.2,127c1.6-6.2,10-3.5,9.1,2.3"/>
				</g>
				
					<ellipse transform="matrix(0.2425 -0.9702 0.9702 0.2425 -64.7061 171.5343)" class="st64" cx="77.5" cy="127.2" rx="0.6" ry="0.6"/>
			</g>
		</g>
		<g>
			<g>
				<path class="st66" d="M72.7,148.7l-2.2-0.1l1.4,0.9C73.1,149.3,72.7,148.7,72.7,148.7z"/>
				<g>
					<path class="st62" d="M70.4,148.5l-1.4,1.2c0,0,0.1,0.6,1.4,2.2c0.6,0.7,2.8-0.2,2.6-0.8C72.9,150.4,72.4,149.1,70.4,148.5z"/>
				</g>
			</g>
			<path class="st67" d="M67.1,135c-0.6,1.3-3.1,6.7-3.1,6.9c0,0.1-0.2,0.7,0.4,1.3l4.8,6.7l1.4-1.3l-3.2-6.8c0,0,2.2-3.4,3.1-4.9
				c0.9-1.5,0.7-2.5-0.5-3.2"/>
		</g>
		<path class="st68" d="M58.5,144.3c-0.8,1.1-5.3,8.8-5.3,8.8H38.7v3.2c0,0,11.6,1.4,14.2,1.6c0.8,0.1,2.3,0.5,3.8-1l9.8-10.6"/>
		<path class="st69" d="M72.5,151.6l-8.5-8h-5c0,0-1.9,4,1.3,6.5c1.1,0.8,8.3,5.1,8.3,5.1l-5.1,14.5h3.2c0,0,5.7-11.9,6.8-14.2
			C73.8,154.6,74,153.1,72.5,151.6z"/>
		<g>
			<g>
				<path class="st63" d="M63.8,168.3l-0.3,1.8l0.3,0.9l8.2,0c0,0,1-1.2-1.1-1.9c-2-0.7-3.7-1.6-3.7-1.6h-0.7
					c-0.7,0.6-0.9,0.9-1.6,0.9C64.2,168.3,63.8,168.3,63.8,168.3z"/>
			</g>
			<path class="st63" d="M68.2,166.6c-0.2-0.3-0.6-0.3-0.9,0l-1,0.9c-0.3,0.3-0.4,0.7-0.2,0.9l0,0c0.2,0.3,0.6,0.3,0.9,0l1-0.9
				C68.3,167.3,68.4,166.9,68.2,166.6L68.2,166.6z"/>
			<g>
				<path class="st70" d="M65.2,168.8h-1.5l-0.2,1.3l0.1,0.8h3.1l0-0.2C66.9,169.6,66.2,168.8,65.2,168.8z"/>
			</g>
			<path class="st29" d="M72.2,170.1l-8.8,0l-0.2,1.1l8.8,0C72,171.2,72.2,170.6,72.2,170.1z"/>
		</g>
		<path class="st71" d="M54.6,170.8c0.8,0.5,1.7,0.7,2.7,0.7h19.9c0.8,0,1.6-0.2,2.2-0.5"/>
		<g>
			<circle class="st72" cx="60.8" cy="173.9" r="1.1"/>
			<circle class="st73" cx="60.8" cy="173.9" r="0.7"/>
		</g>
		<g>
			<circle class="st72" cx="73.6" cy="173.9" r="1.1"/>
			<circle class="st73" cx="73.6" cy="173.9" r="0.7"/>
		</g>
		<g>
			<g>
				<path class="st63" d="M39.4,153.1l-1.6-0.9l-1,0l-4.1,7.1c0,0,0.7,1.3,2.4-0.3c1.7-1.5,3.5-2.7,3.5-2.7l0.4-0.6
					c-0.2-0.8-0.4-1.1-0.1-1.7C39.2,153.5,39.4,153.1,39.4,153.1z"/>
			</g>
			<path class="st63" d="M38.8,157.5c0.3-0.1,0.6-0.5,0.5-0.8l-0.3-1.2c-0.1-0.3-0.5-0.6-0.8-0.5l0,0c-0.3,0.1-0.6,0.5-0.5,0.8
				l0.3,1.2C38.1,157.4,38.5,157.6,38.8,157.5L38.8,157.5z"/>
			<g>
				<path class="st70" d="M38.2,154.2l0.8-1.3l-1.1-0.6L37,152l-1.6,2.7l0.2,0.1C36.5,155.4,37.7,155.1,38.2,154.2z"/>
			</g>
			<path class="st29" d="M33.4,159.8l4.4-7.6l-1-0.6l-4.4,7.6C32.5,159.3,33,159.7,33.4,159.8z"/>
		</g>
		<path class="st74" d="M73.7,135.7l-1.5-2.7c-6.1,0-10.9,7.5-13.7,11.3l8.5,2.1c0,0,0.9-2.5,1.8-3.9c0.9-1.4,3.5,0.2,4.1-1.7
			C73.3,139.6,73.3,137.4,73.7,135.7z"/>
		<path class="st74" d="M71.4,129.6c0.8,0.9,2.3,6.1,2.3,6.1s-4.7-2.2-5.5-3.1c-0.8-0.9-0.8-2.3,0.1-3.1
			C69.1,128.7,70.5,128.7,71.4,129.6z"/>
		<polyline class="st75" points="67,146.4 68.8,142.3 68.7,136.6 63.2,145.5 		"/>
		<g>
			<g>
				<path class="st66" d="M79.4,148.1l-2.3,0.7l1.8,0.4C80,148.7,79.4,148.1,79.4,148.1z"/>
				<g>
					<path class="st62" d="M77,148.7l-1,1.7c0,0,0.4,0.6,2.2,1.8c0.9,0.6,2.8-1.2,2.4-1.8C80.1,149.9,79.2,148.7,77,148.7z"/>
				</g>
			</g>
			<path class="st74" d="M68.8,135.9c-0.2,1.6-0.9,8-0.9,8.2c0,0.2,0.1,0.7,0.8,1.3l7.2,5.3l1.1-1.8l-5.6-6c0,0,1.1-4.3,1.6-6.1
				c0.5-1.9-0.1-2.8-1.6-3.2C69.9,133,69,134.3,68.8,135.9z"/>
		</g>
	</g>
	<g class="st0">
		
			<linearGradient id="SVGID_7_" gradientUnits="userSpaceOnUse" x1="3813.1509" y1="170.0676" x2="3879.9839" y2="170.0676" gradientTransform="matrix(-1 0 0 1 4195.8018 0)">
			<stop  offset="0" style="stop-color:#000000;stop-opacity:0"/>
			<stop  offset="1" style="stop-color:#000000"/>
		</linearGradient>
		<path class="st76" d="M316.2,170.6h66c0.2,0,0.4-0.2,0.4-0.4V170c0-0.2-0.2-0.4-0.4-0.4h-66c-0.2,0-0.4,0.2-0.4,0.4v0.2
			C315.8,170.4,316,170.6,316.2,170.6z"/>
		<g>
			<polyline class="st77" points="331.6,129 329.8,126.9 331.1,124.2 333.3,125.9 			"/>
		</g>
		<g>
			<g>
				<path class="st77" d="M326.1,118.9c1.7-1,3.8-0.4,4.9,1.5c0.7,1.2,0.7,2.5,0.3,3.6c-0.4,1-1,3.5-1,3.5c-0.4-0.5-0.7-0.5-1-0.3
					c-0.2,0.1-0.4,0.3-0.7,0.4c-0.4,0.2-0.9,0.3-1.4-0.4l-0.8-1l-0.3,0.2c-0.2,0.1-0.5,0-0.5-0.2c0-0.3,0.1-0.7-0.2-1.2
					c-0.3-0.5-0.6-1-0.6-1C323.8,122,324.4,119.8,326.1,118.9z"/>
			</g>
			<g>
				<path class="st77" d="M324.9,123.9C324.9,123.9,324.9,123.9,324.9,123.9C324.9,123.9,324.9,123.9,324.9,123.9
					C324.9,123.9,324.9,123.9,324.9,123.9z"/>
			</g>
		</g>
		<g>
			<g>
				<path class="st78" d="M346.1,140c0.6,0.2,0.9,0.9,0.7,1.5l-1,2.9c-0.2,0.6-0.2,1.5,0.1,2.1c0,0,0.6,1.4,0.9,4.7
					c0.3,3.3,0.6,4.7,0.6,4.7c0.1,0.6-0.1,1.2-0.4,1.2c-0.4,0.1-0.9-0.3-1.1-0.9l-4.3-10.2c-0.2-0.6-0.4-1.6-0.4-2.2l0.3-4.7
					c0-0.6,0.5-0.9,1.1-0.7L346.1,140z"/>
			</g>
		</g>
		<g>
			<g>
				<polyline class="st79" points="341.1,142.7 346.3,142.7 346.7,141.5 349.6,132.5 341.7,132 				"/>
			</g>
		</g>
		<g>
			<g>
				<g>
					<g>
						<path class="st79" d="M347.3,155.6l0.5,2.5l-6,1.1c0,0-0.7-0.8,0.7-1.5c1.4-0.7,3-1.9,3-1.9l-0.6-1.3l2.1-0.2L347.3,155.6z"/>
					</g>
				</g>
			</g>
			<g>
				<g>
					<path class="st29" d="M341.6,158.6l6-1.2l0.1,0.8l-6,1.2C341.7,159.4,341.5,158.9,341.6,158.6z"/>
				</g>
			</g>
		</g>
		<g>
			<g>
				<g>
					<path class="st80" d="M331.3,125.8c0.7-2.2,2.8-3.3,4.8-3.3c6.4,0,10.8,2.9,12.2,4.3l-3.8,2.9h-11.5l-3.1,1.4
						C329.8,131.2,331,126.5,331.3,125.8z"/>
				</g>
			</g>
		</g>
		<g>
			<g>
				<path class="st81" d="M329.3,138.6"/>
			</g>
		</g>
		<g>
			<g>
				<path class="st81" d="M353.3,134.5"/>
			</g>
		</g>
		<g>
			<g>
				<path class="st82" d="M335.3,128.4h14l-3.6,1.9l-7.2,0c0,0-1,1-1.7,0.7c-1.8-1-4.3-2.2-4.3-2.2L335.3,128.4z"/>
			</g>
		</g>
		<g>
			<g>
				<path class="st29" d="M311.4,158.2c0-6,4.9-10.9,10.9-10.9c6,0,10.9,4.9,10.9,10.9c0,6-4.9,10.9-10.9,10.9
					C316.3,169.1,311.4,164.2,311.4,158.2z M312.4,158.2c0,5.5,4.4,9.9,9.9,9.9c5.5,0,9.9-4.4,9.9-9.9c0-5.5-4.4-9.9-9.9-9.9
					C316.9,148.3,312.4,152.7,312.4,158.2z"/>
			</g>
		</g>
		<g>
			<g>
				<circle class="st29" cx="322.3" cy="158.2" r="1.9"/>
			</g>
			<g>
				<path class="st29" d="M320.2,158.2c0-1.2,1-2.2,2.2-2.2c1.2,0,2.2,1,2.2,2.2s-1,2.2-2.2,2.2
					C321.1,160.4,320.2,159.4,320.2,158.2z M320.7,158.2c0,0.9,0.7,1.7,1.7,1.7c0.9,0,1.7-0.7,1.7-1.7c0-0.9-0.7-1.7-1.7-1.7
					C321.4,156.5,320.7,157.3,320.7,158.2z"/>
			</g>
		</g>
		<g>
			<g>
				<path class="st29" d="M347,158.2c0-6,4.9-10.9,10.9-10.9c6,0,10.9,4.9,10.9,10.9c0,6-4.9,10.9-10.9,10.9
					C351.9,169.1,347,164.2,347,158.2z M348,158.2c0,5.5,4.4,9.9,9.9,9.9c5.5,0,9.9-4.4,9.9-9.9c0-5.5-4.4-9.9-9.9-9.9
					C352.4,148.3,348,152.7,348,158.2z"/>
			</g>
		</g>
		<g>
			<g>
				<circle class="st29" cx="357.9" cy="158.2" r="1.9"/>
			</g>
			<g>
				<path class="st29" d="M355.7,158.2c0-1.2,1-2.2,2.2-2.2c1.2,0,2.2,1,2.2,2.2s-1,2.2-2.2,2.2
					C356.7,160.4,355.7,159.4,355.7,158.2z M356.2,158.2c0,0.9,0.7,1.7,1.7,1.7c0.9,0,1.7-0.7,1.7-1.7c0-0.9-0.7-1.7-1.7-1.7
					C357,156.5,356.2,157.3,356.2,158.2z"/>
			</g>
		</g>
		<g>
			<g>
				<path class="st64" d="M310.5,158.2c0-6.5,5.3-11.9,11.9-11.9c6.5,0,11.9,5.3,11.9,11.9c0,6.5-5.3,11.9-11.9,11.9
					C315.8,170.1,310.5,164.7,310.5,158.2z M311.5,158.2c0,6,4.9,10.8,10.8,10.8c6,0,10.8-4.9,10.8-10.8c0-6-4.9-10.8-10.8-10.8
					C316.4,147.4,311.5,152.2,311.5,158.2z"/>
			</g>
		</g>
		<g>
			<g>
				<path class="st74" d="M322.4,158.7c0.2,0,0.4-0.1,0.5-0.3l6.9-18.2c0-0.1,0-0.1,0-0.2v-2.4c0-0.3-0.2-0.5-0.5-0.5h-5.2
					c-0.3,0-0.5,0.2-0.5,0.5c0,0.3,0.2,0.5,0.5,0.5h4.7v1.8l-6.9,18.1c-0.1,0.3,0,0.6,0.3,0.7C322.3,158.7,322.3,158.7,322.4,158.7z
					"/>
			</g>
		</g>
		<g>
			<g>
				<path class="st74" d="M321.5,141.3c0.3,0,0.5-0.2,0.5-0.5c0-0.3-0.2-0.5-0.5-0.5c-0.6,0-1.1-0.5-1.1-1.1s0.5-1.1,1.1-1.1h2.6
					c0.3,0,0.5-0.2,0.5-0.5c0-0.3-0.2-0.5-0.5-0.5h-2.6c-1.2,0-2.1,1-2.1,2.1C319.4,140.4,320.3,141.3,321.5,141.3z"/>
			</g>
		</g>
		<g>
			<g>
				<path class="st64" d="M346,158.2c0-6.5,5.3-11.9,11.9-11.9c6.5,0,11.9,5.3,11.9,11.9c0,6.5-5.3,11.9-11.9,11.9
					C351.3,170.1,346,164.7,346,158.2z M347,158.2c0,6,4.9,10.8,10.8,10.8c6,0,10.8-4.9,10.8-10.8c0-6-4.9-10.8-10.8-10.8
					C351.9,147.4,347,152.2,347,158.2z"/>
			</g>
		</g>
		<g>
			<g>
				<path class="st74" d="M341.4,158.6l-13.4-13.4c-0.1-0.1-0.2-0.4-0.1-0.6c0.1-0.2,0.3-0.3,0.5-0.3h20.3c0.2,0,0.3,0.1,0.4,0.2
					l9.2,13.4c0.1,0.2,0.1,0.4,0,0.5c-0.1,0.2-0.3,0.3-0.4,0.3h-16.1C341.6,158.7,341.5,158.7,341.4,158.6z M348.4,145.3h-18.8
					l12.4,12.4h15L348.4,145.3z"/>
			</g>
		</g>
		<g>
			<g>
				<path class="st74" d="M341.7,158.7c0.2,0,0.4-0.1,0.5-0.3l9.7-19.4c0.1-0.3,0-0.6-0.2-0.7c-0.2-0.1-0.6,0-0.7,0.2l-9.7,19.4
					c-0.1,0.3,0,0.6,0.2,0.7C341.6,158.7,341.7,158.7,341.7,158.7z"/>
			</g>
		</g>
		<g>
			<g class="st83">
				<path class="st84" d="M342,158.4c0.1,0,0.1,0,0.2-0.1l9.7-19.4c0-0.1,0-0.2-0.1-0.3c-0.1,0-0.2,0-0.3,0.1l-9.7,19.4
					C341.8,158.2,341.8,158.3,342,158.4C341.9,158.4,342,158.4,342,158.4z"/>
			</g>
		</g>
		<g>
			<path class="st29" d="M324.1,140.3c0.3,0,0.5,0.2,0.5,0.5c0,0.3-0.2,0.5-0.5,0.5h-2.6v-1H324.1z"/>
		</g>
		<g>
			<g>
				<path class="st63" d="M354.3,138.1c0,2.1-4.9,1.9-6.8,0H354.3z"/>
			</g>
			<g>
				<path class="st63" d="M347.1,138.4c-0.1-0.1-0.2-0.3-0.1-0.5c0.1-0.2,0.2-0.3,0.4-0.3h6.8c0.2,0,0.4,0.2,0.4,0.4
					c0,1.2-1.1,2-3,2l0,0C350.3,140.1,348.3,139.6,347.1,138.4z M348.9,138.6c0.8,0.4,1.8,0.6,2.8,0.6h0c0.8,0,1.6-0.2,2-0.6H348.9z
					"/>
			</g>
		</g>
		<g>
			<g class="st83">
				<path class="st84" d="M322.7,158.4c0.1,0,0.1,0,0.2-0.1l6.9-18.2c0-0.1,0-0.2-0.1-0.2c-0.1,0-0.2,0-0.2,0.1l-6.9,18.2
					C322.4,158.2,322.5,158.4,322.7,158.4C322.6,158.4,322.6,158.4,322.7,158.4z"/>
			</g>
		</g>
		<g>
			<g>
				<polygon class="st62" points="353.4,119.7 353.4,119.7 353.4,119.7 				"/>
			</g>
			<g>
				<path class="st62" d="M353.4,119.7C353.4,119.8,353.4,119.7,353.4,119.7L353.4,119.7z"/>
			</g>
			<g>
				<path class="st62" d="M353.4,119.7L353.4,119.7C353.4,119.7,353.4,119.7,353.4,119.7z"/>
			</g>
			<g>
				<path class="st62" d="M353.4,119.7L353.4,119.7C353.4,119.7,353.4,119.7,353.4,119.7z"/>
			</g>
		</g>
		<g>
			<path class="st85" d="M331.8,119.2c0,0,2.1-1.9,4-0.2c1.7,1.5,2.7,1.6,2.7,1.6c0,0,0.1,0,0.1,0.1c0,0,0,0.1,0,0.1
				c0,0-0.5,0.4-1.2,0.7c-0.5,0.2-1,0.3-1.4,0.2c-0.3,0-0.7-0.2-0.9-0.4c-0.6-0.4-0.8-0.7-1-0.8c-0.2-0.2-0.3-0.3-0.6-0.4
				c-0.5-0.3-0.8-0.3-1.6,0c-0.1,0-0.1,0-0.2-0.1c0-0.1,0-0.1,0.1-0.2c0,0,0,0,0,0l0-0.5c0,0-0.1,0-0.1,0
				C331.8,119.3,331.8,119.2,331.8,119.2z"/>
		</g>
		<g>
			<g>
				
					<rect x="332" y="119" transform="matrix(0.9007 -0.4344 0.4344 0.9007 -18.9289 156.1625)" class="st86" width="0.5" height="1.1"/>
			</g>
		</g>
		<g>
			<g>
				<path class="st85" d="M324.2,123.1l-0.7,0.2c0,0-0.1,0-0.1,0c0,0-0.1-0.1-0.1-0.1c0-0.1,0.3-1.7,1.8-3c2.2-1.8,5.4-2,6.7,0.1
					c1.3,2.2-0.2,4.2-1.9,5.4c0,0-0.1,0-0.1,0c0,0,0,0,0,0c0,0-0.1-0.1-0.1-0.1v-3.5c-0.6,1-1.1,1.6-1.8,1.7c0,0,0,0,0,0
					c0,0,0,0,0,0c-0.1,0-0.1-0.1-0.1-0.1s0-0.1,0-0.1v-0.9"/>
			</g>
		</g>
		<g>
			<path class="st78" d="M320,135.6l1.3,1.5l-1.5-0.5C319.3,135.7,320,135.6,320,135.6z"/>
		</g>
		<g>
			<g>
				<g>
					<path class="st80" d="M330.2,138c0.7-0.3,1.2-1,1.1-1.9c-0.2-0.9-1-1.5-1.9-1.4c0,0,0,0-0.1,0l0,0l-7.8,2.1
						c-0.5,0.1-1,0.4-0.9,0.9c0.1,0.6,0.6,1.1,1.2,1l8.1-0.7C329.9,138.1,330.1,138.1,330.2,138z"/>
				</g>
			</g>
		</g>
		<g>
			<g>
				<g>
					<path class="st80" d="M328.4,136.2l2.1-7.6l0.8-2.8l4.5,1.6l-4.7,9.8c-0.3,0.7-1.2,1.1-1.9,0.7
						C328.5,137.6,328.2,136.9,328.4,136.2z"/>
				</g>
			</g>
		</g>
		<g>
			<g>
				<path class="st77" d="M321.4,137.1l0,1.7c0,0-0.5,0.3-2.3,0.3c-0.9,0-1.5-2.1-0.9-2.3C318.6,136.5,319.8,136.1,321.4,137.1z"/>
			</g>
		</g>
		<g>
			<g>
				<rect x="321.3" y="136.6" class="st69" width="0.3" height="2.4"/>
			</g>
			<g>
				<path class="st69" d="M321.2,139v-2.4c0-0.1,0.1-0.1,0.1-0.1h0.3c0.1,0,0.1,0.1,0.1,0.1v2.4c0,0.1-0.1,0.1-0.1,0.1h-0.3
					C321.3,139.2,321.2,139.1,321.2,139z M321.5,136.8L321.5,136.8l0,2.1h0V136.8z"/>
			</g>
		</g>
		<g>
			<g>
				<g>
					<polygon class="st79" points="326.6,123.2 327.1,122.9 329.5,127.1 329,127.4 					"/>
				</g>
			</g>
			<g class="st21">
				<polygon class="st62" points="329.5,121.5 325.1,124.1 325.5,124.8 330,122.3 				"/>
			</g>
			<g>
				<g>
					<path class="st79" d="M328.6,125.7c1.2-0.7,1.6-2.3,0.9-3.5l-0.5,0.3c0.5,0.9,0.2,2.2-0.7,2.7L328.6,125.7z"/>
				</g>
			</g>
			<g>
				<path class="st87" d="M322.8,123.7c0.9-2,2.2-4.6,3.7-5.4c2.2-1.3,4.3-1,5.3,0.8c0.9,1.6,1.1,3.3,0.4,3.7l-1.3,0.8
					c-0.8,0.4-1.2-0.1-1.5-0.6c-0.4-0.7-0.6-0.7-0.9-0.5l-3.2,1.9c-0.1,0.1-0.5,0.2-0.8-0.1c-0.3,0-0.9,0.1-1.1,0.2
					c-0.3,0-0.4-0.1-0.5-0.2C322.8,124.2,322.7,124,322.8,123.7z"/>
			</g>
			<g>
				<g>
					<path class="st88" d="M330.2,122.4c-0.1-0.2,0-0.4,0.1-0.4l1.2-0.7c0.2-0.1,0.4,0,0.4,0.1l0,0c0.1,0.2,0,0.4-0.1,0.4l-1.2,0.7
						C330.5,122.6,330.3,122.5,330.2,122.4L330.2,122.4z"/>
				</g>
			</g>
			<g>
				<g>
					<path class="st88" d="M329.6,121.4c-0.1-0.2,0-0.4,0.1-0.4l1.2-0.7c0.2-0.1,0.4,0,0.4,0.1l0,0c0.1,0.2,0,0.4-0.1,0.4l-1.2,0.7
						C329.9,121.6,329.7,121.5,329.6,121.4L329.6,121.4z"/>
				</g>
			</g>
		</g>
		<g>
			<g>
				<path class="st77" d="M342.4,138.8l-2.9,2c0,0,1.1,1,1.7,2.2c0.7,1.2,1.8,5.2,2.7,6.9c0.9,1.7,0.4,1.3,0.1,1.5
					c-0.2,0.2-0.3,1.7-0.7,1.3c-1.2-1.5-7.8-10.5-8.8-12.1c-0.9-1.4-0.4-3.2,0.7-3.9l4.2-3.1"/>
			</g>
		</g>
		<g>
			<path class="st87" d="M348.2,126.9l0.3,0.3c1.4,1.6,2.7,5.8-1,8.3c-2.5,1.7-5.2,3.4-5.2,3.4l-3.3-4.9L348.2,126.9z"/>
		</g>
		<g>
			<g>
				<g>
					<g>
						<path class="st79" d="M344.6,151.1l1.1,2.2l-5.4,2.7c0,0-0.9-0.5,0.3-1.7c1.1-1.1,2.3-2.5,2.3-2.5l-0.8-1.1l1.9-1L344.6,151.1
							z"/>
					</g>
				</g>
			</g>
			<g>
				<g>
					<path class="st29" d="M339.9,155.6l5.5-2.8l0.4,0.7l-5.5,2.8C340.3,156.3,340,156,339.9,155.6z"/>
					<path class="st29" d="M340.3,156.3c0,0-0.3-0.4-0.4-0.7c0,0,0,0,0,0l5.5-2.8c0,0,0,0,0,0l0.4,0.7c0,0,0,0,0,0c0,0,0,0,0,0
						L340.3,156.3C340.3,156.3,340.3,156.3,340.3,156.3C340.3,156.3,340.3,156.3,340.3,156.3z M345.4,152.9l-5.4,2.7
						c0.1,0.3,0.3,0.6,0.3,0.6l5.4-2.7L345.4,152.9z"/>
				</g>
			</g>
		</g>
	</g>
	<g class="st0">
		<g>
			
				<linearGradient id="SVGID_8_" gradientUnits="userSpaceOnUse" x1="7886.8398" y1="185.3745" x2="7918.144" y2="185.3745" gradientTransform="matrix(-1 0 0 1 8158.1577 0)">
				<stop  offset="0" style="stop-color:#000000;stop-opacity:0"/>
				<stop  offset="1" style="stop-color:#000000"/>
			</linearGradient>
			<path class="st89" d="M240.3,185.8H271c0.2,0,0.3-0.1,0.3-0.2v-0.4c0-0.1-0.1-0.2-0.3-0.2h-30.7c-0.2,0-0.3,0.1-0.3,0.2v0.4
				C240,185.7,240.1,185.8,240.3,185.8z"/>
			<g>
				<g>
					<g>
						<polygon class="st90" points="252.2,137.4 253.3,140.1 249.9,142.3 249.3,139.4 						"/>
					</g>
					<g>
						<g>
							<path class="st91" d="M250.2,130.2c2,0,3.7,1.6,3.7,3.9c0,1.4-0.6,2.7-1.6,3.4c-0.9,0.7-2.9,2.3-2.9,2.3l-1.9,0
								c-0.6,0-1-0.5-1-1l0-1.7c0,0-0.2,0-0.4,0c-0.2,0-0.4-0.2-0.3-0.4l0.7-1.3l0-1.2C246.4,131.9,248.1,130.2,250.2,130.2z"/>
						</g>
						<g>
							<path class="st62" d="M246.4,134.2L246.4,134.2C246.4,134.2,246.4,134.2,246.4,134.2C246.4,134.2,246.4,134.2,246.4,134.2z"
								/>
						</g>
					</g>
					<g>
						<path class="st92" d="M251.2,136.7c0.6-0.3,1-0.7,1-1.5c0-0.7-0.8-1.1-1.2-0.4c0,0-0.2,0.4-0.3,0.8c-0.2,0.5-1,0.4-1-0.2
							c0.1-1,0.1-2,0.2-2.7c0.1-1-0.9-1.1-1.7-0.3c-0.4,0.4-1.1,0.7-1.6,0.7c0.4-1.5,1.6-2.6,3-2.9c0.1,0,0.2,0,0.2,0c0,0,0,0,0.1,0
							c0.1,0,0.2,0,0.3,0c2,0,3.7,1.6,3.7,3.9c0,1.4-0.6,2.7-1.6,3.4c-0.3,0.2-1,0.8-1,0.8V136.7z"/>
					</g>
				</g>
				<g>
					<g>
						<path class="st91" d="M239.6,137.3v2.7l-1-1.8C238.9,136.8,239.6,137.3,239.6,137.3z"/>
					</g>
					<g>
						<g>
							<path class="st91" d="M239.6,140l-1.8,1.6c0,0-0.7-0.4-2.3-2.1c-0.8-0.8,0.7-3.2,1.5-2.9C237.6,137.3,239.1,137.6,239.6,140z
								"/>
						</g>
					</g>
					<g>
						<path class="st91" d="M245.1,169h4.2c0,0,0,0,0,0h0h0l-1.3,13.2c0,0.8-0.6,1.5-1.4,1.6c-0.9,0.1-1.5-0.6-1.6-1.5L245.1,169z"
							/>
					</g>
					<g>
						<path class="st91" d="M255.1,157.4l2.7,2.6c0,0,1,1.1,1,1.1l0,0l0.8,0.6l-11.8,9.9c-0.8,0.7-1.2-0.3-2-1
							c-0.9-0.7-0.8-1.8,0-2.7L255.1,157.4z"/>
					</g>
					<g>
						<g>
							<g>
								<path class="st63" d="M248.1,181.6v4l-9.6,0c0,0-0.8-1.4,1.6-2.1c2.4-0.7,4.6-1.8,4.6-1.8H248.1z"/>
							</g>
						</g>
						<g>
							<path class="st63" d="M243.6,180.8c0.3-0.3,0.7-0.3,1,0l0.9,0.9c0.3,0.3,0.3,0.7,0,1l0,0c-0.3,0.3-0.7,0.3-1,0l-0.9-0.9
								C243.3,181.5,243.3,181,243.6,180.8L243.6,180.8z"/>
						</g>
						<g>
							<g>
								<path class="st70" d="M246.5,183.2h1.7v2.1v0.2h-3.8v-0.2C244.4,184.1,245.3,183.2,246.5,183.2z"/>
							</g>
						</g>
						<g>
							<path class="st29" d="M238.5,184.6l9.7,0v1.2l-9.7,0C238.4,185.8,238.3,185.1,238.5,184.6z"/>
						</g>
					</g>
					<g>
						<path class="st93" d="M260.7,154.7c1.4,3.1,2.4,5.3-0.5,7.6l-9.1,6.5l-2.9-3.7l5.6-6.4C253.8,158.7,259.9,155.2,260.7,154.7z"
							/>
					</g>
					<g>
						<path class="st91" d="M268.4,143.6c-0.3-0.9-1.3-1.5-2.3-1.3c-1.1,0.2-1.9,1.3-1.7,2.4c0,0,0,0,0,0.1l0,0l2.6,9.8
							c0.2,0.7,0.5,1.2,1.2,1.1c0.8-0.1,1.3-0.8,1.3-1.5l-0.9-10.1C268.5,143.9,268.4,143.7,268.4,143.6z"/>
					</g>
					<g>
						<path class="st91" d="M267,142.3c1,0.3,1.6,1.3,1.3,2.2c-0.2,0.9-1.1,1.5-2,1.3l-9.8-1v0v-5.6L267,142.3z"/>
					</g>
					<g>
						<polygon class="st94" points="256.5,139.2 260.8,140.5 260.3,145.3 256.5,144.9 						"/>
					</g>
					<g>
						<g>
							<g>
								<path class="st91" d="M242.7,150c0.7,0.7,1.8,0.8,2.7,0.2c0.9-0.7,1.2-2,0.5-2.9c0,0,0,0,0-0.1l0,0l-6.5-7.8
									c-0.4-0.5-0.9-0.9-1.5-0.5c-0.7,0.4-0.9,1.3-0.5,1.9l5.1,8.7C242.5,149.8,242.6,149.9,242.7,150z"/>
							</g>
							<g>
								<path class="st91" d="M245.1,150.5c-0.9,0.5-2,0.2-2.5-0.7c-0.5-0.8-0.3-1.8,0.5-2.4l7.6-6.2l0,0l3.1,4.4L245.1,150.5z"/>
							</g>
						</g>
					</g>
					<g>
						<g>
							<path class="st91" d="M267.7,171.1c0.4,0.9-1.4,0.5-2.3,1.1c-0.9,0.5-2,0.1-2.5-0.9l-1.5-2.5l4.5-2L267.7,171.1z"/>
						</g>
						<g>
							<path class="st69" d="M260.8,154.4C260.7,154.3,260.7,154.3,260.8,154.4L260.8,154.4L260.8,154.4l5.2,12.4l-4.5,2.1
								l-6.7-12.2L260.8,154.4z"/>
						</g>
					</g>
					<g>
						<path class="st91" d="M264.6,172.4v-4.2c0,0,0,0,0,0l0,0v0l13.2,1.3c0.8,0,1.5,0.6,1.6,1.4c0.1,0.9-0.6,1.5-1.5,1.6
							L264.6,172.4z"/>
					</g>
					<g>
						<polyline class="st86" points="250.3,147.6 249,148.4 246.8,144.4 250.3,141.6 						"/>
					</g>
					<g>
						<g>
							<g>
								<path class="st63" d="M276.5,169.1l3.4-2l4.8,8.3c0,0-0.8,1.4-2.6-0.3c-1.8-1.7-3.9-3.1-3.9-3.1L276.5,169.1z"/>
							</g>
						</g>
						<g>
							<path class="st63" d="M278.1,173.5c-0.4-0.1-0.6-0.5-0.5-0.9l0.3-1.3c0.1-0.4,0.5-0.6,0.9-0.5l0,0c0.4,0.1,0.6,0.5,0.5,0.9
								L279,173C278.9,173.4,278.5,173.6,278.1,173.5L278.1,173.5z"/>
						</g>
						<g>
							<g>
								<path class="st70" d="M278.7,169.8l-0.8-1.5l1.8-1l0.2-0.1l1.9,3.3l-0.2,0.1C280.6,171.2,279.3,170.8,278.7,169.8z"/>
							</g>
						</g>
						<g>
							<path class="st29" d="M284,176l-4.8-8.4l1.1-0.6l4.8,8.4C285.1,175.4,284.5,175.9,284,176z"/>
						</g>
					</g>
					<g>
						<path class="st95" d="M259.6,144.9"/>
					</g>
					<g>
						<path class="st86" d="M253.6,158.9l-4.2-13.9c-0.3-1.1-0.6-2-0.6-2.1c0,0,0-0.1,0-0.1c0,0,0,0,0,0c0,0,0.7-0.7,1.6-1.4l2-1.8
							c0.9-0.7,2.4-1.1,3.5-0.7l0.6,0.2c1.1,0.3,2.1,1.6,2.2,2.7l0.6,6.8c0.1,1.1,0.5,2.9,0.9,4l1.1,2.8"/>
					</g>
					<g>
						<path class="st96" d="M256.6,138.9"/>
					</g>
					<g>
						<g>
							<path class="st69" d="M263.6,161.2l2.3,5.5l-4.5,2.1l-2.1-3.7l2.7-1.9C262.9,162.5,263.4,161.9,263.6,161.2z"/>
						</g>
					</g>
					<g>
						
							<rect x="237.3" y="140.6" transform="matrix(0.8363 -0.5483 0.5483 0.8363 -38.1482 153.9559)" class="st97" width="2.8" height="0.6"/>
						<path class="st98" d="M237.7,142.1c-0.1,0-0.1-0.1-0.2-0.1l-0.3-0.5c-0.1-0.1,0-0.3,0.1-0.4l2.3-1.5c0.1-0.1,0.3,0,0.4,0.1
							l0.3,0.5c0,0.1,0.1,0.1,0,0.2c0,0.1-0.1,0.1-0.1,0.2l-2.3,1.5C237.8,142.1,237.8,142.1,237.7,142.1
							C237.7,142.1,237.7,142.1,237.7,142.1z M239.6,140.2l-1.9,1.2l0,0L239.6,140.2L239.6,140.2z"/>
					</g>
					<g>
						<path class="st99" d="M244.8,146"/>
					</g>
					<g>
						<path class="st90" d="M244.8,146c0,0-0.3,0.3-0.7,0.6c-0.4,0.3-0.9,0.1-1.1-0.4l-2-4.7L244.8,146z"/>
					</g>
					<g class="st21">
						<polygon class="st94" points="253.8,145.7 254.8,158.4 253.6,158.9 250.1,147.6 						"/>
					</g>
					<g>
						<path class="st91" d="M265.1,155.2l1.9-1.9l-0.6,2C265.2,156.1,265.1,155.2,265.1,155.2z"/>
					</g>
					<g>
						<g>
							<path class="st91" d="M267.1,153.3l2.3,0.1c0,0,0.1,1,0.3,3c0.1,1.2-2.7,2-3,1.2C266.4,156.1,265.7,155.3,267.1,153.3z"/>
						</g>
					</g>
					<g>
						<path class="st91" d="M269.6,156.3c0,0,0.2,1-0.3,1.1c-0.5,0.2-0.7-0.3-0.7-0.3"/>
					</g>
					<g>
						<path class="st91" d="M269,156.6c0,0,0.2,1-0.3,1.1c-0.5,0.2-0.7-0.3-0.7-0.3"/>
					</g>
					<g>
						<path class="st91" d="M268.3,156.9c0,0,0.2,1-0.3,1.1c-0.5,0.2-0.7-0.3-0.7-0.3"/>
					</g>
					<g>
						<path class="st91" d="M267.5,157c0,0,0.2,1-0.3,1.1c-0.5,0.2-0.7-0.3-0.7-0.3c0-0.1-0.5-3.2-0.5-3.2"/>
					</g>
					<g>
						<path class="st91" d="M235.6,139.7c0,0-0.8-0.6-0.6-1c0.2-0.5,0.7-0.3,0.7-0.3"/>
					</g>
					<g>
						<path class="st91" d="M235.8,139c0,0-0.8-0.6-0.6-1c0.2-0.5,0.7-0.3,0.7-0.3"/>
					</g>
					<g>
						<path class="st91" d="M236.1,138.3c0,0-0.8-0.6-0.6-1c0.2-0.5,0.7-0.3,0.7-0.3"/>
					</g>
					<g>
						<path class="st91" d="M236.6,137.7c0,0-0.8-0.6-0.6-1c0.2-0.5,0.7-0.3,0.7-0.3c0.1,0,2.6,1.9,2.6,1.9"/>
					</g>
				</g>
			</g>
		</g>
		<g>
			
				<linearGradient id="SVGID_9_" gradientUnits="userSpaceOnUse" x1="7910.3604" y1="188.1538" x2="7941.6646" y2="188.1538" gradientTransform="matrix(-1 0 0 1 8158.1577 0)">
				<stop  offset="0" style="stop-color:#000000;stop-opacity:0"/>
				<stop  offset="1" style="stop-color:#000000"/>
			</linearGradient>
			<path class="st100" d="M216.8,188.6h30.7c0.2,0,0.3-0.1,0.3-0.2v-0.4c0-0.1-0.1-0.2-0.3-0.2h-30.7c-0.2,0-0.3,0.1-0.3,0.2v0.4
				C216.5,188.5,216.6,188.6,216.8,188.6z"/>
			<g>
				<g>
					<polygon class="st101" points="222.8,142.3 223.8,144.9 220.5,147 219.9,144.2 					"/>
				</g>
				<g>
					<g>
						<path class="st62" d="M220.8,135.3c2,0,3.6,1.6,3.6,3.8c0,1.4-0.6,2.6-1.6,3.3c-0.8,0.7-2.8,2.2-2.8,2.2l-1.8,0
							c-0.6,0-1-0.5-1-1V142c0,0-0.2,0-0.4,0c-0.2,0-0.4-0.2-0.3-0.4l0.7-1.3v-1.2C217.2,136.9,218.8,135.3,220.8,135.3z"/>
					</g>
					<g>
						<path class="st62" d="M217.2,139.2C217.2,139.2,217.2,139.2,217.2,139.2C217.2,139.2,217.2,139.1,217.2,139.2
							C217.2,139.2,217.2,139.2,217.2,139.2z"/>
					</g>
				</g>
				<g>
					<path class="st62" d="M237.6,174.4c0.4,0.9-1.3,0.5-2.2,1c-1,0.5-1.9,0.1-2.4-0.9l-1.5-2.4l4.4-1.9L237.6,174.4z"/>
				</g>
				<g>
					<path class="st102" d="M230.9,158.3C230.9,158.3,230.9,158.3,230.9,158.3L230.9,158.3L230.9,158.3l5,11.9l-4.4,2l-6.4-11.7
						L230.9,158.3z"/>
				</g>
				<g>
					<path class="st62" d="M214.7,172.4h4.1c0,0,0,0,0,0h0h0l-1.2,12.7c0,0.8-0.5,1.5-1.4,1.5c-0.9,0.1-1.4-0.6-1.5-1.5L214.7,172.4
						z"/>
				</g>
				<path class="st62" d="M225.3,161.2l3.5,3.5c0,0,0,0,0,0l0,0l0,0L217,175.7c-0.7,0.7-0.9-1.1-1.7-1.7c-0.8-0.7-0.7-1.8,0-2.6
					L225.3,161.2z"/>
				<g>
					<g>
						<path class="st103" d="M217.6,184.5v3.8l-9.2,0c0,0-0.8-1.3,1.5-2.1c2.3-0.7,4.4-1.8,4.4-1.8H217.6z"/>
					</g>
				</g>
				<g>
					<path class="st103" d="M213.3,183.7c0.3-0.3,0.7-0.3,1,0l0.9,0.9c0.3,0.3,0.3,0.7,0,1l0,0c-0.3,0.3-0.7,0.3-1,0l-0.9-0.9
						C213,184.4,213,184,213.3,183.7L213.3,183.7z"/>
				</g>
				<g>
					<g>
						<path class="st104" d="M216,186h1.6v2v0.2H214V188C214,186.9,214.9,186,216,186z"/>
					</g>
				</g>
				<g>
					<path class="st29" d="M208.3,187.4l9.3,0v1.2l-9.3,0C208.3,188.6,208.2,187.9,208.3,187.4z"/>
				</g>
				<g>
					<path class="st62" d="M234.6,175.6v-4.1c0,0,0,0,0,0v0v0l12.7,1.2c0.8,0,1.5,0.5,1.5,1.4c0.1,0.9-0.6,1.4-1.5,1.5L234.6,175.6z
						"/>
				</g>
				<g>
					<g>
						<path class="st103" d="M246.1,172.6l3.3-1.9l4.6,8c0,0-0.7,1.4-2.5-0.3c-1.8-1.6-3.7-3-3.7-3L246.1,172.6z"/>
					</g>
				</g>
				<g>
					<path class="st103" d="M247.6,176.7c-0.4-0.1-0.6-0.5-0.5-0.8l0.3-1.2c0.1-0.4,0.5-0.6,0.8-0.5l0,0c0.4,0.1,0.6,0.5,0.5,0.8
						l-0.3,1.2C248.3,176.6,247.9,176.8,247.6,176.7L247.6,176.7z"/>
				</g>
				<g>
					<g>
						<path class="st104" d="M248.2,173.2l-0.8-1.4l1.7-1l0.2-0.1l1.8,3.1l-0.2,0.1C250,174.5,248.7,174.2,248.2,173.2z"/>
					</g>
				</g>
				<g>
					<path class="st29" d="M253.2,179.2l-4.7-8.1l1-0.6l4.7,8.1C254.3,178.6,253.8,179.1,253.2,179.2z"/>
				</g>
				<g>
					<g>
						<g>
							<path class="st62" d="M213.5,154.2c0.7,0.7,1.8,0.8,2.6,0.2c0.9-0.6,1.1-1.9,0.5-2.8c0,0,0,0,0,0l0,0l-6.3-7.5
								c-0.4-0.5-0.9-0.9-1.5-0.5c-0.6,0.4-0.9,1.2-0.5,1.9l4.9,8.4C213.3,153.9,213.4,154,213.5,154.2z"/>
						</g>
						<g>
							<path class="st62" d="M215.9,154.6c-0.8,0.5-1.9,0.2-2.4-0.6c-0.4-0.8-0.2-1.7,0.4-2.3l7.4-6l0,0l3,4.3L215.9,154.6z"/>
						</g>
					</g>
				</g>
				<g>
					<path class="st105" d="M229.8,149.2"/>
				</g>
				<g>
					<path class="st63" d="M224.3,163.3l-4.6-14.9c-0.2-0.5-0.3-1-0.3-1c0,0,0-0.1,0-0.1c0,0,0.4-0.3,0.8-0.7l3.4-3.1
						c0.4-0.4,1.2-0.5,1.7-0.3l3.5,1.2c0.5,0.2,0.9,0.8,0.9,1.3v8.1c0,0.5,0.2,1.4,0.3,1.9l1.4,3.7"/>
				</g>
				<g>
					<g>
						<path class="st106" d="M218.1,133.9h5.3l-0.8,1.8c0,1-0.8,1.8-1.8,1.8h-2.7c-1,0-1.8-0.8-1.8-1.8
							C216.3,134.7,217.1,133.9,218.1,133.9z"/>
					</g>
					<g>
						<polygon class="st106" points="216.3,135.8 216.3,135.8 216.3,135.8 						"/>
					</g>
				</g>
				<g>
					<g>
						<path class="st106" d="M221.6,135.1h3.1v0.9c0,0.7-0.5,1.2-1.2,1.2l-1.9,0.4c-0.7,0-1.2-0.5-1.2-1.2
							C220.4,135.7,221,135.1,221.6,135.1z"/>
					</g>
					<g>
						<polygon class="st106" points="220.4,136.4 220.4,136.4 220.4,136.4 						"/>
					</g>
				</g>
				<g>
					<g>
						<path class="st106" d="M218.6,133.9h5.3l-0.8,1.8c0,1-0.8,1.8-1.8,1.8h-2.8c-1,0-1.8-0.8-1.8-1.8
							C216.9,134.7,217.6,133.9,218.6,133.9z"/>
					</g>
					<g>
						<polygon class="st106" points="216.9,135.8 216.9,135.8 216.9,135.8 						"/>
					</g>
				</g>
				<g>
					<g>
						<path class="st106" d="M222.2,135.1h3.1v0.9c0,0.7-0.5,1.2-1.2,1.2l-1.9,0.4c-0.7,0-1.2-0.5-1.2-1.2
							C221,135.7,221.5,135.1,222.2,135.1z"/>
					</g>
					<g>
						<polygon class="st106" points="221,136.4 221,136.4 221,136.4 						"/>
					</g>
				</g>
				<g>
					<path class="st106" d="M224.4,138v2.1c0,1.3-1.1,2.5-2.4,3.2v-7.6C223.3,135.6,224.4,136.7,224.4,138z"/>
				</g>
				<g>
					<path class="st70" d="M229.1,160.6l-1.9-4c-0.2-0.5-0.4-1.3-0.4-1.9v-9.9c0-0.5,0.4-0.8,0.9-0.7l0.9,0.3
						c0.5,0.2,0.9,0.8,0.9,1.3v8.1c0,0.5,0.2,1.4,0.3,1.9l1.4,3.7"/>
				</g>
				<g>
					<path class="st96" d="M226.9,143.4"/>
				</g>
				<g>
					<polyline class="st106" points="221.4,138.8 220.1,140.1 220.1,138.8 					"/>
				</g>
				<g>
					<path class="st62" d="M238.2,147.9c-0.3-0.9-1.3-1.4-2.2-1.3c-1.1,0.2-1.8,1.2-1.6,2.3c0,0,0,0,0,0.1l0,0l2.5,9.4
						c0.2,0.7,0.4,1.2,1.1,1.1c0.7-0.1,1.3-0.7,1.2-1.5l-0.9-9.7C238.3,148.2,238.3,148.1,238.2,147.9z"/>
				</g>
				<g>
					<path class="st62" d="M236.9,146.7c0.9,0.2,1.5,1.2,1.3,2.1c-0.2,0.9-1.1,1.4-1.9,1.3l-9.4-1v0v-5.4L236.9,146.7z"/>
				</g>
				<g>
					<path class="st69" d="M230.9,158.2c1.4,3,2.3,5-0.4,7.2l-9.6,6.7l-2.8-3.5l6-6.1C224.1,162.5,230,158.7,230.9,158.2z"/>
				</g>
				<g>
					<rect x="217.2" y="137.2" class="st104" width="7.2" height="1.6"/>
				</g>
				<g>
					<rect x="222.8" y="137.2" class="st107" width="1.6" height="1.6"/>
				</g>
				<g>
					<path class="st62" d="M210,141v2.6l-0.9-1.8C209.4,140.5,210,141,210,141z"/>
				</g>
				<g>
					<g>
						<path class="st62" d="M210.1,143.6l-1.8,1.5c0,0-0.6-0.4-2.3-2.1c-0.8-0.8,0.7-3.1,1.4-2.8C208.2,141,209.6,141.3,210.1,143.6
							z"/>
					</g>
				</g>
				<g>
					
						<rect x="207.8" y="144.3" transform="matrix(0.8363 -0.5483 0.5483 0.8363 -45.0283 138.3303)" class="st97" width="2.7" height="0.6"/>
					<path class="st97" d="M208.1,145.8c-0.1,0-0.1-0.1-0.2-0.1l-0.3-0.5c-0.1-0.1,0-0.3,0.1-0.4l2.2-1.5c0.1-0.1,0.3,0,0.4,0.1
						l0.3,0.5c0,0.1,0.1,0.1,0,0.2s-0.1,0.1-0.1,0.2l-2.2,1.5C208.3,145.8,208.2,145.8,208.1,145.8
						C208.2,145.8,208.1,145.8,208.1,145.8z M210,144l-1.8,1.2l0,0L210,144L210,144z"/>
				</g>
				<g>
					<path class="st62" d="M235,158.5l1.8-1.8l-0.6,1.9C235.1,159.3,235,158.5,235,158.5z"/>
				</g>
				<g>
					<g>
						<path class="st62" d="M236.9,156.6l2.2,0.1c0,0,0.1,1,0.3,2.9c0.1,1.1-2.6,1.9-2.9,1.2C236.3,159.4,235.6,158.6,236.9,156.6z"
							/>
					</g>
				</g>
				<g>
					<path class="st62" d="M239.3,159.6c0,0,0.2,0.9-0.3,1.1c-0.5,0.2-0.6-0.3-0.6-0.3"/>
				</g>
				<g>
					<path class="st62" d="M238.8,159.9c0,0,0.2,0.9-0.3,1.1c-0.5,0.2-0.6-0.3-0.6-0.3"/>
				</g>
				<g>
					<path class="st62" d="M238.1,160.2c0,0,0.2,0.9-0.3,1.1c-0.5,0.2-0.6-0.3-0.6-0.3"/>
				</g>
				<g>
					<path class="st62" d="M237.3,160.2c0,0,0.2,0.9-0.3,1.1c-0.5,0.2-0.6-0.3-0.6-0.3c0-0.1-0.5-3-0.5-3"/>
				</g>
				<g>
					<path class="st62" d="M207.2,141.4c0,0-0.8-0.5-0.6-1c0.2-0.4,0.6-0.3,0.6-0.3c0.1,0,2.5,1.8,2.5,1.8"/>
				</g>
			</g>
		</g>
	</g>
</g>
</svg>
