<svg xmlns="http://www.w3.org/2000/svg" viewBox="0 0 78.54 73.41"><defs><style>.cls-1{fill:#fff;}</style></defs><title>Gain Muscle</title><g id="Layer_2" data-name="Layer 2"><g id="Layer_1-2" data-name="Layer 1"><path class="cls-1" d="M78.5,34.57s-8.43-4.91-12-10.77c-1.73-2.86-5.24-13.43-5.1-17.6-3.81,3.3-6.91,11.44-5.67,20.74-.24,1.6-8.78,5.58-5.5,15.42a7.67,7.67,0,0,0-.75,2.84c.06,1.13-6.65-1.73-9-2.26a14.75,14.75,0,0,1-3.8-1.34s-7.19,3.29-12.29.54c0,0,14.21,22.66,24.73,27.79,4.53,2.21,2.46,3.59,5.05,3.46s4.39-2.66,4.39-2.66S65.4,66,68.26,59C72.51,55.12,79.1,48.07,78.5,34.57Z"/><path class="cls-1" d="M27.85,2.63A18,18,0,0,0,18.48,0,18.71,18.71,0,0,0,0,18.93,18.78,18.78,0,0,0,15.74,37.62,20.53,20.53,0,0,1,9.58,22.92,20.17,20.17,0,0,1,27.85,2.63Z"/><path class="cls-1" d="M38.08,21.57a6.45,6.45,0,0,0-.21-1,8,8,0,0,0-1.13-2.43,8.45,8.45,0,0,0-2.48-2.4,8.77,8.77,0,0,0-3.81-1.27,8.53,8.53,0,0,0-4.36.8,8.69,8.69,0,0,0-3.48,3.08,9.52,9.52,0,0,0-1,2.18,8.52,8.52,0,0,0,0,4.76,9.53,9.53,0,0,0,1,2.18,8.69,8.69,0,0,0,3.48,3.08,8.65,8.65,0,0,0,3.27.82c.35,0,.72,0,1.08,0a8.76,8.76,0,0,0,3.82-1.27,8.46,8.46,0,0,0,2.48-2.4,8,8,0,0,0,1.13-2.43,6.45,6.45,0,0,0,.21-1,5,5,0,0,0,.09-.73l0-.61,0-.61A4.94,4.94,0,0,0,38.08,21.57Z"/><path class="cls-1" d="M48,22.92A18.71,18.71,0,0,0,29.48,4,18.71,18.71,0,0,0,11,22.92,18.71,18.71,0,0,0,29.48,41.84,18.71,18.71,0,0,0,48,22.92ZM28.17,31.84a8.84,8.84,0,0,1-2.38-.61,9.53,9.53,0,0,1-2.2-1.29A9.65,9.65,0,0,1,21.8,28a9.15,9.15,0,0,1-1.58-5.12,10.15,10.15,0,0,1,.41-2.65,9.27,9.27,0,0,1,1.17-2.42,9.75,9.75,0,0,1,1.79-1.93,9.54,9.54,0,0,1,2.2-1.29,9,9,0,0,1,8.6,1,9.3,9.3,0,0,1,2.42,2.55,9,9,0,0,1,1.08,2.47,6.47,6.47,0,0,1,.2,1,5,5,0,0,1,.08.74l0,.62,0,.62a5,5,0,0,1-.08.74,6.47,6.47,0,0,1-.2,1,9,9,0,0,1-1.08,2.47,9.29,9.29,0,0,1-2.42,2.55,9.11,9.11,0,0,1-3.9,1.55c-.38,0-.75.08-1.16.09A8.68,8.68,0,0,1,28.17,31.84Z"/></g></g></svg>