<svg xmlns="http://www.w3.org/2000/svg" viewBox="0 0 63.62 73.47"><defs><style>.cls-1{isolation:isolate;}.cls-2,.cls-3{fill:#ffdf00;}.cls-2{stroke:#fff;stroke-miterlimit:10;}.cls-3{mix-blend-mode:multiply;}.cls-4{fill:#fff;}</style></defs><title>GoldenDumbbell</title><g class="cls-1"><g id="Layer_2" data-name="Layer 2"><g id="Layer_1-2" data-name="Layer 1"><polygon class="cls-2" points="63.12 18.66 63.12 54.81 31.81 72.89 0.5 54.81 0.5 18.66 31.81 0.58 63.12 18.66"/><polygon class="cls-3" points="12.33 46.34 45.54 65.11 63.12 54.92 63.1 41.04 56.81 31.23 53.15 31.23 51.06 27.38 43.52 34.45 25.73 34.36 18.69 27.11 12.56 34.49 10.46 30.99 10.44 42.44 12.33 46.34"/><rect class="cls-4" x="44.9" y="27.03" width="6.32" height="19.41"/><rect class="cls-4" x="53.15" y="30.87" width="3.82" height="11.74"/><rect class="cls-4" x="12.4" y="27.03" width="6.32" height="19.41"/><rect class="cls-4" x="6.66" y="30.87" width="3.82" height="11.74"/><rect class="cls-4" x="20.08" y="34.25" width="23.47" height="4.96"/></g></g></g></svg>