<svg xmlns="http://www.w3.org/2000/svg" viewBox="0 0 196.41 397.42"><defs><style>.cls-1{fill:none;}.cls-1,.cls-2,.cls-3,.cls-4,.cls-5{stroke:#fff;stroke-miterlimit:10;stroke-width:0.25px;}.cls-2{fill:#220ca7;}.cls-3{fill:#4800e7;}.cls-4{fill:#33b7be;}.cls-5{fill:#e71a00;}</style></defs><title>MuscleMap-Front</title><g id="Layer_2" data-name="Layer 2"><g id="Layer_1-2" data-name="Layer 1"><path class="cls-1" d="M97.35,57.41c7.25,0,15.94-10.37,17-15.75s6.76-26.6-2.38-35.25C104.39-.76,101.14.16,97.35.16S90.2-.65,82.73,6.41c-9.14,8.65-3.44,29.87-2.38,35.25S90.11,57.41,97.35,57.41Z"/><path class="cls-1" d="M107.56,52s-5.54,22.46-8,24.27.25,6,2.62,3.13,6.13-13.62,6.13-13.62.44,6.69,1.5,7A3.27,3.27,0,0,0,113.21,71c.38-.69-1.37-24-1.37-24"/><line class="cls-1" x1="102.96" y1="55.91" x2="99.58" y2="76.29"/><path class="cls-1" d="M120.33,73l5.56-5.12s13.37.63,20.94,10.13,4.88,28.13,4.88,28.13l-3,.13s-11.94-13.06-14.37-18S128.58,76.16,120.33,73Z"/><path class="cls-1" d="M120.33,73c-5.25.94-12.69,5.69-14.75,6.88s-1.5,6.31-2,7.5-3.19,14.31-2.5,19,21.06,4.63,23.38,3.88S134.6,105.12,141,98.6c1.19-1.22-5.41-7.41-9.09-14.44A24.93,24.93,0,0,0,120.33,73Z"/><path class="cls-1" d="M141,98.6c3.46,2.77,11,13.52,11.92,20.4s.17,21.08.17,21.08-2.54,1.92-4.08.42-11.29-11.75-11.67-16.42-.58-21.67-.58-21.67Z"/><path class="cls-1" d="M152.46,102.66c.5,3.25,3.88,15,4.17,18.58s-.08,15.83-.08,15.83-3.42-8.25-3.33-10.25a39.84,39.84,0,0,0-.33-8.83c-.62-3.79-7.42-15-7.42-15l3.25,3.29,3-.12Z"/><path class="cls-1" d="M157,133.85s9.13,9.85,12,21.31,4.54,28.67,4.54,28.67l2.63,9.75-1.67.5s-9-19.46-10.42-24.58-6.48-16.37-6.48-16.37Z"/><path class="cls-1" d="M146.33,141.83l11.23,11.29s9,22,9,23.46,4,18.47,4,18.47l-2.46.53s-13.5-26.37-15.75-30.83-6.71-11.5-6.83-15.75A23.87,23.87,0,0,1,146.33,141.83Z"/><path class="cls-1" d="M140.54,130.75s1.83,15.38,2.17,17.71,4.42,7.29,4.42,7.29-3.42-7.92-.79-13.92c.07-.16-2.62-6.92-2.62-6.92Z"/><polygon class="cls-1" points="144.21 152.79 145.58 158.91 166.21 196.91 168.13 195.58 147.13 155.75 144.21 152.79"/><path class="cls-2" d="M117,111.16s.38,18.12.25,21.75-.06,5.81,0,9.75.31,18.81,0,20.38-4.44,14.69,1.63,17.25,11.69-12.62,11.75-13.37-1.06-20.5-.5-22.12,6-12.81,6.25-14.37.75-7.12.75-7.12l-.37-20.87s-7.87,6.63-12.25,7.88A20.93,20.93,0,0,1,117,111.16Z"/><path class="cls-3" d="M100,109.91s-.12,14.84.87,15.42c2.25,1.29,10.38,1.9,13.25,3.71s1.06-14.69.38-15.75S102.52,107.41,100,109.91Z"/><path class="cls-3" d="M101.88,130.66c1.22-1.29,6.83-2.62,10.33.5s2.25,11.71,1.33,12.25-7.67,1.54-9.58.17-2.79-2.85-2.92-6.58C101,134.5,101.13,131.46,101.88,130.66Z"/><path class="cls-3" d="M102.5,147.5c1.82-1.5,10-.33,11.29.33s1.5,10,.83,10.75c-1.08,1.29-10.79,2.54-12.46.25C101.18,157.47,100.17,149.41,102.5,147.5Z"/><path class="cls-3" d="M99.88,163.91c1.67-.67,11.63-1.67,12.75-1.17s-4,39.07-10,34.83C98.75,194.83,99.88,163.91,99.88,163.91Z"/><path class="cls-4" d="M130.29,168c1.33,1.67,6.29,13.71,7.13,26.17l-8.21-15.62Z"/><path class="cls-1" d="M125.54,177.41c-3.62,11.92-15.42,26.71-27.42,27.75"/><path class="cls-4" d="M129.42,179.08s7.13,13.08,8.71,16.75,4.29,31,3.42,28.83S129.38,191.33,129,189s.67-15.29.5-18.58c0,0-.37,7.21-.83,18s-4.86,22.76-15.17,45.25c-12.62,27.54-4.87,47.17-2.92,52.83a90.65,90.65,0,0,0,6.67,13.75c1,1.71-2.33,6.83-2.33,6.83-12.79-29-12.67-48.08-12.58-57.08s12.88-42.33,18.58-51.5,4.13-16.12,3.92-18.33l4.88-9.71"/><path class="cls-4" d="M133.83,203.66c2,6.69,3.36,26.28,2.19,32.88-2.44,13.75-6.31,32.31-4.81,43.25s2.94-1.94,2.75-5.12,6.5-29.19,7.75-36.38a39.4,39.4,0,0,0-.17-13.62Z"/><path class="cls-4" d="M114.33,232.41c.06,4.06,13.19,52.19,7,54.88A8.87,8.87,0,0,1,109,281.58s-4.06-10.35-2.21-25.29A74.89,74.89,0,0,1,114.33,232.41Z"/><path class="cls-4" d="M82,232.41c-.06,4.06-13.19,52.19-7,54.88a8.87,8.87,0,0,0,12.29-5.71s4.06-10.35,2.21-25.29A74.89,74.89,0,0,0,82,232.41Z"/><line class="cls-1" x1="116.83" y1="193.54" x2="120.87" y2="198.5"/><line class="cls-1" x1="112.71" y1="197.66" x2="114.46" y2="211.66"/><line class="cls-1" x1="105.33" y1="203.66" x2="110.71" y2="221.16"/><path class="cls-1" d="M102.21,250.79c-2.44-15.81-2.87-45.37-2.87-45.37"/><path class="cls-1" d="M131,275.54c-1.29-2.29-5.92-8.5-7.75,5.38"/><path class="cls-1" d="M133.46,282.5c-.08,4.5-1.5,9.63-5.08,16.33s-5,6.65-7.29,14.33S115.83,366,115.83,366l2,1.13s2.38-25.25,5.25-31a209.15,209.15,0,0,0,8-20.12C132.71,309.35,133.46,282.5,133.46,282.5Z"/><path class="cls-1" d="M133.08,288c.63,4.13,5.19,31,.13,45.38s-8.84,30.44-9,32.88c-.06.94-6.37.88-6.37.88"/><path class="cls-1" d="M131.08,316c.31,6.44-9.62,51-9.62,51"/><path class="cls-1" d="M125.33,330.54c.88,4.56-5.87,36.38-5.87,36.38"/><polyline class="cls-1" points="114.96 306.48 114.46 364.91 115.83 366.04"/><path class="cls-1" d="M114.71,310.54c-1.75,2.25-6,7.37-3.5,24.25C116,336.91,114.71,310.54,114.71,310.54Z"/><path class="cls-1" d="M112.46,334.79s-1.19,27.44-.62,28.25a10,10,0,0,0,2.63,1.88"/><path class="cls-1" d="M111.21,334.79l.63,28.25c-1.44,2.63-.87,9.31-1.75,10.88s-1.69,12.94-1.87,15.13-1.5,2.75-1.37,3.38-.56,3.88.88,4.38,5.81.63,6.25,0a14,14,0,0,0,1-2.44,7.25,7.25,0,0,0,1.75,2.59,4.3,4.3,0,0,0,3.66-.12,6.82,6.82,0,0,0,.69-2.41s-.13,2.95,1.75,2.88c2.47-.09,2.38-2,2.38-2a2.75,2.75,0,0,0,2.41,1.25s1.08-.07,1.72-1.75c.25-.66,1.06,1.69,2.88.88s1.94-2.09-3.44-8.47a21.45,21.45,0,0,1-4.44-10.78c-.44-2.75-.12-10.12-.12-10.12"/><path class="cls-1" d="M166.21,196.91A120.81,120.81,0,0,0,169.27,212c1.16,3.66-1.22,15.13-.31,16.06s2.81.59,2.81-5.25c0-2.85.63-8.09,1.44-8.25s4,15.38,4.56,16.25,1.94.47,1.94-.06S177,212.45,178.33,212s7.75,17,8.81,17.63S189,229,189,228.35s-6.84-18-6.37-18.31,11.09,12,11.81,11.31a2.16,2.16,0,0,0,.38-2.25c-.16-.75-9.06-11.69-9.31-12.5s.16-3.75,1.06-3.44,8.19,4.09,8.69,3.81,1.34-1.25.88-1.94-20-11.46-20-11.46Z"/><path class="cls-1" d="M88.82,53.54s5.56,20.94,8,22.75-.25,6-2.62,3.13-6.12-13.62-6.12-13.62-.44,6.69-1.5,7A3.27,3.27,0,0,1,83.2,71c-.37-.69,1.38-22,1.38-22"/><line class="cls-1" x1="94.45" y1="56.91" x2="96.82" y2="76.29"/><path class="cls-1" d="M76.07,73l-5.56-5.12S57.14,68.54,49.57,78s-4.87,28.13-4.87,28.13l3,.13s11.94-13.06,14.38-18S67.82,76.16,76.07,73Z"/><path class="cls-1" d="M76.07,73c5.25.94,12.69,5.69,14.75,6.88s1.5,6.31,2,7.5,3.19,14.31,2.5,19S74.26,111,71.95,110.29s-10.14-5.16-16.5-11.69c-1.19-1.22,5.41-7.41,9.09-14.44A24.93,24.93,0,0,1,76.07,73Z"/><path class="cls-1" d="M55.45,98.6c-3.46,2.77-11,13.52-11.92,20.4s-.17,21.08-.17,21.08,2.54,1.92,4.08.42,11.29-11.75,11.67-16.42.58-21.67.58-21.67Z"/><path class="cls-1" d="M43.95,102.66c-.5,3.25-3.87,15-4.17,18.58s.08,15.83.08,15.83,3.42-8.25,3.33-10.25a39.84,39.84,0,0,1,.33-8.83c.63-3.79,7.42-15,7.42-15l-3.25,3.29-3-.12Z"/><path class="cls-1" d="M39.33,133.85s-9,9.85-11.88,21.31-4.54,28.67-4.54,28.67l-2.62,9.75,1.67.5s9-19.46,10.42-24.58,6.48-16.37,6.48-16.37Z"/><path class="cls-1" d="M50.07,141.83,38.85,153.12s-9,22-9,23.46-4,18.47-4,18.47l2.46.53S41.78,169.21,44,164.75s6.71-11.5,6.83-15.75A23.87,23.87,0,0,0,50.07,141.83Z"/><path class="cls-1" d="M55.87,130.75S54,146.12,53.7,148.46s-4.42,7.29-4.42,7.29,3.42-7.92.79-13.92c-.07-.16,2.63-6.92,2.63-6.92Z"/><polygon class="cls-1" points="52.2 152.79 50.83 158.91 30.2 196.91 28.28 195.58 49.28 155.75 52.2 152.79"/><path class="cls-2" d="M79.45,111.16s-.37,18.12-.25,21.75.06,5.81,0,9.75-.31,18.81,0,20.38,4.44,14.69-1.63,17.25-11.69-12.62-11.75-13.37,1.06-20.5.5-22.12-6-12.81-6.25-14.37-.75-7.12-.75-7.12l.38-20.87s7.88,6.63,12.25,7.88A20.93,20.93,0,0,0,79.45,111.16Z"/><path class="cls-3" d="M96.45,109.91s.12,14.84-.87,15.42c-2.25,1.29-10.37,1.9-13.25,3.71s-1.06-14.69-.37-15.75S93.89,107.41,96.45,109.91Z"/><path class="cls-3" d="M94.53,130.66c-1.22-1.29-6.83-2.62-10.33.5s-2.25,11.71-1.33,12.25,7.67,1.54,9.58.17,2.79-2.85,2.92-6.58C95.45,134.5,95.28,131.46,94.53,130.66Z"/><path class="cls-3" d="M93.91,147.5c-1.82-1.5-10-.33-11.29.33s-1.5,10-.83,10.75c1.08,1.29,10.79,2.54,12.46.25C95.23,157.47,96.24,149.41,93.91,147.5Z"/><path class="cls-3" d="M96.53,163.91c-1.67-.67-11.62-1.67-12.75-1.17s4,39.07,10,34.83C97.66,194.83,96.53,163.91,96.53,163.91Z"/><path class="cls-4" d="M59,194.16c.83-12.46,5.79-24.5,7.12-26.17L67,179Z"/><path class="cls-1" d="M70.87,177.41c3.63,11.92,15.42,26.71,27.42,27.75"/><path class="cls-4" d="M67,179.08s-7.12,13.08-8.71,16.75-4.29,31-3.42,28.83S67,191.33,67.45,189s-.67-15.29-.5-18.58c0,0,.37,7.21.83,18s4.86,22.76,15.17,45.25c12.63,27.54,4.88,47.17,2.92,52.83a90.65,90.65,0,0,1-6.67,13.75c-1,1.71,2.33,6.83,2.33,6.83C94.32,278.12,94.2,259,94.12,250s-12.87-42.33-18.58-51.5-4.12-16.12-3.92-18.33l-4.87-9.71"/><path class="cls-4" d="M62.57,203.66c-2,6.69-3.36,26.28-2.19,32.88,2.44,13.75,6.31,32.31,4.81,43.25s-2.94-1.94-2.75-5.12-6.5-29.19-7.75-36.38a39.4,39.4,0,0,1,.17-13.62Z"/><line class="cls-1" x1="79.57" y1="193.54" x2="75.53" y2="198.5"/><line class="cls-1" x1="83.7" y1="197.66" x2="81.95" y2="211.66"/><line class="cls-1" x1="91.07" y1="203.66" x2="85.7" y2="221.16"/><path class="cls-1" d="M94.2,250.79c2.44-15.81,2.88-45.37,2.88-45.37"/><path class="cls-1" d="M65.45,275.54c1.29-2.29,5.92-8.5,7.75,5.38"/><path class="cls-1" d="M62.95,282.5c.08,4.5,1.5,9.63,5.08,16.33s5,6.65,7.29,14.33S80.57,366,80.57,366l-2,1.13s-2.37-25.25-5.25-31a209.15,209.15,0,0,1-8-20.12C63.7,309.35,62.95,282.5,62.95,282.5Z"/><path class="cls-1" d="M63.32,288c-.62,4.13-5.19,31-.12,45.38s8.84,30.44,9,32.88c.06.94,6.38.88,6.38.88"/><path class="cls-1" d="M65.32,316c-.31,6.44,9.63,51,9.63,51"/><path class="cls-1" d="M71.07,330.54c-.87,4.56,5.88,36.38,5.88,36.38"/><polyline class="cls-1" points="81.45 306.48 81.95 364.91 80.58 366.04"/><path class="cls-1" d="M81.7,310.54c1.75,2.25,6,7.37,3.5,24.25C80.39,336.91,81.7,310.54,81.7,310.54Z"/><path class="cls-1" d="M83.95,334.79s1.19,27.44.63,28.25a10,10,0,0,1-2.62,1.88"/><path class="cls-1" d="M85.2,334.79,84.57,363c1.44,2.63.88,9.31,1.75,10.88S88,386.85,88.2,389s1.5,2.75,1.38,3.38.56,3.88-.87,4.38-5.81.63-6.25,0a14,14,0,0,1-1-2.44,7.25,7.25,0,0,1-1.75,2.59,4.3,4.3,0,0,1-3.66-.12,6.82,6.82,0,0,1-.69-2.41s.13,2.95-1.75,2.88c-2.47-.09-2.37-2-2.37-2a2.75,2.75,0,0,1-2.41,1.25s-1.08-.07-1.72-1.75c-.25-.66-1.06,1.69-2.87.88s-1.94-2.09,3.44-8.47a21.45,21.45,0,0,0,4.44-10.78c.44-2.75.13-10.12.13-10.12"/><path class="cls-1" d="M30.2,196.91A120.81,120.81,0,0,1,27.14,212c-1.16,3.66,1.22,15.13.31,16.06s-2.81.59-2.81-5.25c0-2.85-.62-8.09-1.44-8.25s-4,15.38-4.56,16.25-1.94.47-1.94-.06,2.72-18.34,1.38-18.75-7.75,17-8.81,17.63-1.84-.69-1.87-1.31,6.84-18,6.37-18.31-11.09,12-11.81,11.31a2.16,2.16,0,0,1-.37-2.25c.16-.75,9.06-11.69,9.31-12.5s-.16-3.75-1.06-3.44S1.64,207.26,1.14,207-.21,205.73.26,205s20-11.46,20-11.46Z"/><path class="cls-4" d="M129,189c1.06,4.92,5.25,13.1,6.38,21.92s1.56,19.88.75,24.5-5.75,36.09-5.53,39.06c-2.56-3.25-6.09-3.56-7.22,4.69-.09-.16-3-18.12-5.87-31.88s-2.94-14.37-3.12-14.87S127,207,129,189Z"/><path class="cls-4" d="M67.87,189c-1.06,4.92-5.25,13.1-6.38,21.92s-1.56,19.88-.75,24.5,5.75,36.09,5.53,39.06c2.56-3.25,6.09-3.56,7.22,4.69.09-.16,3-18.12,5.88-31.88s2.94-14.37,3.13-14.87S69.87,207,67.87,189Z"/><path class="cls-5" d="M137.42,194.16"/><path class="cls-1" d="M83.58,59.41a38.1,38.1,0,0,0-13.07,8.5A10,10,0,0,0,73,69.63a3.84,3.84,0,0,0,3.93,0l6.31-3.73Z"/><path class="cls-1" d="M112.88,59.41A38.1,38.1,0,0,1,126,67.91a10,10,0,0,1-2.46,1.71,3.84,3.84,0,0,1-3.93,0l-6.31-3.73Z"/></g></g></svg>