<svg xmlns="http://www.w3.org/2000/svg" viewBox="0 0 180.99 397.41"><defs><style>.cls-1{fill:none;}.cls-1,.cls-2,.cls-3{stroke:#fff;stroke-miterlimit:10;stroke-width:0.25px;}.cls-2{fill:#33b7be;}.cls-3{fill:#4800e7;}</style></defs><title>MuscleMap-Back</title><g id="Layer_2" data-name="Layer 2"><g id="Layer_1-2" data-name="Layer 1"><path class="cls-1" d="M105,58.08c.33-1,2.17-15.17,3.13-17.17,2.83-5.87,6.22-26.21-2.53-34.49C98-.76,94.72.16,90.94.16S83.78-.65,76.32,6.41c-9.14,8.65-3.92,29.4-1.38,34.25,1.35,2.58,2,18.42,2,18.42S77.67,42.83,81,41.41s7.5.54,10,.5,7.25-3,9.08-.92S105,58.08,105,58.08Z"/><path class="cls-1" d="M149.46,205c.09,1.69,3.24,10.39,4.4,14s-1.22,15.13-.31,16.06,2.81.59,2.81-5.25c0-2.85.63-8.09,1.44-8.25s4,15.38,4.56,16.25,1.94.47,1.94-.06-2.72-18.34-1.37-18.75,7.75,17,8.81,17.63,1.84-.69,1.88-1.31-6.84-18-6.37-18.31,11.09,12,11.81,11.31a2.16,2.16,0,0,0,.38-2.25c-.16-.75-9.06-11.69-9.31-12.5s.16-3.75,1.06-3.44,8.19,4.09,8.69,3.81,1.34-1.25.88-1.94-20.35-11.5-20.35-11.5"/><path class="cls-1" d="M98.63,41.66c-.29,3.38,1.25,15.46,8.25,21.17s21.25,11.5,21.25,11.5a32.43,32.43,0,0,1,14.67,11c6.33,8.42,2.67,30.25,2.67,30.25A57.59,57.59,0,0,0,126,99.33c-8.33-9.5-11.25-11.58-11.25-11.58s7.75-11.17,13.83-13.33"/><path class="cls-1" d="M130,102.16s-11.17,8.58-22.33,7.08"/><path class="cls-1" d="M144.88,115.08s-.62,29.83-.83,30.58-4.12,6.42-5.17,6.83-5.33.54-6.92-.17-4.83-8.33-7-18.08,2.71-28.38,5-32.08"/><path class="cls-1" d="M132,103.16c2,3.58,4.88,13.54,5.17,17s-1,20.67-1,20.67"/><path class="cls-1" d="M127.71,144.75c0,2.79-.25,8.67.25,10.17a67,67,0,0,0,5.33,8.92c.38.25,5-9.58,8.58-9.08S152,169,153.21,170s-1.21-12.75-3.67-16.08a66.2,66.2,0,0,1-5.25-9.58"/><path class="cls-1" d="M128.58,155.71c0,4.75,2,16.75,5,22.88s15.58,26,15.58,26,6.42-.67,7.33-1,3.42-3.42,3.42-3.42L153.21,170"/><path class="cls-1" d="M145.63,158.58c-.54,4.5,2.5,17.92,3.75,20.5s2.33,20.42,2.33,20.42"/><path class="cls-1" d="M141.21,154.83c-.54,2.54-2.25,16-1.5,18.67s9.5,31.08,9.5,31.08"/><path class="cls-1" d="M133.29,163.83c1.58,2,5.83,9.17,5.83,9.17"/><path class="cls-1" d="M155.54,203.75c.38-1.37.92-15.58.58-20.08"/><path class="cls-2" d="M94.45,213.91l.23.11a16.89,16.89,0,0,1,.27-5.69l9.58,10,0,.12s11.67,4.65,13.3,5.09c0,0,12.09,7.43,11.63,21.75a64.06,64.06,0,0,1-5.75,23.88c-5.25,11.5-4.43,11.86-3.72,27.25l-6-14.87s-.94-7.25-1.24-10.36c-.58,0-8.95,10.6-9.74,11.85a33.26,33.26,0,0,0-1.38,6v.52l0-.2c-.68,3.8-1.29,7.88-1.29,7.88s-3.67-9.9-4.88-13S94,219,94.45,213.91Z"/><path class="cls-2" d="M125.45,262.91l1.75-28.38C127.33,240.66,125.45,262.91,125.45,262.91Z"/><path class="cls-1" d="M119.63,149.91c1.42,2.58,6.33,15,6.5,17.33a40.09,40.09,0,0,1-.33,6.17"/><path class="cls-1" d="M108.79,166.75c1.79-.5,9.63-1.12,12.67,2.67s7.58,9.92,8.17,11.75,1,19.33,1,19.33,3,11.25,3,21.67S129,251.08,129,251.08s4.63-22.42-15.58-29.17-22.33-23.67-22.33-23.67c10.92-12.67,17.42-33.58,19.5-34.67S123.88,144.5,126,138.25"/><path class="cls-1" d="M107.13,170.41c1.92.29,14.29,10.5,16.33,14.33s-.42,5.67,7,14.83"/><path class="cls-1" d="M95.29,208.33c-1.79,6.25,3.38,23,4.08,24.33s5.5-14.33,5.5-14.33Z"/><path class="cls-1" d="M94.79,213.91c-.46,5-.29,67.17.92,70.29s4.87,13,4.87,13,1.94-12.95,2.73-14.2,9.16-11.85,9.74-11.85-3.8-27.31.74-48.68"/><path class="cls-3" d="M110.92,286.41l3.38-4.87s5.63,13.94,7.63,22.38,2.31,18.88-1.75,26.63-6.56,12.63-8.75,6.88a28.46,28.46,0,0,1-2-10.25"/><path class="cls-1" d="M103.42,223.16c.56,6-3.69,58.31-1.5,66.38"/><path class="cls-3" d="M100.58,297.23c-.46,6.06-2.54,14.19-3.79,21.44s3.81,19.44,5.25,19.5,5.69-4.31,7.38-11,1.5-40.75,1.5-40.75l-4.12-7.62L103.31,283Z"/><path class="cls-1" d="M99.38,232.66c-.27,4.75-3.11,53,1.64,60.81"/><path class="cls-1" d="M104,282.08a25.89,25.89,0,0,1,1.83-12.83c2.17-5.29,5.78-15.9,6-19.65"/><path class="cls-1" d="M129,251.08s-4.13,19.33-8.63,26.83"/><path class="cls-1" d="M113.05,271.18c.3,3.11,1.24,10.36,1.24,10.36l6,14.88c-2-43.06,1.08-66,1.5-69.58"/><path class="cls-1" d="M123.54,319c-.31,5.63-4.44,28.63-9.25,40.38s-6.25,16.31-6.37,19.75S108,357,109.48,353s5.81-14.19,5.81-14.19"/><path class="cls-1" d="M102,338.16c.69,4.19.81,46.13-1.5,47.38-1.45.78-.37-42.12-1.63-52.12"/><polyline class="cls-1" points="100.54 385.54 102.67 393.29 107.54 384.54 107.92 379.16"/><path class="cls-1" d="M112,365.16c-.44,2.44.5,13.63,2,15.13s10.63,2.5,13.63,5.25-20.5,11.81-24.12,11.75-5.44-3.06-5.25-9.5,1.38-18.12,1.38-18.12"/><path class="cls-1" d="M31.53,205c-.09,1.69-3.24,10.39-4.4,14s1.22,15.13.31,16.06-2.81.59-2.81-5.25c0-2.85-.62-8.09-1.44-8.25s-4,15.38-4.56,16.25-1.94.47-1.94-.06,2.72-18.34,1.38-18.75-7.75,17-8.81,17.63-1.84-.69-1.87-1.31,6.84-18,6.37-18.31-11.09,12-11.81,11.31a2.16,2.16,0,0,1-.37-2.25c.16-.75,9.06-11.69,9.31-12.5s-.16-3.75-1.06-3.44S1.64,214.26,1.14,214-.21,212.73.26,212s20.35-11.5,20.35-11.5"/><path class="cls-1" d="M82.37,41.66c.29,3.38-1.25,15.46-8.25,21.17s-21.25,11.5-21.25,11.5a32.43,32.43,0,0,0-14.67,11c-6.33,8.42-2.67,30.25-2.67,30.25A57.59,57.59,0,0,1,55,99.33c8.33-9.5,11.25-11.58,11.25-11.58S58.53,76.58,52.45,74.41"/><path class="cls-1" d="M51,102.16s11.17,8.58,22.33,7.08"/><path class="cls-1" d="M36.12,115.08s.63,29.83.83,30.58,4.13,6.42,5.17,6.83,5.33.54,6.92-.17,4.83-8.33,7-18.08-2.71-28.38-5-32.08"/><path class="cls-1" d="M48.95,103.16c-2,3.58-4.87,13.54-5.17,17s1,20.67,1,20.67"/><path class="cls-1" d="M53.28,144.75c0,2.79.25,8.67-.25,10.17a67,67,0,0,1-5.33,8.92c-.37.25-5-9.58-8.58-9.08S29,169,27.78,170s1.21-12.75,3.67-16.08a66.2,66.2,0,0,0,5.25-9.58"/><path class="cls-1" d="M52.41,155.71c0,4.75-2,16.75-5,22.88s-15.58,26-15.58,26-6.42-.67-7.33-1S21,200.16,21,200.16L27.78,170"/><path class="cls-1" d="M35.37,158.58c.54,4.5-2.5,17.92-3.75,20.5s-2.33,20.42-2.33,20.42"/><path class="cls-1" d="M39.78,154.83c.54,2.54,2.25,16,1.5,18.67s-9.5,31.08-9.5,31.08"/><path class="cls-1" d="M47.7,163.83c-1.58,2-5.83,9.17-5.83,9.17"/><path class="cls-1" d="M25.45,203.75c-.37-1.37-.92-15.58-.58-20.08"/><path class="cls-1" d="M66.28,87.75c2.58,3.25,6,17.46,7.42,23.5,2.67,11.17,15.38,24.17,16.8,27.67,1.42-3.5,14.13-16.5,16.8-27.67,1.44-6,4.83-20.25,7.42-23.5"/><path class="cls-1" d="M62.37,149.91c-1.42,2.58-6.33,15-6.5,17.33a40.09,40.09,0,0,0,.33,6.17"/><path class="cls-2" d="M87.2,213.91,87,214a16.89,16.89,0,0,0-.27-5.69l-9.58,10,0,.12s-11.67,4.65-13.3,5.09c0,0-12.09,7.43-11.62,21.75A64.06,64.06,0,0,0,58,269.16c5.25,11.5,4.43,11.86,3.72,27.25l6-14.87s.94-7.25,1.24-10.36c.58,0,8.95,10.6,9.74,11.85a33.26,33.26,0,0,1,1.38,6v.52l0-.2c.68,3.8,1.29,7.88,1.29,7.88s3.67-9.9,4.88-13S87.66,219,87.2,213.91Z"/><path class="cls-2" d="M56.2,262.91l-1.75-28.38C54.32,240.66,56.2,262.91,56.2,262.91Z"/><path class="cls-1" d="M73.2,166.75c-1.79-.5-9.63-1.12-12.67,2.67s-7.58,9.92-8.17,11.75-1,19.33-1,19.33-3,11.25-3,21.67,4.58,28.92,4.58,28.92-4.62-22.42,15.58-29.17,22.33-23.67,22.33-23.67c-10.92-12.67-17.42-33.58-19.5-34.67S58.12,144.5,56,138.25"/><path class="cls-1" d="M74.87,170.41c-1.92.29-14.29,10.5-16.33,14.33s.42,5.67-7,14.83"/><path class="cls-1" d="M86.7,208.33c1.79,6.25-3.37,23-4.08,24.33s-5.5-14.33-5.5-14.33Z"/><path class="cls-1" d="M87.2,213.91c.46,5,.29,67.17-.92,70.29s-4.87,13-4.87,13-1.94-12.95-2.73-14.2-9.16-11.85-9.74-11.85,3.8-27.31-.74-48.68"/><path class="cls-1" d="M78.57,223.16c-.56,6,3.69,58.31,1.5,66.38"/><path class="cls-1" d="M82.62,232.66c.27,4.75,3.11,53-1.64,60.81"/><path class="cls-1" d="M78,282.08a25.89,25.89,0,0,0-1.83-12.83c-2.17-5.29-5.78-15.9-6-19.65"/><path class="cls-1" d="M52.95,251.08s4.13,19.33,8.63,26.83"/><path class="cls-1" d="M68.94,271.18c-.3,3.11-1.24,10.36-1.24,10.36l-6,14.88c2-43.06-1.08-66-1.5-69.58"/><path class="cls-3" d="M71.07,286.41l-3.37-4.87s-5.62,13.94-7.62,22.38-2.31,18.88,1.75,26.63,6.56,12.63,8.75,6.88a28.46,28.46,0,0,0,2-10.25"/><path class="cls-3" d="M81.41,297.23c.46,6.06,2.54,14.19,3.79,21.44s-3.81,19.44-5.25,19.5-5.69-4.31-7.37-11-1.5-40.75-1.5-40.75l4.13-7.62L78.68,283Z"/><path class="cls-1" d="M58.45,319c.31,5.63,4.44,28.63,9.25,40.38s6.25,16.31,6.38,19.75S73.95,357,72.51,353s-5.81-14.19-5.81-14.19"/><path class="cls-1" d="M79.95,338.16c-.69,4.19-.81,46.13,1.5,47.38,1.45.78.38-42.12,1.63-52.12"/><polyline class="cls-1" points="81.45 385.54 79.33 393.29 74.45 384.54 74.08 379.16"/><path class="cls-1" d="M69.95,365.16c.44,2.44-.5,13.63-2,15.13s-10.62,2.5-13.62,5.25,20.5,11.81,24.13,11.75,5.44-3.06,5.25-9.5-1.37-18.12-1.37-18.12"/><path class="cls-2" d="M73.2,166.75c-1.79-.5-9.63-1.12-12.67,2.67s-7.58,9.92-8.17,11.75-1,19.33-1,19.33-3,11.25-3,21.67,4.58,28.92,4.58,28.92-4.62-22.42,15.58-29.17,22.33-23.67,22.33-23.67c-10.92-12.67-17.42-33.58-19.5-34.67"/><path class="cls-2" d="M108.79,166.75c1.79-.5,9.63-1.12,12.67,2.67s7.58,9.92,8.17,11.75,1,19.33,1,19.33,3,11.25,3,21.67S129,251.08,129,251.08s4.63-22.42-15.58-29.17-22.33-23.67-22.33-23.67c10.92-12.67,17.42-33.58,19.5-34.67"/></g></g></svg>