<svg xmlns="http://www.w3.org/2000/svg" viewBox="0 0 82.83 124.96"><defs><style>.cls-1{fill:#fff;}</style></defs><title>Office</title><g id="Layer_2" data-name="Layer 2"><g id="Layer_1-2" data-name="Layer 1"><circle class="cls-1" cx="66.96" cy="122.46" r="2.5"/><path class="cls-1" d="M20.88,40.88H61.21c2.11,0,3.62-1.82,4.39-3.79C68.33,30.13,72.4,13,69,8.5S51.94,0,41.06,0,16.73,3.2,13.73,8.41s1,21.61,2.71,28.46C17,39,18.67,40.88,20.88,40.88Z"/><rect class="cls-1" x="12.43" y="61.88" width="58" height="17" rx="7.33" ry="7.33"/><path class="cls-1" d="M80.08,47.88h-7a2.51,2.51,0,1,0,0,5h1.35v7.36c0,4-1,4.51-3,6.68v4.21l.59-.26a12.15,12.15,0,0,0,6.53-9.7l-.08-8.3h1.61a2.51,2.51,0,1,0,0-5Z"/><path class="cls-1" d="M8.43,52.88H9.75a2.51,2.51,0,1,0,0-5h-7a2.51,2.51,0,1,0,0,5H4.36l-.06,8.3a12,12,0,0,0,6.52,9.6l.61.35V66.92c-2-2.17-3-2.67-3-6.68Z"/><path class="cls-1" d="M68.62,118.88c0-8-11.19-13.61-25.19-14.09V79.88h-4v24.9c-14,.44-25.19,6.1-25.19,14.1h4c0-5,9.19-9.66,21.19-10.08v10.08h4V108.79c12,.46,21.19,5.08,21.19,10.08Z"/><rect class="cls-1" x="36.43" y="41.88" width="10" height="18"/><rect class="cls-1" x="38.43" y="119.88" width="6" height="5"/><circle class="cls-1" cx="16.08" cy="122.46" r="2.5"/></g></g></svg>