<svg xmlns="http://www.w3.org/2000/svg" viewBox="0 0 104.08 84.09"><defs><style>.cls-1{fill:#fff;}</style></defs><title>Running</title><g id="Layer_2" data-name="Layer 2"><g id="Layer_1-2" data-name="Layer 1"><path class="cls-1" d="M104,77.13c-8.62,5.46-15.58,1.51-22,0S62.38,67.24,54,60.46s-26.27-23.07-33.81-29S7.48,21.71,6.59,18.09c0,0-8.44,3.14-6.21,7.3,1.44,2.69,4.27,5.93,7.73,9.3a1.43,1.43,0,0,0,1.75.19l2.74-1.71-1.33,3.2a1.42,1.42,0,0,0,.36,1.6c2.18,2,4.5,3.93,6.79,5.81a1.42,1.42,0,0,0,1.65.1l2.7-1.68L21.6,45A1.43,1.43,0,0,0,22,46.68C29.52,52.59,36,57.07,36,57.07q3.3,2.52,6.45,4.73a1.42,1.42,0,0,0,1.57,0l2.51-1.56-.95,2.29a1.43,1.43,0,0,0,.52,1.73c3.27,2.19,6.38,4.14,9.36,5.88a1.42,1.42,0,0,0,1.47,0l3.16-2L59,70.75a1.44,1.44,0,0,0,.64,1.8c4,2.15,7.67,3.91,11.06,5.34a1.41,1.41,0,0,0,1.43-.2l2.31-1.83-.55,1.91a1.43,1.43,0,0,0,.87,1.73,84.59,84.59,0,0,0,9.3,2.91,1.41,1.41,0,0,0,1.46-.52l.59-.77,0,.56a1.42,1.42,0,0,0,1.14,1.44c7,1.37,10.61.87,10.61.87C98.59,84,104.85,80.66,104,77.13Z"/><path class="cls-1" d="M11.86,22.7c4.31,2.76,34.51,28.53,34.51,28.53A174.38,174.38,0,0,0,79.14,74.49c17.47,9.28,24.86,0,24.86,0s-1.06-5.65-4.38-6.78-10-4.38-19.49-11.3c-1.79-1.31-3.44-3.68-4.94-6.65l.87-.6a1.13,1.13,0,1,0-1.29-1.86l-.56.39q-.78-1.76-1.5-3.69l.07,0A1.12,1.12,0,0,0,72,41.88c-.52-1.51-1-3.05-1.47-4.62l.35-.1a1.13,1.13,0,0,0-.6-2.18l-.37.1c-.51-1.85-1-3.69-1.42-5.49h0A1.13,1.13,0,0,0,68,27.41c-.44-1.91-.83-3.73-1.16-5.39l.63-.08a1.13,1.13,0,1,0-.28-2.24l-.79.1c-.4-2.07-.7-3.79-.9-5a2.57,2.57,0,0,0-2.08-2.1l-1-.19a2.58,2.58,0,0,0-3,2.09l-.54,3.08-2.51-2.4A2.61,2.61,0,0,0,54,14.64c-10.81,2-19.25-.8-20.57-7.85C32.06-.55,29.66,0,27.78,0S8.47,16.87,8.47,16.87A7,7,0,0,0,11.86,22.7ZM69.29,52.48a1.13,1.13,0,0,0,1.57.29l.52-.36a1.67,1.67,0,1,1-1.3-1.85l-.51.35A1.13,1.13,0,0,0,69.29,52.48Zm-1.37-6.34a1.87,1.87,0,1,1-1-2.07l-1,.42a1.13,1.13,0,0,0,.46,2.17,1.14,1.14,0,0,0,.45-.09l1-.44Zm-4.81-8a1.13,1.13,0,0,0,1.39.79l1.21-.33A1.92,1.92,0,1,1,65,36.43l-1.1.3A1.13,1.13,0,0,0,63.11,38.13ZM61.4,32.27a1.92,1.92,0,1,1,1.22-3.4l-1.18.33a1.13,1.13,0,1,0,.6,2.18l1.14-.31A1.92,1.92,0,0,1,61.4,32.27ZM59.47,19.69a2.15,2.15,0,0,1,1.64.76l-1.88.24a1.13,1.13,0,0,0,.14,2.25h.14l2-.25a2.17,2.17,0,1,1-2-3Z"/></g></g></svg>