<svg xmlns="http://www.w3.org/2000/svg" viewBox="0 0 76.24 76.24"><defs><style>.cls-1{fill:#fff;}</style></defs><title>Sports</title><g id="Layer_2" data-name="Layer 2"><g id="Layer_1-2" data-name="Layer 1"><path class="cls-1" d="M76,2A1.86,1.86,0,0,0,74.26.28,100.37,100.37,0,0,0,54,.82l4.46,3.51a82.33,82.33,0,0,1,13.8,13.81l3.18,4A100.38,100.38,0,0,0,76,2Z"/><path class="cls-1" d="M4.55,57.91.71,53A93.69,93.69,0,0,0,.49,74.11a1.86,1.86,0,0,0,1.65,1.65,93.7,93.7,0,0,0,21.05-.22l-4.84-3.81A82.32,82.32,0,0,1,4.55,57.91Z"/><path class="cls-1" d="M48.84,10.54l-9-6.68c-8.23,2.56-16.65,6.61-23.39,13.34-6.51,6.51-10,14.07-12.69,21.7l6.9,9.29A81.74,81.74,0,0,0,27.76,65.32L37,72.18A47.27,47.27,0,0,0,58.8,59.55,55.93,55.93,0,0,0,72.33,36.3L66,27.72A82.18,82.18,0,0,0,48.84,10.54Zm4.07,21.39a2.44,2.44,0,0,1-3.31.17L48,30.46l-2,2,1.64,1.64a2.47,2.47,0,0,1-3.48,3.48L42.5,35.92l-2,2,1.64,1.64a2.11,2.11,0,1,1-3,3l-1.64-1.64L35,43.37,36.68,45a2.11,2.11,0,1,1-3,3l-1.64-1.64-2.48,2.48,1.64,1.64a2.11,2.11,0,1,1-3,3L27,52.25,24,49.19,22.77,48a2.11,2.11,0,1,1,3-3l.85.85,2.48-2.48-.85-.85a2.11,2.11,0,1,1,3-3l.85.85,2.48-2.48-.85-.85a2.11,2.11,0,1,1,3-3l.85.85,2-2-.85-.85a2.47,2.47,0,0,1,3.48-3.48l.85.85,2-2-.85-.85a2.47,2.47,0,0,1,3.48-3.48l1.2,1.2,3.06,3.06,1.2,1.2A2.44,2.44,0,0,1,52.91,31.93Z"/></g></g></svg>