<svg xmlns="http://www.w3.org/2000/svg" viewBox="0 0 77.83 113.04"><defs><style>.cls-1{fill:#fff;}</style></defs><title>Stretching</title><g id="Layer_2" data-name="Layer 2"><g id="Layer_1-2" data-name="Layer 1"><path class="cls-1" d="M76.14,8.45S74.81,8,74.81,7.31s.13-2.48.13-2.48H73.2S72,1.23,70.26.3s-13,.47-17.5,2.27-13.36,7-15,7.88-6.75,6.48-9.08,9.28S16.24,37.87,15.1,39.34s.27,1.19.27,1.19A23.09,23.09,0,0,0,9.89,52,158.93,158.93,0,0,0,7.75,74a36.83,36.83,0,0,1-1.47,10c-.73,2.4-.13,17.63-.13,17.63a14.28,14.28,0,0,0-2.54,4.14c-.73,2.14-4.67,4.94-3.34,6.34,2.51,2.63,6-1.3,8.15-3.31s2.94-2.19,2.34-5.13a17.49,17.49,0,0,1,1.1-10.84c1.8-3.74,1.35-8.43,1.89-10.43s2.35-6.35,4-12.83,1.61-8.75,2.54-8.28,10.62,17.1,11.62,18.83,3.47,3.67,3.87,5.21,2,5,5.61,9.88S46,103.22,46.09,104s-.67,2.2,0,3.07,1.67.67,2.27,1.6.47,3.15,1.74,3.61,6.14-.27,6-.67-2.8-4.74-2.94-5.74a27.17,27.17,0,0,0-.93-3.61c-.13-.33-2.6-.73-2.8-1.47s-2.4-11-8.15-19.5-8.35-24.51-7.75-28.32a80.52,80.52,0,0,1,1.74-9.48c.67-2.07,11.42-10.55,11.89-10.69s2.34,1.14,2.94,1.07,1.2-2,1.87-2S63.72,28,64.52,27.28s7.41-6.75,8.55-7.88,5-6.28,4.67-7.61-.43-2.74,0-3.34S76.14,8.45,76.14,8.45Zm-3.21,5.74c-2.8,1.94-6.14,4.61-6.95,5.34s-6.34,4.14-6.81,4,1.47-4.14-.4-6.41-6.88-2.34-7.35-2-2.94-.33-3.74,1.07-2.6,1.07-3.07,1.87a1.35,1.35,0,0,1-1.47.53l-2.27-.8c-.33-.67,1.07-3.67,2.27-4.27s6.14-4.34,8.68-5.88,15-5.54,16.43-5.21a2.89,2.89,0,0,1,1.87,1.87A32.7,32.7,0,0,0,72.94,9C74.07,10.32,75.74,12.26,72.94,14.19Z"/></g></g></svg>